<svg viewBox="0 0 150 150">
   <path
      d="m 115,72.759743 a 20.392904,20.071421 0 0 0 -6.17686,-3.0739 v 0 C 131.4485,46.529138 78.945165,24.738611 75.000765,16.359392 71.056363,24.727225 18.553017,46.517753 41.189951,69.685843 v 0 a 20.392904,20.071421 0 0 0 -6.176863,3.0739 C 18.819062,85.374111 28.072792,101.2787 39.501146,106.08308 v 0 c 8.097014,3.87083 13.880593,10.95219 11.879474,19.67295 v 0 a 25.042903,24.648114 0 0 0 -1.538433,8.51584 h 50.305583 a 25.042903,24.648114 0 0 0 -1.53843,-8.50445 v 0 c -1.977988,-8.72077 3.73619,-15.80212 11.87947,-19.67295 v 0 C 121.90561,101.2787 131.21716,85.374111 115,72.759743 Z"
       />
   <path d="m 51.392188,125.75603 c 1.977983,-8.72076 -3.736193,-15.80212 -11.879474,-19.67295" style="fill:none" />
   <path
      d="M 65.327691,60.049797 C 64.196062,56.09433 61.669104,52.368179 57.81196,50.795262 58.783601,54.552249 52.795457,63.084497 54.715604,71.702796"
      style="fill:none" />
   <path
      d="M 108.82314,69.685843 C 131.4485,46.529138 78.945165,24.738611 75.000765,16.359392 71.056363,24.727225 18.553017,46.517753 41.178384,69.685843"
      style="fill:none" />
   <path
      d="M 78.702253,124.54924 C 80.27539,119.335 79.394477,88.906325 74.998959,85.741345 70.615003,88.906325 69.726138,119.335 71.299271,124.54924"
      style="fill:none" />
   <path
      d="m 78.88733,123.88892 c 1.5847,-4.98654 6.633124,-13.88928 11.155883,-14.29914 1.156715,4.82716 -1.532007,14.67485 -6.343947,18.81892 4.522761,-3.84807 10.06343,-5.13455 14.308579,-4.14407 -1.156715,5.37362 -6.396642,8.33368 -12.45783,10.01863 -0.188403,-5.59745 -4.853243,-10.03917 -10.543467,-10.03917 -5.690224,0 -10.355064,4.44172 -10.543467,10.03917 -6.061194,-1.67357 -11.347387,-4.63362 -12.457835,-10.01863 4.233582,-0.99048 9.774252,0.29599 14.308579,4.14407 -4.800372,-4.14407 -7.651719,-13.99176 -6.495,-18.81892 4.522756,0.40986 9.664402,9.3126 11.30694,14.29914"
      style="fill:none" />
   <path
      d="m 99.999999,115 c -1.997762,-7.09634 -14.246285,-13.99875 -15,-20.000001 -1.467589,-11.685271 11.012677,-20 20.000001,-20 8.44958,0.399324 13.51667,9.011497 12.67189,15.332587 C 116.85482,96.446353 110.69284,98.880493 105,99.999999 98.638052,101.03601 97.698133,94.257917 99.999999,90 101.38806,87.518111 106.74665,90.525766 105,94.999999 c 3.38549,-2.358519 2.60913,-7.974307 0,-10 -3.09619,-2.403844 -8.658662,-0.648737 -11.29514,4.973577 -1.191418,2.572966 -2.949624,12.238664 4.985446,16.405504 C 112.15448,112.92535 136.9429,89.825572 115,72.759743 99.592544,61.57986 88.549995,80.000388 75,79.999999 61.454298,79.99961 50.420547,61.57986 35.013088,72.759743 13.035483,89.836958 37.858609,112.92535 51.322785,106.37908 59.257859,102.21224 57.488081,92.546542 56.308231,89.973576 53.950138,84.94492 48.13558,83.261537 44.999999,84.999999 c -3.32443,1.843165 -3.803745,7.345956 0,10 -1.746638,-4.474233 3.611942,-7.481888 5,-4.999999 C 52.313429,94.257917 51.361923,101.07016 45,99.999999 39.290588,98.876111 33.377238,95.610365 32.992476,89.472106 32.597717,83.174367 36.582414,75.403577 45,75 c 9.103302,0 21.564019,8.108709 19.999999,19.999999 -0.777055,5.907971 -13.049586,13.043101 -15,20.000001"
      style="fill:none" />
   <path d="m 98.620903,125.75603 c -1.977982,-8.72076 3.736197,-15.80212 11.879477,-19.67295" style="fill:none" />
   <path
      d="M 85.017175,77.189961 C 87.723891,60.818605 81.084323,48.060445 75,39.999999 68.904102,48.094602 62.144484,60.745412 64.862767,77.128153"
      style="fill:none" />
   <path
      d="m 84.578536,60.066394 c 1.14461,-3.960691 3.796647,-7.700519 7.668862,-9.259747 -0.971641,3.756988 4.760425,12.3764 2.840275,20.994702"
      style="fill:none" />
   <path
      d="M 100.24958,69.807756 C 109.64211,50.100651 83.355637,35.827241 75.582506,25.842762 67.82094,35.827241 40.465371,50.127027 49.857906,69.834132"
      style="fill:none" />
</svg>