<svg viewBox="0 0 150 150">
   <path 
      d="M 74.995084,15.025247 C 98.185691,15.025247 120,33.49553 120,68.845344 V 134.93688 H 30.000001 V 68.845344 C 30.000001,33.49553 51.814309,15 74.995084,15" />
   <path 
      d="m 107.14145,134.96213 c 0,0 0.0688,-64.563921 0,-66.912159 0,-16.185164 -7.166575,-38.40505 -32.136534,-38.40505 -24.969963,0 -32.146368,22.182009 -32.146368,38.367177 -0.06881,2.373485 0,66.912152 0,66.912152" />
   <path
      style="fill:none"
      d="m 107.14147,134.93688 c 0,0 -14.386346,-0.20172 -14.308186,-8.01236 0.07768,-7.76281 14.321966,-6.94369 14.321966,-6.94369 0,0 -14.407955,0.16706 -14.446688,-7.64855 -0.03888,-7.8454 14.457238,-7.31789 14.457238,-7.31789 0,0 -14.367862,0.0327 -14.37409,-7.773234 -0.0062,-7.812209 14.38001,-7.234868 14.38001,-7.234868 0,0 -14.467306,-0.137833 -14.421584,-7.980978 0.04553,-7.81044 14.416644,-7.110376 14.416644,-7.110376 0,0 -14.366069,0.170611 -14.458218,-7.648161 -0.09026,-7.658137 13.824688,-7.429324 13.824688,-7.429324 0,0 -12.878486,1.430884 -13.783114,-5.957294 -0.776276,-6.339912 8.997684,-8.901433 8.997684,-8.901433 -16.771453,2.051286 -25.912322,-2.33803 -26.742904,-15.3338 -2.011445,13.333379 -11.44601,18.084043 -26.82022,15.443768 0,0 9.999317,2.561778 9.228095,8.874611 -0.897703,7.348135 -13.976408,6.049329 -13.976408,6.049329 0,0 14.053065,-0.456786 14.017982,7.129423 -0.03595,7.774419 -14.626108,7.826387 -14.626108,7.826387 0,0 14.648237,-0.730687 14.667682,7.05687 0.01948,7.802476 -14.667682,7.897825 -14.667682,7.897825 0,0 14.704833,-0.40595 14.626108,7.401167 -0.07817,7.751948 -14.620229,7.565248 -14.620229,7.565248 0,0 14.735699,-0.54174 14.703377,7.27644 -0.03222,7.79263 -14.692812,7.73145 -14.692812,7.73145 0,0 14.627886,-0.67371 14.651238,7.11023 0.02339,7.79494 -14.637392,7.91658 -14.637392,7.91658" />
   <path
      style="fill:none"
      d="m 104.91331,68.152623 a 2.5000005,2.5 0 0 1 -3.06592,1.760695 2.5000005,2.5 0 0 1 -1.76071,-3.065909 2.5000005,2.5 0 0 1 3.0659,-1.760736 2.5000005,2.5 0 0 1 1.76075,3.065887" />
   <path
      style="fill:none"
      d="m 104.91331,83.152615 a 2.5,2.5 0 0 1 -3.06592,1.760695 2.5,2.5 0 0 1 -1.76071,-3.065909 2.5,2.5 0 0 1 3.0659,-1.760735 2.5,2.5 0 0 1 1.76075,3.065886" />
   <path
      style="fill:none"
      d="m 104.91331,98.152623 a 2.5,2.5 0 0 1 -3.06592,1.760695 2.5,2.5 0 0 1 -1.76071,-3.065909 2.5,2.5 0 0 1 3.0659,-1.760736 2.5,2.5 0 0 1 1.76075,3.065887" />
   <path
      style="fill:none"
      d="m 104.91331,113.15262 a 2.5000005,2.5 0 0 1 -3.06592,1.76069 2.5000005,2.5 0 0 1 -1.76071,-3.06591 2.5000005,2.5 0 0 1 3.0659,-1.76073 2.5000005,2.5 0 0 1 1.76075,3.06588" />
   <path
      style="fill:none"
      d="m 104.91331,128.15262 a 2.5,2.5 0 0 1 -3.06592,1.7607 2.5,2.5 0 0 1 -1.76071,-3.06591 2.5,2.5 0 0 1 3.0659,-1.76074 2.5,2.5 0 0 1 1.76075,3.06589" />
   <path
      style="fill:none"
      d="m 49.913313,68.152623 a 2.4999995,2.5 0 0 1 -3.06592,1.760695 2.4999995,2.5 0 0 1 -1.760715,-3.065909 2.4999995,2.5 0 0 1 3.065897,-1.760736 2.4999995,2.5 0 0 1 1.760755,3.065887" />
   <path
      style="fill:none"
      d="m 49.913313,83.152615 a 2.4999995,2.5 0 0 1 -3.06592,1.760695 2.4999995,2.5 0 0 1 -1.760715,-3.065909 2.4999995,2.5 0 0 1 3.065897,-1.760735 2.4999995,2.5 0 0 1 1.760755,3.065886" />
   <path
      style="fill:none"
      d="m 49.913313,98.152623 a 2.4999995,2.5 0 0 1 -3.06592,1.760695 2.4999995,2.5 0 0 1 -1.760715,-3.065909 2.4999995,2.5 0 0 1 3.065897,-1.760736 2.4999995,2.5 0 0 1 1.760755,3.065887" />
   <path
      style="fill:none"
      d="m 49.913314,113.15262 a 2.5,2.5 0 0 1 -3.065921,1.76069 2.5,2.5 0 0 1 -1.760715,-3.06591 2.5,2.5 0 0 1 3.065897,-1.76073 2.5,2.5 0 0 1 1.760756,3.06588" />
   <path
      style="fill:none"
      d="m 49.913313,128.15262 a 2.4999995,2.5 0 0 1 -3.06592,1.7607 2.4999995,2.5 0 0 1 -1.760715,-3.06591 2.4999995,2.5 0 0 1 3.065897,-1.76074 2.4999995,2.5 0 0 1 1.760755,3.06589" />
   <path
      style="fill:none"
      d="m 53.088316,53.681786 a 2.4999995,2.5 0 0 1 -3.06592,1.760695 2.4999995,2.5 0 0 1 -1.760715,-3.065909 2.4999995,2.5 0 0 1 3.065897,-1.760735 2.4999995,2.5 0 0 1 1.760755,3.065886" />
   <path
      style="fill:none"
      d="m 101.73833,53.681786 a 2.5000005,2.5 0 0 1 -3.065925,1.760695 2.5000005,2.5 0 0 1 -1.760716,-3.065909 2.5000005,2.5 0 0 1 3.065899,-1.760735 2.5000005,2.5 0 0 1 1.760752,3.065886" />
   <path
      style="fill:none"
      d="m 89.913306,38.68179 a 2.5,2.5 0 0 1 -3.065921,1.760695 2.5,2.5 0 0 1 -1.760715,-3.065909 2.5,2.5 0 0 1 3.065898,-1.760735 2.5,2.5 0 0 1 1.760755,3.065886" />
   <path
      style="fill:none"
      d="m 64.913313,38.68179 a 2.4999995,2.5 0 0 1 -3.06592,1.760695 2.4999995,2.5 0 0 1 -1.760715,-3.065909 2.4999995,2.5 0 0 1 3.065897,-1.760735 2.4999995,2.5 0 0 1 1.760755,3.065886" />
</svg>