<svg viewBox="0 0 150 150">
   <path
      d="M 74.775701,27.989794 C 102.9718,27.908754 126.6836,59.370808 135,85.430049 c 3.45797,10.835455 -17.27103,14.551531 -26.57944,20.933781 -2.13084,1.4041 -4.37383,2.68055 -6.50467,3.957 C 93.280374,100.10922 87.902543,81.512233 75,81.600699 62.00874,81.689769 56.831777,100.36451 48.196263,110.57612 c -2.242991,-1.27645 -4.373832,-2.5529 -6.616823,-3.957 C 32.383179,100.49216 11.658451,96.852162 15.000002,86.068274 23.112003,59.88914 46.678116,28.070551 74.775701,27.989794 Z" />
   <path
      d="m 75,91.939944 c 9.960284,0 13.906542,14.423886 20.523364,22.210236 -6.728971,3.82935 -13.570093,7.27576 -20.411214,10.46689 -6.953271,-3.06348 -13.794392,-6.5099 -20.523364,-10.2116 C 61.205608,106.49148 65.118955,91.939944 75,91.939944 Z" />
   <path
      d="M 89.479882,60.220981 A 15,20 0 0 1 71.084357,74.30654 15,20 0 0 1 60.520066,49.779266 15,20 0 0 1 78.915453,35.693383 15,20 0 0 1 89.479985,60.220473" />
   <path
      d="M 49.739937,78.915738 A 7.5,15 0 0 1 40.542175,89.479908 7.5,15 0 0 1 35.260029,71.084452 7.5,15 0 0 1 44.457723,60.52004 7.5,15 0 0 1 49.739989,78.915358" />
   <path
      d="m 114.73993,78.915738 a 7.5,15 0 0 1 -9.19776,10.56417 7.5,15 0 0 1 -5.28214,-18.395456 7.5,15 0 0 1 9.19769,-10.564412 7.5,15 0 0 1 5.28227,18.395318" />
   <path
      d="M 79.826627,58.915735 A 5,15 0 0 1 73.694786,69.479904 5,15 0 0 1 70.173355,51.084448 5,15 0 0 1 76.305151,40.520037 5,15 0 0 1 79.826662,58.915354" />
</svg>