<svg viewBox="0 0 150 150">
   <path
      d="M 74.993216,135 C 79.715863,102.86134 107.1425,61.944366 115,57.258876 93.449534,44.387755 83.325698,33.082194 74.993216,15 66.674301,33.082194 56.550465,44.387755 35,57.258876 42.857509,61.944366 70.284142,102.86134 74.993216,135 Z"
       />
   <path
      d="M 107.40034,65.153758 C 93.015266,56.207717 81.235793,46.311153 75.006788,34.614204 68.764206,46.322337 56.984733,56.140621 42.613234,65.153758"
      style="fill:none" />
   <path
      d="M 100.13383,75.441646 C 85.748756,66.495605 81.235793,61.157394 75.006788,49.460445 68.764206,61.168578 64.236959,66.428509 49.86546,75.441646"
      style="fill:none" />
   <path
      d="M 107.43538,52.489298 C 93.050306,61.435339 81.235793,73.337137 75.006788,85.034086 68.764206,73.325953 57.81196,60.911689 43.440461,51.898552"
      style="fill:none" />
   <path d="M 75.006786,85.034085 74.993213,135" />
   <path 
      d="m 80.451199,69.256008 a 5.7996292,7.5533566 0 0 1 -7.112482,5.319663 5.7996292,7.5533566 0 0 1 -4.084598,-9.263163 5.7996292,7.5533566 0 0 1 7.112428,-5.319784 5.7996292,7.5533566 0 0 1 4.084691,9.263092" />
</svg>