<svg viewBox="0 0 150 150">
   <path
      d="M 134.41853,75.291336 C 122.37218,103.54083 102.24808,122.99342 74.997813,134.99999 47.758362,122.99342 27.634258,103.54083 15.587911,75.291336 27.634258,47.106687 47.758362,27.546023 74.997813,15.593484 102.24808,27.546023 122.37218,47.106687 134.41853,75.291336 Z" />
   <path
      d="M 124.48295,75.291338 C 114.45102,103.52896 97.692126,122.97337 74.998717,134.9749 52.314316,122.97337 35.555416,103.52896 25.52349,75.291338 35.555416,47.118535 52.314316,27.566092 74.998717,15.618577 97.692126,27.566092 114.45102,47.118535 124.48295,75.291338 Z" />
   <path
      d="M 108.06579,75.291336 C 101.10184,90.356289 90.396375,102.27641 74.997813,110.27358 59.610064,102.27641 48.915417,90.356289 41.940647,75.291336 48.904603,60.237189 59.610064,48.273843 74.997813,40.309086 c 15.398562,8.007985 26.104027,19.928103 33.067977,34.98225 z" />

   <path style="fill:none"
      d="m 79.474642,107.77717 c 6.747685,16.00516 -2.162719,23.37553 -4.455202,23.37553 -2.292483,0 -11.192073,-7.37037 -4.455202,-23.37553" />
   <path style="fill:none"
      d="M 79.474642,42.81631 C 86.222327,26.811147 77.311923,19.440775 75.01944,19.440775 c -2.292483,0 -11.2137,7.370372 -4.466016,23.375535" />
   <path 
      d="m 84.653255,77.610492 a 10,10 0 0 1 -12.263684,7.04278 10,10 0 0 1 -7.04286,-12.263637 10,10 0 0 1 12.263591,-7.042941 10,10 0 0 1 7.043022,12.263544" />
   <path 
      d="m 49.913314,103.15262 a 2.5,2.5000005 0 0 1 -3.065921,1.7607 2.5,2.5000005 0 0 1 -1.760715,-3.06591 2.5,2.5000005 0 0 1 3.065897,-1.76074 2.5,2.5000005 0 0 1 1.760756,3.06589" />
   <path 
      d="m 104.91331,48.152623 a 2.5,2.4999995 0 0 1 -3.06592,1.760695 2.5,2.4999995 0 0 1 -1.76071,-3.065909 2.5,2.4999995 0 0 1 3.0659,-1.760735 2.5,2.4999995 0 0 1 1.76075,3.065885" />
   <path 
      d="m 104.91331,103.15262 a 2.5,2.5 0 0 1 -3.06592,1.7607 2.5,2.5 0 0 1 -1.76071,-3.06591 2.5,2.5 0 0 1 3.0659,-1.76074 2.5,2.5 0 0 1 1.76075,3.06589" />
   <path 
      d="m 49.913313,48.152623 a 2.4999995,2.4999995 0 0 1 -3.06592,1.760695 2.4999995,2.4999995 0 0 1 -1.760715,-3.065909 2.4999995,2.4999995 0 0 1 3.065897,-1.760735 2.4999995,2.4999995 0 0 1 1.760755,3.065885" />
   <path 
      d="m 59.913314,43.152619 a 2.5000005,2.5 0 0 1 -3.065921,1.760695 2.5000005,2.5 0 0 1 -1.760716,-3.065909 2.5000005,2.5 0 0 1 3.065899,-1.760735 2.5000005,2.5 0 0 1 1.760755,3.065886" />
   <path 
      d="m 44.91331,58.152623 a 2.5000005,2.5 0 0 1 -3.065921,1.760695 2.5000005,2.5 0 0 1 -1.760716,-3.065909 2.5000005,2.5 0 0 1 3.065899,-1.760736 2.5000005,2.5 0 0 1 1.760756,3.065887" />
   <path 
      d="m 44.91331,93.152623 a 2.5,2.5 0 0 1 -3.065921,1.760695 2.5,2.5 0 0 1 -1.760715,-3.065909 2.5,2.5 0 0 1 3.065898,-1.760736 2.5,2.5 0 0 1 1.760755,3.065887" />
   <path 
      d="m 109.91331,93.152623 a 2.4999995,2.4999995 0 0 1 -3.06592,1.760695 2.4999995,2.4999995 0 0 1 -1.76071,-3.065909 2.4999995,2.4999995 0 0 1 3.0659,-1.760735 2.4999995,2.4999995 0 0 1 1.76075,3.065885" />
   <path 
      d="m 94.913313,108.15262 a 2.4999995,2.5 0 0 1 -3.06592,1.76069 2.4999995,2.5 0 0 1 -1.760715,-3.06591 2.4999995,2.5 0 0 1 3.065897,-1.76073 2.4999995,2.5 0 0 1 1.760755,3.06588" />
   <path 
      d="m 59.913314,108.15262 a 2.5,2.4999995 0 0 1 -3.065921,1.7607 2.5,2.4999995 0 0 1 -1.760715,-3.06591 2.5,2.4999995 0 0 1 3.065897,-1.76074 2.5,2.4999995 0 0 1 1.760756,3.06589" />
   <path 
      d="m 109.91331,58.152623 a 2.4999995,2.5 0 0 1 -3.06592,1.760695 2.4999995,2.5 0 0 1 -1.76071,-3.065909 2.4999995,2.5 0 0 1 3.0659,-1.760736 2.4999995,2.5 0 0 1 1.76075,3.065887" />
   <path 
      d="m 94.913313,43.152619 a 2.4999995,2.5 0 0 1 -3.06592,1.760695 2.4999995,2.5 0 0 1 -1.760715,-3.065909 2.4999995,2.5 0 0 1 3.065897,-1.760735 2.4999995,2.5 0 0 1 1.760755,3.065886" />
   <path 
      d="m 64.913313,63.152623 a 2.4999995,2.4999995 0 0 1 -3.06592,1.760695 2.4999995,2.4999995 0 0 1 -1.760715,-3.065909 2.4999995,2.4999995 0 0 1 3.065897,-1.760735 2.4999995,2.4999995 0 0 1 1.760755,3.065885" />
   <path 
      d="m 89.913307,88.152615 a 2.5000005,2.5 0 0 1 -3.065922,1.760695 2.5000005,2.5 0 0 1 -1.760715,-3.065909 2.5000005,2.5 0 0 1 3.065898,-1.760735 2.5000005,2.5 0 0 1 1.760756,3.065886" />
   <path 
      d="m 89.913306,63.152623 a 2.5,2.4999995 0 0 1 -3.065921,1.760695 2.5,2.4999995 0 0 1 -1.760715,-3.065909 2.5,2.4999995 0 0 1 3.065898,-1.760735 2.5,2.4999995 0 0 1 1.760755,3.065885" />
   <path 
      d="m 64.913314,88.152616 a 2.5,2.5000005 0 0 1 -3.065921,1.760695 2.5,2.5000005 0 0 1 -1.760715,-3.06591 2.5,2.5000005 0 0 1 3.065897,-1.760736 2.5,2.5000005 0 0 1 1.760756,3.065887" />
   <path 
      d="m 84.913306,53.152619 a 2.5,2.5 0 0 1 -3.065921,1.760695 2.5,2.5 0 0 1 -1.760715,-3.065909 2.5,2.5 0 0 1 3.065898,-1.760735 2.5,2.5 0 0 1 1.760755,3.065886" />
   <path 
      d="m 69.913314,53.152619 a 2.5,2.5 0 0 1 -3.065921,1.760695 2.5,2.5 0 0 1 -1.760715,-3.065909 2.5,2.5 0 0 1 3.065897,-1.760735 2.5,2.5 0 0 1 1.760756,3.065886" />
   <path 
      d="m 54.91331,68.152623 a 2.5,2.5 0 0 1 -3.065921,1.760695 2.5,2.5 0 0 1 -1.760715,-3.065909 2.5,2.5 0 0 1 3.065898,-1.760736 2.5,2.5 0 0 1 1.760755,3.065887" />
   <path 
      d="m 54.91331,83.152615 a 2.5,2.5 0 0 1 -3.065921,1.760695 2.5,2.5 0 0 1 -1.760715,-3.065909 2.5,2.5 0 0 1 3.065898,-1.760735 2.5,2.5 0 0 1 1.760755,3.065886" />
   <path 
      d="m 69.913314,98.152623 a 2.5,2.5 0 0 1 -3.065921,1.760695 2.5,2.5 0 0 1 -1.760715,-3.065909 2.5,2.5 0 0 1 3.065897,-1.760736 2.5,2.5 0 0 1 1.760756,3.065887" />
   <path 
      d="m 84.913306,98.152623 a 2.5,2.5 0 0 1 -3.065921,1.760695 2.5,2.5 0 0 1 -1.760715,-3.065909 2.5,2.5 0 0 1 3.065898,-1.760736 2.5,2.5 0 0 1 1.760755,3.065887" />
   <path 
      d="m 99.913314,68.152623 a 2.5,2.5 0 0 1 -3.065921,1.760695 2.5,2.5 0 0 1 -1.760715,-3.065909 2.5,2.5 0 0 1 3.065897,-1.760736 2.5,2.5 0 0 1 1.760756,3.065887" />
   <path 
      d="m 99.913314,83.152615 a 2.5,2.5 0 0 1 -3.065921,1.760695 2.5,2.5 0 0 1 -1.760715,-3.065909 2.5,2.5 0 0 1 3.065897,-1.760735 2.5,2.5 0 0 1 1.760756,3.065886" />
</svg>