<svg viewBox="0 0 150 150">
   <path
      d="m 74.989529,135 c 5.601241,0 0.682307,-6.87942 2.035816,-10.72043 0.694883,-1.75864 1.76785,-3.32767 3.136285,-4.58628 6.32751,-6.15708 23.65945,0.52743 36.31451,-8.48461 6.43757,-4.66654 9.57381,-11.03001 8.20928,-18.505641 -1.39756,-6.409325 -6.9548,-8.668066 -13.84355,-9.023504 -11.004378,-0.52742 -20.083038,9.929295 -22.426963,2.476591 -1.738688,-9.413337 18.707493,-12.612264 25.090023,-23.14924 2.92716,-5.125169 2.83917,-13.380471 -0.88036,-18.024076 -2.86112,-3.531436 -9.5518,-3.497036 -14.646838,0.321025 -4.962981,3.43971 -8.693481,8.255302 -12.677066,4.093256 -2.090842,-2.7747 0.462205,-7.429772 2.49798,-12.612269 C 90.923909,28.862025 89.361278,15 75.00055,15 60.639822,15 59.066169,28.758837 62.202454,36.784822 c 2.035817,5.159565 4.588822,9.826103 2.49798,12.612269 C 60.705828,53.559137 56.99737,48.709149 52.023368,45.303835 46.928336,41.48576 40.237649,41.451361 37.376534,44.98281 c -3.719521,4.655072 -3.807529,12.898907 -0.880366,18.024076 6.382537,10.559904 26.828713,13.758836 25.090026,23.14924 -2.343926,7.452704 -11.422585,-3.004011 -22.426968,-2.476591 -6.93275,0.389841 -12.434962,2.660044 -13.854519,9.057904 -1.364574,7.475631 1.771711,13.839091 8.209273,18.505631 12.655064,9.01204 29.986957,2.29314 36.31451,8.48462 1.36842,1.25862 2.441372,2.82765 3.136243,4.58628 C 74.307263,128.16644 69.399308,135 74.989529,135 Z"
      />
   <path
      d="m 74.989529,135 c 5.601241,0 0.682307,-6.87942 2.035816,-10.72043 0.694883,-1.75864 1.76785,-3.32767 3.136285,-4.58628 6.32751,-6.15708 23.65945,0.52743 36.31451,-8.48461 6.43757,-4.66654 9.57381,-11.03001 8.20928,-18.505641 -1.39756,-6.409325 -6.9548,-8.668066 -13.84355,-9.023504 -11.004378,-0.52742 -20.083038,9.929295 -22.426963,2.476591 -1.738688,-9.413337 18.707493,-12.612264 25.090023,-23.14924 2.92716,-5.125169 2.83917,-13.380471 -0.88036,-18.024076 -2.86112,-3.531436 -9.5518,-3.497036 -14.646838,0.321025 -4.962981,3.43971 -8.693481,8.255302 -12.677066,4.093256 -2.090842,-2.7747 0.462205,-7.429772 2.49798,-12.612269 C 90.923909,28.862025 89.361278,15 75.00055,15 60.639822,15 59.066169,28.758837 62.202454,36.784822 c 2.035817,5.159565 4.588822,9.826103 2.49798,12.612269 C 60.705828,53.559137 56.99737,48.709149 52.023368,45.303835 46.928336,41.48576 40.237649,41.451361 37.376534,44.98281 c -3.719521,4.655072 -3.807529,12.898907 -0.880366,18.024076 6.382537,10.559904 26.828713,13.758836 25.090026,23.14924 -2.343926,7.452704 -11.422585,-3.004011 -22.426968,-2.476591 -6.93275,0.389841 -12.434962,2.660044 -13.854519,9.057904 -1.364574,7.475631 1.771711,13.839091 8.209273,18.505631 12.655064,9.01204 29.986957,2.29314 36.31451,8.48462 1.36842,1.25862 2.441372,2.82765 3.136243,4.58628 C 74.307263,128.16644 69.399308,135 74.989529,135 Z"
      style="fill:none" />
   <path
      d="m 110.88858,99.451083 c -4.03861,4.861457 -29.340459,1.117427 -35.888071,12.101567 -6.602638,-10.98414 -31.84211,-7.25158 -35.88072,-12.101567"
      style="fill:none" />
   <path
      d="M 106.95675,54.963743 C 105.09703,61.097887 81.746262,68.705336 74.989529,81.030961 68.254838,68.705336 45.115334,61.035527 43.266595,54.912845"
      style="fill:none" />
   <path style="fill:none"
      d="M 74.999997,135 75,30" />
   <path 
      d="m 44.91331,53.152619 a 2.5,2.5 0 0 1 -3.065921,1.760695 2.5,2.5 0 0 1 -1.760715,-3.065909 2.5,2.5 0 0 1 3.065898,-1.760735 2.5,2.5 0 0 1 1.760755,3.065886" />
   <path 
      d="m 109.91331,53.152619 a 2.4999995,2.5 0 0 1 -3.06592,1.760695 2.4999995,2.5 0 0 1 -1.76071,-3.065909 2.4999995,2.5 0 0 1 3.0659,-1.760735 2.4999995,2.5 0 0 1 1.76075,3.065886" />
   <path 
      d="m 39.913314,98.152623 a 2.5,2.5 0 0 1 -3.065921,1.760695 2.5,2.5 0 0 1 -1.760715,-3.065909 2.5,2.5 0 0 1 3.065897,-1.760736 2.5,2.5 0 0 1 1.760756,3.065887" />
   <path 
      d="m 114.91331,98.152623 a 2.5,2.5 0 0 1 -3.06592,1.760695 2.5,2.5 0 0 1 -1.76072,-3.065909 2.5,2.5 0 0 1 3.0659,-1.760736 2.5,2.5 0 0 1 1.76075,3.065887" />
   <path 
      d="m 77.404815,28.14527 a 2.5,2.5000005 0 0 1 -3.065921,1.760696 2.5,2.5000005 0 0 1 -1.760715,-3.06591 2.5,2.5000005 0 0 1 3.065897,-1.760736 2.5,2.5000005 0 0 1 1.760756,3.065887" />
</svg>