<svg viewBox="0 0 150 150">
   
   <path
      d="M 135,124.9883 C 129.59065,83.452996 108.60001,51.652164 75.026751,27.737186 41.418217,51.652164 20.427578,83.452996 15.053504,124.9883 Z"
      />
   <path
      d="M 108.96455,124.9883 A 133.21117,132.53857 0 0 0 74.991475,59.865624 133.21117,132.53857 0 0 0 41.053673,124.9883"
       />
   <path
      d="M 95.429415,124.9883 A 132.35273,131.68446 0 0 0 74.991475,80.247169 132.35273,131.68446 0 0 0 54.553531,124.9766"
       />
   <line x1="91.983894" y1="113.29995" x2="75.003242" y2="124.98833" />
   <line x1="58.010807" y1="113.29995" x2="74.991486" y2="124.98833" />
   <polyline
      points="121.89 112.43 96.97 101.56 114.6 83.57 88.59 81.34 100.81 58.48 77.41 64.34 82.93 38.91 70.86 43.3 58.8 38.91 64.32 64.34 40.92 58.48 53.14 81.34 27.13 83.57 44.76 101.56 19.84 112.43"
      transform="matrix(1.175946,0,0,1.1700086,-8.3360595,-6.555763)" style="fill:none" />
   <path style="fill:none" d="M 65.858027,95.133066 74.999997,125 84.073717,95.037875" />
</svg>