<svg viewBox="0 0 150 150">
   <path d="M 114.70369,14.966556 82.495659,135.17794" />
   <path d="M 67.289637,134.81874 35.081606,14.846824" />
   <path
      d="M 110.5707,30.055587 74.927311,7.4503991 39.199259,30.055587 41.146523,37.505986 74.927311,15.916762 108.62343,37.505986 Z" />
   <path
      d="M 105.51868,49.390402 75.166776,29.9601 44.349214,49.34807 46.33881,56.756137 75.166776,38.426463 103.52909,56.629142 Z" />
   <path
      d="M 100.23447,68.788091 75.047044,52.828998 49.605623,68.872755 51.552887,76.280822 75.047044,61.295361 98.287202,76.153827 Z" />
   <path
      d="M 95.154654,87.91851 75.047044,75.218966 54.764478,87.946227 56.681809,95.306823 75.047044,83.685329 93.165052,95.284242 Z" />
   <path
      d="m 90.036582,107.16328 -14.989538,-9.434613 -15.13407,9.404683 1.91733,7.42046 13.21674,-8.35878 13.012335,8.32885 z" />
</svg>