<svg viewBox="0 0 150 150">
   <path
      d="M 95.095348,122.40833 130,58.918259 c -3.44206,-7.31533 -6.99168,-12.24396 -10.63812,-15.455332 -18.67318,-17.356929 -28.902558,0.174637 -44.348809,0.174637 -15.446251,0 -25.686383,-17.521864 -44.370323,-0.164935 -3.646434,3.211372 -7.19606,8.1303 -10.638121,15.455332 L 54.898525,122.40833 C 74.999999,105 74.999999,105 95.095348,122.40833 Z"
      />
   <path
      d="m 64.999999,99.999999 c -1.828595,-8.382552 -12.554797,-50.374924 -25,-45 -12.445203,5.374924 18.911854,38.460833 25,45 z"
      />
   <path d="m 74.999999,94.999999 c 2.861214,-7.431754 16.672485,-45 0,-45 -16.672485,0 -2.850457,37.568246 0,45 z"
      />
   <path
      d="m 84.999999,99.999999 c 1.828595,-8.382552 12.554795,-50.374924 25.000001,-45 12.4452,5.374924 -18.911855,38.460833 -25.000001,45 z"
      />
</svg>