<svg viewBox="0 0 150 150">
   <path
      d="M 74.999994,135 C 81.593163,105.98622 124.99819,108.53129 124.99819,76.717924 125.19516,55.237542 109.2513,32.930012 74.999994,15.000001 40.790155,32.942737 24.80483,55.237542 25.001796,76.717924 25.012162,108.53129 68.417192,105.98622 74.999994,135 Z" />
   <path
      d="M 84.962996,43.443779 C 101.34225,65.471351 79.61314,85.136234 74.999995,101.89551 70.397217,85.136234 48.431431,65.454035 64.779588,43.401013" />
   <path d="m 105,34.999999 c -14.310507,12.322833 -45.689494,12.322833 -60,0" style="fill:none" />

   <path
      d="M 91.389991,42.030657 C 118.07932,77.469315 82.579102,92.183998 75.062171,119.14685 67.562133,92.183998 31.863303,77.441456 58.501955,41.961854"
      style="fill:none" />
   <path d="M 96.093864,28.261425 C 81.783357,40.584258 68.233722,40.589503 53.923216,28.26667" style="fill:none" />
   <path style="fill:none" d="m 48.783896,65.560503 c -15.940953,0 -23.502856,15.411481 -23.502856,15.411481" />
   <path style="fill:none" d="m 55.231376,85.857592 c -9.613449,0.564919 -16.105083,4.972071 -19.954608,12.63105" />
   <path style="fill:none" d="m 100.93839,65.560503 c 15.94105,0 23.503,15.411481 23.503,15.411481" />
   <path style="fill:none" d="m 94.490912,85.857592 c 9.613468,0.564919 16.105138,4.972071 19.954688,12.63105" />
   <path 
      d="m 81.100432,28.637287 a 6.2593746,6.0088429 0 0 1 -7.676299,4.231896 6.2593746,6.0088429 0 0 1 -4.408391,-7.369027 6.2593746,6.0088429 0 0 1 7.676242,-4.231993 6.2593746,6.0088429 0 0 1 4.408491,7.368972" />
   <path style="fill:none"
      d="m 81.100432,64.558449 a 6.2593746,6.0088429 0 0 1 -7.676299,4.231896 6.2593746,6.0088429 0 0 1 -4.408391,-7.369027 6.2593746,6.0088429 0 0 1 7.676242,-4.231993 6.2593746,6.0088429 0 0 1 4.408491,7.368972" />
</svg>