<svg viewBox="0 0 150 150">
   <path
      d="M 74.997633,133.27265 C 81.55791,116.22976 115.60888,101.74572 134.66494,103.85799 139.43832,57.919431 85.781482,34.310443 74.997633,16.205393 64.226275,34.298373 10.556942,57.90736 15.342826,103.85799 c 19.056045,-2.12434 53.094525,12.35971 59.654807,29.41466 z" />
   <path
      d="M 55.977649,64.512935 C 48.196312,74.965436 63.701633,84.356026 64.601148,92.029348 58.015878,74.310534 37.281272,68.762965 31.749773,74.732989 26.333211,80.578964 25.18949,103.27861 36.548147,106.36855"
      style="fill:none" />
   <path
      d="M 60.177646,109.89299 C 54.4046,101.09395 36.748079,108.33596 38.58496,84.376943 59.075214,86.704976 54.601653,97.428544 60.177646,109.89299 Z" />
   <path
      d="m 74.997633,133.27265 c 10.583918,-22.73994 19.430923,-83.72982 0,-83.72982 -19.430924,0 -10.571423,60.98988 0,83.72982 z" />
   <path
      d="m 103.81288,73.880198 c 10.92131,-18.913744 -18.8417,-40.89746 -28.815247,-40.89746 -9.969563,0 -39.724053,21.97923 -28.802752,40.892974"
      style="fill:none" />
   <path
      d="m 94.064653,64.505585 c 7.781337,10.452503 -7.746033,19.85044 -8.645548,27.523763 6.58527,-17.718814 27.319875,-23.266381 32.851375,-17.296359 5.41656,5.845971 6.57278,28.557701 -4.81086,31.647631"
      style="fill:none" />
   <path
      d="m 59.913314,63.152623 a 2.5,2.4999995 0 0 1 -3.065921,1.760695 2.5,2.4999995 0 0 1 -1.760715,-3.065909 2.5,2.4999995 0 0 1 3.065897,-1.760735 2.5,2.4999995 0 0 1 1.760756,3.065885" />
   <path
      d="m 94.913313,63.152623 a 2.4999995,2.4999995 0 0 1 -3.06592,1.760695 2.4999995,2.4999995 0 0 1 -1.760715,-3.065909 2.4999995,2.4999995 0 0 1 3.065897,-1.760735 2.4999995,2.4999995 0 0 1 1.760755,3.065885" />
   <path
      d="M 90.407988,109.89299 C 96.181034,101.09395 113.83755,108.33596 112.00067,84.376943 91.51042,86.704976 95.983981,97.428544 90.407988,109.89299 Z" />
</svg>