<svg viewBox="0 0 150 150">
   <path
      d="m 74.991732,135 c 38.082068,-39.333146 41.894578,-79.265331 0,-120.000002 -41.851501,40.734671 -38.082065,80.666856 0,120.000002 z" />
   <path
      d="M 95.680547,40.962135 A 29.0785,30.517096 0 0 0 74.991732,31.411414 29.0785,30.517096 0 0 0 54.302918,40.962135"
      style="fill:none" />
   <path
      d="M 104.86271,78.154778 C 97.91619,70.34861 86.876495,64.182911 74.878921,64.182911 c -11.997574,0 -22.765806,6.447727 -29.723106,14.253894"
      style="fill:none" />
   <path
      d="M 95.313273,108.44442 C 89.926303,102.46328 82.838407,98.885754 74.997118,98.760237 67.15583,98.885755 60.232869,102.76755 54.8459,108.74869"
      style="fill:none" />
   <path
      d="M 102.48916,91.506178 C 95.542636,83.70001 86.876495,79.199905 74.878921,79.199905 c -11.997574,0 -20.495801,4.220758 -27.453101,12.026925"
      style="fill:none" />
   <path
      d="M 103.76689,61.988845 C 96.820369,54.182677 87.950228,47.763444 75.952654,47.763444 c -11.997574,0 -22.765806,6.447727 -29.723106,14.253894"
      style="fill:none" />

</svg>