<svg viewBox="0 0 150 150">
   <path
      d="M 75.001359,101.33095 C 82.617473,90.983754 91.01894,82.067555 93.082781,71.757055 95.603221,59.18081 91.028072,48.108945 75.001359,46.402759 58.974643,48.099775 54.399497,59.18081 56.919938,71.757055 c 2.063838,10.292156 10.47444,19.226699 18.081421,29.573895 z" />
   <path
      d="M 73.923777,104.36723 C 61.257653,104.20213 49.203372,104.13789 40.710583,101.39516 29.131167,97.652558 22.44652,89.791259 27.560459,79.012933 c 6.328495,-10.016964 16.437655,-8.787779 25.852779,-1.054901 6.903815,5.678115 13.49714,15.81433 20.510539,26.409198 z" />
   <path
      d="M 67.933167,101.09245 C 52.408713,100.80809 24.044626,98.395576 30.7658,80.764984 41.340692,65.675325 59.266869,88.140111 67.933167,101.09245 Z" />

   <path
      d="m 76.08807,104.36723 c 12.666128,-0.1651 24.72041,-0.22934 33.2132,-2.97207 11.57941,-3.742602 18.26406,-11.603901 13.15012,-22.382227 -6.3285,-10.016964 -16.43765,-8.787779 -25.852777,-1.054901 -6.858155,5.678115 -13.497143,15.81433 -20.510543,26.409198 z" />
   <path
      d="M 82.078684,101.09245 C 97.603135,100.80809 125.96722,98.395576 119.24605,80.764984 108.68942,65.675325 90.744979,88.140111 82.078684,101.09245 Z" />

   <path
      d="M 75.001359,94.414473 C 81.183744,86.378887 88.224538,78.058935 88.936836,69.537178 89.685665,60.639326 85.603646,52.869757 75.001359,51.282821 64.39907,52.869757 60.317053,60.639326 61.065879,69.537178 c 0.721431,8.521757 7.762225,16.841709 13.93548,24.877295 z" />
   <path
      d="M 75.001359,88.641305 C 79.262061,82.771309 84.114351,76.693584 84.605244,70.46844 85.121313,63.968558 82.308116,58.292888 75.001359,57.133631 67.6946,58.292888 64.881404,63.968558 65.397471,70.46844 c 0.497187,6.225144 5.349477,12.302869 9.603888,18.172865 z" />
   <path
      d="M 61.463615,97.731862 C 50.388441,97.522931 30.153448,95.750354 34.948346,82.796404 42.492494,71.709387 55.281062,88.215225 61.463615,97.731862 Z"
      style="fill:none;" />
   <path
      d="M 89.551442,97.731862 C 100.62662,97.522931 120.86173,95.750354 116.0668,82.796404 108.52261,71.709387 95.733995,88.215225 89.551442,97.731862 Z"
      style="fill:none;" />
   <ellipse cx="45.716778" cy="67.904381" rx="2.4930446" ry="2.504241" />
   <ellipse cx="104.96024" cy="88.524757" rx="2.4930446" ry="2.504241" />
   <ellipse cx="99.429543" cy="67.904381" rx="2.4930446" ry="2.504241" />
   <ellipse cx="74.984413" cy="69.899902" rx="2.4930446" ry="2.504241" />
   <ellipse cx="45.09462" cy="88.358467" rx="2.4930446" ry="2.504241" />
</svg>