<svg viewBox="0 0 150 150">
   <path class="cls-1"
      d="M 101.52684,59.66934 82.659428,61.718417 75.000249,44.346944 67.354117,61.718417 48.486701,59.66934 59.694939,74.991737 48.486701,90.301082 67.354117,88.21285 75.013297,105.58432 82.659428,88.21285 101.52684,90.301082 90.318608,74.978685 Z M 89.431343,83.305507 79.17561,82.196134 l -4.162313,9.436195 -4.162313,-9.436195 -10.255733,1.109373 6.093419,-8.326822 -6.093419,-8.326822 10.255733,1.109374 4.162313,-9.436195 4.162313,9.436195 10.255733,-1.109374 -6.093419,8.326822 z" />
   <path
      d="m 47.116661,74.991737 c -3.810017,3.380324 -12.199885,4.685468 -12.199885,0 0,-4.685469 8.389868,-3.393376 12.199885,0 z" />
   <path
      d="m 61.482515,98.171105 c 1.030792,4.985655 -2.048536,12.920925 -6.106466,10.571665 -4.05793,-2.34926 1.265656,-8.966337 6.106466,-10.571665 z" />
   <path
      d="m 61.482515,51.799319 c 1.030792,-4.985652 -2.048536,-12.92093 -6.106466,-10.57167 -4.05793,2.34926 1.265656,8.966343 6.106466,10.57167 z" />

   <polygon
      points="67.67,76.39 70.86,83.63 74.06,76.39 81.92,77.25 77.25,70.86 81.92,64.48 74.06,65.34 70.86,58.1 67.67,65.34 59.81,64.48 64.48,70.86 59.81,77.25 "
      transform="matrix(0.62736788,0,0,0.59470157,30.554034,32.865729)" />
   <path
      d="m 102.89689,74.991737 c 3.81001,3.380324 12.19988,4.685468 12.19988,0 0,-4.685469 -8.38987,-3.393376 -12.19988,0 z" />
   <path
      d="m 88.531031,98.171105 c -1.030793,4.985655 2.048537,12.920925 6.106466,10.571665 4.057928,-2.34926 -1.265657,-8.966337 -6.106466,-10.571665 z" />
   <path
      d="m 88.531031,51.799319 c -1.030793,-4.985652 2.048537,-12.92093 6.106466,-10.57167 4.057928,2.34926 -1.265657,8.966343 -6.106466,10.57167 z" />
   <path
      d="m 38.068879,54.940447 c -7.666571,1.744297 -19.788721,-2.556965 -16.155414,-8.771906 3.633307,-6.214942 13.741451,1.531371 16.155414,8.771906 z" />
   <path
      d="M 39.118284,96.015501 C 36.617206,103.36977 26.386136,111.68126 22.834225,105.64742 19.282321,99.613587 31.463116,94.664237 39.118284,96.015501 Z" />
   <path
      d="m 75.076891,34.506621 c 5.231085,-5.871957 7.3067,-18.611626 0.111366,-18.413213 -7.195333,0.198413 -5.276858,12.803244 -0.111366,18.413213 z" />
   <path
      d="m 111.93455,95.047292 c 2.42407,7.223218 12.52211,14.986848 16.15541,8.771898 3.63331,-6.214942 -8.47872,-10.533516 -16.15541,-8.771898 z" />
   <path
      d="m 74.936652,115.4638 c -5.231082,5.87195 -7.306692,18.61162 -0.111364,18.41321 7.195332,-0.19841 5.276856,-12.80324 0.111364,-18.41321 z" />
   <path
      d="m 110.89526,53.954922 c 2.50108,-7.354269 12.73215,-15.665767 16.28406,-9.631927 3.55191,6.033841 -8.6289,10.98319 -16.28406,9.631927 z" />
</svg>