<svg viewBox="0 0 150 150">
   <polygon points="70.86,15.06 29.67,70.86 70.86,126.67 112.06,70.86 "
      transform="matrix(0.84961768,0,0,1.0751725,14.791842,-1.1920969)" />
   <polygon points="70.86,15.06 29.67,70.86 70.86,126.67 112.06,70.86 "
      transform="matrix(0.84961768,0,0,1.0751725,14.791842,-1.1920969)" />
   <polygon points="70.86,25.11 37.09,70.86 70.86,116.62 104.64,70.86 "
      transform="matrix(0.84961768,0,0,1.0751725,14.791842,-1.1920969)" />
   <path
      d="M 74.999997,34.999998 79.999998,44.999999 75,54.999998 69.999999,44.999999 74.999997,34.999998" />
   <path d="M 74.999997,115 79.999998,105 75,94.999997 69.999999,105 Z" />
   <path d="M 49.999997,75 59.999998,59.999998 69.999999,75 59.999998,89.999999 Z" />
   <path
      d="M 99.999997,74.999997 89.999999,59.999998 79.999998,75 89.999999,89.999999 99.999997,74.999997" />
   <path d="M 64.999999,54.999998 75,69.999999 l -3e-6,9.999999 10.000001,14.999999" />
   <path d="M 84.999998,54.999998 75,69.999999 l -3e-6,9.999999 -9.999998,14.999999" />
</svg>