<svg viewBox="0 0 150 150">
   <path
      d="M 74.991353,137.48999 C 83.132481,109.8748 99.999996,107.047 99.999996,81.828791 100.00857,49.441681 80.354714,53.3299 74.991353,15 69.610519,53.3299 49.98271,49.441681 49.98271,81.828791 c 0,25.218209 16.876248,28.090179 25.008643,55.661199 z" />
   <path
      d="m 75.000089,137.48999 c 3.843449,-36.08754 16.413283,-32.03362 16.413283,-55.153076 0,-24.301383 -13.102677,-25.218207 -16.413283,-48.492298 -3.275671,23.274091 -16.413287,24.190915 -16.413287,48.492298 0,23.075256 12.569834,19.076586 16.413287,55.153076 z" />
   <path
      d="m 75.000087,121.36577 c 1.130232,-24.861042 4.826605,-22.068258 4.826605,-37.99547 0,-16.741452 -3.853065,-17.373061 -4.826605,-33.406803 -0.963266,16.033742 -4.826605,16.665351 -4.826605,33.406803 0,15.896763 3.696373,13.142041 4.826605,37.99547 z" />
</svg>