<svg viewBox="0 0 150 150">
   <path
      d="M 75.000012,130 C 84.048009,113.92116 135,122.70105 135,96.030806 135,49.975985 84.271208,24.999999 75,24.999999 c -9.294104,0 -59.99998,24.975986 -59.99998,71.030807 C 14.96419,122.70105 65.95201,113.92116 75.000012,130 Z" />

   <path
      d="m 69.999999,115 c -3.996002,-1.87764 -31.899984,-14.49992 -33.00398,-7.09521 -1.104002,7.40475 28.935978,7.51835 33.00398,7.09521 z" />
   <path
      d="M 69.999999,110 C 64.552001,104.02336 32.808019,68.434915 25.96802,82.173339 19.128021,95.911763 62.872,108.47939 69.999999,110 Z" />
   <path
      d="M 69.999999,105 C 67.78,95.744097 56.556014,44.766216 42.768019,53.519663 28.980018,62.273109 64.000003,99.01011 69.999999,105 Z" />
   <path
      d="m 75,99.999999 c 4.427997,-7.523693 20.400006,-64.291381 1.2e-5,-64.291381 -20.399998,0 -4.416013,56.767688 -1.2e-5,64.291381 z" />
   <path
      d="M 79.999999,105 C 82.220002,95.744097 93.492009,44.766216 107.28,53.453545 121.068,62.140874 86,99.01011 79.999999,105 Z" />
   <path
      d="M 79.999999,110 C 85.448001,104.02336 117.168,68.434915 124.008,82.173339 130.848,95.911763 87.127997,108.47939 79.999999,110 Z" />
   <path
      d="m 79.999999,115 c 3.995997,-1.87764 31.912011,-14.49992 33.016011,-7.09521 C 114.12,115.30954 84.067996,115.42314 79.999999,115 Z" />
</svg>