<svg
   viewBox="0 0 150 150">
    <path
       d="M 114.70369,14.966556 82.495659,135.17794"/>
    <path
       d="M 67.289637,134.81874 35.081606,14.846824"/>
    <path
       d="m 89.647454,108.43573 -14.69021,9.31491 -14.715007,-9.31491 -1.584843,-5.89388 16.312249,10.1465 16.219952,-10.18649 z"/>
    <path
       d="M 96.897944,81.318306 75.166776,95.300781 52.880151,81.240905 50.200182,71.049059 75.166776,86.834418 99.667718,71.086254 Z"/>
    <path
       d="M 104.21366,54.14454 75.047044,72.431883 45.584101,53.848217 42.74787,43.349928 75.047044,63.96552 107.09222,43.307595 Z"/>
    <path
       d="M 111.43827,27.165113 75.047044,50.041915 38.331199,26.927864 35.519098,16.364425 75.047044,41.575552 114.1781,16.895869 Z"/>
    <path
       d="M 109.62163,33.903933 74.99631,56.320532 40.155098,33.772513 39.455957,31.131443 74.288703,54.273446 110.36824,31.197237 Z"/>
    <path
       d="M 102.4132,60.827635 75.080974,78.502403 47.363843,60.652067 46.664702,58.090213 75.071842,76.021416 103.0963,58.230088 Z"/>
    <path
       d="M 95.082907,88.233016 74.99631,101.27692 54.796022,88.238863 54.015849,85.416378 74.987178,98.795932 95.833141,85.373023 Z"/>
</svg>
