<svg viewBox="0 0 150 150">
    <path d="M 114.70369,14.966556 82.495659,135.17794" />
    <path d="M 67.289637,134.81874 35.081606,14.846824" />
    <path
        d="M 110.5707,30.055587 74.927311,7.4503991 39.199259,30.055587 41.146523,37.505986 74.927311,15.916762 108.62343,37.505986 Z" />
    <path
        d="M 105.51868,49.390402 75.166776,29.9601 44.349214,49.34807 46.33881,56.756137 75.166776,38.426463 103.52909,56.629142 Z" />
    <path
        d="M 100.23447,68.788091 75.047044,52.828998 49.605623,68.872755 51.552887,76.280822 75.047044,61.295361 98.287202,76.153827 Z" />
    <path
        d="M 95.154654,87.91851 75.047044,75.218966 54.764478,87.946227 56.681809,95.306823 75.047044,83.685329 93.165052,95.284242 Z" />
    <path
        d="m 90.036582,107.16328 -14.989538,-9.434613 -15.13407,9.404683 1.139069,4.51695 13.995001,-8.71798 13.760663,8.77785 z" />
    <path
        d="M 111.97874,25.242919 75.018636,1.3296647 37.902508,25.104941 38.460558,27.177281 74.969556,3.3767507 111.4083,27.111487 Z" />
    <path
        d="M 106.83025,44.211675 75.018636,23.680862 43.021071,44.343095 43.549187,46.35557 74.969556,25.727948 106.31967,46.199976 Z" />
    <path
        d="M 101.71169,63.404489 75.018636,46.286051 48.139633,63.505976 48.637817,65.428651 74.969556,48.333137 101.2011,65.332924 Z" />
    <path
        d="M 96.503323,82.692238 75.018636,68.806576 53.318062,82.703925 l 0.558049,1.952609 21.093445,-13.802872 21.112986,13.85681 z" />
</svg>