<svg viewBox="0 0 150 150">
   <path
      d="M 130,135 C 141.011,65.147982 105.04886,30.677702 75.097427,10.669705 45.145993,30.677702 8.9889969,65.136894 19.999999,135 Z" />
   <path style="fill:none;"
      d="M 41.326218,106.82825 C 29.533494,103.74589 33.933692,88.978671 30.170277,75.695696 41.080783,70.3182 43.894702,60.725914 56.134105,66.635616" />
   <path
      d="m 64.152271,90.130285 c -4.902465,-9.856898 -8.364589,-4.376331 -19.152272,-5.130286 0,0 0.670322,14.488239 14.975689,12.503556" />
   <path
      d="m 53.632646,118.01566 c -10.206952,-4.87856 -12.59643,-1.39331 -18.470463,2.69803 0,0 11.513178,13.0464 18.85016,7.12559" />
   <path style="fill:none;"
      d="M 94.203623,135.00189 C 105.9517,107.53786 75.219112,75.638763 75.219112,75.638763 c 0,0 -30.777192,31.899097 -18.98447,59.363127" />
   <path
      d="m 82.29922,135.00189 c 8.185686,-16.16575 -4.074907,-31.02683 -7.201794,-39.298198 -3.126845,8.271368 -15.244562,23.077018 -7.07006,39.298198" />
   <path style="fill:none;"
      d="m 109.01155,106.82825 c 11.81506,-3.08236 7.23848,-17.849579 11.01302,-31.132554 C 109.11408,70.3182 106.45421,60.725914 94.214809,66.635616" />
   <path
      d="M 78.033285,78.887436 C 90.094024,71.358944 77.858828,54.202728 75,44.999999 72.129987,54.202728 60.25489,71.358944 72.315628,78.887436" />
   <path
      d="m 86.174315,90.130285 c 4.902464,-9.856898 8.086869,-3.676636 18.874545,-4.430591 0,0 -0.3926,13.788544 -14.697961,11.803861" />
   <path style="fill:none;"
      d="M 82.522581,84.664087 C 110.44095,74.984594 80.233257,36.211177 75.174457,23.892828 70.115657,36.211177 39.896783,74.984594 67.826332,84.664087" />
   <path style="fill:none;"
      d="m 94.996489,109.10121 c 13.132801,-10.477808 21.363151,4.59027 33.055371,14.03692 a 48.522143,48.175722 0 0 1 -12.52974,11.86376" />
   <path
      d="m 96.705125,118.01566 c 10.206955,-4.87856 12.453505,-1.39331 18.327535,2.69803 0,0 -11.37029,13.0464 -18.707232,7.12559" />
   <path style="fill:none;"
      d="M 55.34124,109.10121 C 42.208435,98.623402 34.000421,113.69148 22.274723,123.13813 a 48.522143,48.175722 0 0 0 12.496279,11.86376" />
</svg>