<svg viewBox="0 0 150 150">
   <path
      d="m 75.102978,14.900304 c -13.693153,0 -15.764364,20.534462 -13.119882,29.251058 l -0.01319,0.0042 C 58.348076,34.980926 52.686875,21.481324 42.037891,27.524294 33.158869,33.78422 38.900888,46.661383 44.919062,53.665809 l -0.01885,0.017 c -6.129013,-6.127374 -16.31713,-12.225118 -22.793667,-6.309648 -5.633809,6.247088 8.767814,21.92124 10.558452,23.824578 -2.192647,5.510413 -3.324168,11.401422 -3.332507,17.349958 -4.6e-5,25.536033 20.257518,46.237143 45.246578,46.237243 24.989258,1.8e-4 45.247132,-20.70101 45.247092,-46.237243 -9.7e-4,-5.915449 -0.0115,-10.178065 -2.17359,-15.665351 0.20732,0.09814 -0.68722,-1.403162 -0.48142,-1.311982 0,0 16.92682,-17.54617 10.92874,-24.197203 -6.55499,-5.987092 -16.89892,0.377672 -22.98982,6.578205 6.0909,-6.994847 12.30674,-20.872256 3.327,-27.203186 -10.696784,-6.069949 -17.425604,8.127507 -21.045334,17.303797 2.7032,-8.642787 1.47089,-29.151659 -12.28876,-29.151659 z m -0.523895,47.328055 c 14.224543,-2.4e-5 25.755837,11.783605 25.755907,26.3195 -6e-5,14.535901 -11.531364,26.319521 -25.755907,26.319501 -14.224538,2e-5 -25.755835,-11.78361 -25.755898,-26.319501 6.3e-5,-14.535895 11.53136,-26.319524 25.755898,-26.3195 z" />
</svg>