<svg viewBox="0 0 150 150">
    <path
        d="M 113.11988,134.82379 C 121.59713,87.277841 85.388657,37.332482 74.972231,15.041173 64.471032,37.365653 28.251962,87.277841 36.729217,134.82379 Z" />
    <path
        d="M 57.286559,55.068226 H 73.117831 V 76.839847 H 47.283398 c 0,0 6.686435,-16.928569 10.003161,-21.771621 z" />
    <path d="m 61.292061,62.874607 h 4.620104 v 6.158859 h -7.56595 a 48.987934,51.117422 0 0 1 2.945846,-6.158859 z" />
    <path
        d="M 73.079844,79.290334 V 102.0571 l -32.811374,0.0927 c 1.43441,-7.745556 3.472182,-15.356051 6.093027,-22.755711 z" />
    <path
        d="m 66.690113,86.820285 v 7.740038 l -18.029161,0.09267 c 0.50984,-2.634263 1.218486,-5.222341 2.119314,-7.740038 z" />
    <path
        d="m 73.175213,105.18629 -33.309412,0.18112 c -1.737837,7.39727 -1.547099,17.32663 0,27.09014 l 33.309412,-0.18113 z" />
    <path
        d="m 65.439718,112.14126 -18.654358,0.0927 c -0.560522,4.40354 -0.560522,8.8651 0,13.26864 l 18.675551,-0.0927 z" />
    <path
        d="m 90.824696,52.204412 c -2.469,-4.234907 -15.894852,-30.750065 -15.894852,-30.750065 0,0 -13.425851,26.537273 -15.894852,30.750065 z" />
    <path
        d="m 79.507562,45.525865 c -0.74176,-1.10572 -2.384228,-4.02482 -4.577718,-8.259726 -2.193489,4.223849 -3.846554,7.131892 -4.577717,8.259726 z" />
    <path
        d="M 92.562533,55.068226 H 76.731261 v 21.771621 h 25.834429 c 0,0 -6.686431,-16.928569 -10.003157,-21.771621 z" />
    <path d="m 88.58882,62.874607 h -4.620103 v 6.158859 h 7.53416 A 48.987934,51.117422 0 0 0 88.58882,62.874607 Z" />
    <path
        d="m 76.731232,79.350238 v 22.766772 l 32.817598,0.0328 c -1.43441,-7.745556 -3.47218,-15.356051 -6.09302,-22.755711 z" />
    <path
        d="m 83.163349,86.88019 v 7.740038 l 18.024791,0.03276 c -0.50984,-2.63426 -1.218486,-5.222338 -2.119314,-7.740035 z" />
    <path
        d="m 76.731232,105.24619 33.305038,0.12122 c 1.73784,7.39727 1.5471,17.32663 0,27.09014 l -33.305038,-0.12122 z" />
    <path
        d="m 84.413744,112.20117 18.649986,0.0328 c 0.56052,4.40354 0.56052,8.8651 0,13.26864 l -18.671179,-0.0327 z" />
</svg>