<svg viewBox="0 0 150 150">
    <path style="fill:none;" d="M 63.295037,34.532238 C 36.162762,20.662826 40.005421,62.300596 67.491762,88.081362" />
    <path style="fill:none;" d="M 46.014563,52.904966 C 19.787134,39.763544 12.302994,76.612357 54.398015,104.33862" />
    <path
        d="m 75.011643,15.862294 c -22.737074,0 -7.01855,44.338485 0.0239,53.332377 -5.275158,11.793752 -5.710201,22.206219 -20.637235,35.143949 0,0 10.727088,9.52067 20.601692,29.60304 9.8746,-20.11999 20.614708,-29.60304 20.614708,-29.60304 C 80.72089,91.40091 80.322406,80.988423 75.03554,69.194671 82.038379,60.200775 97.749009,15.862294 75.011643,15.862294 Z"
       />
    <path style="fill:none;" d="M 86.733861,34.543014 C 113.85303,20.673602 109.97039,62.117799 82.470942,87.898597" />
    <path style="fill:none;" d="m 103.96102,52.848269 c 26.22741,-13.141423 33.74841,23.764088 -8.346603,51.490351" />
</svg>