<svg viewBox="0 0 150 150">
    <path d="M 114.70369,14.966556 82.495659,135.17794" />
    <path d="M 67.289637,134.81874 35.081606,14.846824" />
    <path
        d="m 110.5707,30.055587 c 0,0 -21.574332,-22.5976434 -35.643389,-22.6051879 C 60.834414,7.4428418 39.199259,30.055587 39.199259,30.055587 l 1.947264,7.450399 c 0,0 20.41734,-21.596837 33.780788,-21.589224 13.339676,0.0076 33.696119,21.589224 33.696119,21.589224 z" />
    <path
        d="m 105.51868,49.390402 c 0,0 -18.339158,-19.383002 -30.351904,-19.430302 -12.13624,-0.04779 -30.817562,19.38797 -30.817562,19.38797 l 1.989596,7.408067 c 0,0 17.440725,-18.353779 28.827966,-18.329674 11.233646,0.02378 28.362314,18.202679 28.362314,18.202679 z" />
    <path
        d="m 100.23447,68.788091 c 0,0 -15.248177,-15.948448 -25.187426,-15.959093 C 65.02115,52.81826 49.605623,68.872755 49.605623,68.872755 l 1.947264,7.408067 c 0,0 14.205339,-14.990432 23.494157,-14.985461 9.194677,0.0049 23.240158,14.858466 23.240158,14.858466 z" />
    <path
        d="m 95.154654,87.91851 c 0,0 -12.180209,-12.687958 -20.10761,-12.699544 -7.981676,-0.01166 -20.282566,12.727261 -20.282566,12.727261 l 1.917331,7.360596 c 0,0 11.120791,-11.64054 18.365235,-11.621494 7.170881,0.01885 18.118008,11.598913 18.118008,11.598913 z" />
    <path
        d="m 90.036582,107.16328 c 0,0 -9.08572,-9.417662 -14.989538,-9.434613 -5.939374,-0.01705 -15.13407,9.404683 -15.13407,9.404683 l 1.91733,7.42046 c 0,0 8.004046,-8.37294 13.21674,-8.35878 5.149853,0.014 13.012335,8.32885 13.012335,8.32885 z" />
</svg>