<svg viewBox="0 0 150 150">
      <path
       d="M 114.70369,14.966556 82.495659,135.17794"/>
    <path
       d="M 67.289637,134.81874 35.081606,14.846824"/>
    <path
       d="m 89.647454,108.43573 c 0,0 -8.892032,9.3127 -14.69021,9.31491 -5.80516,0.002 -14.715007,-9.31491 -14.715007,-9.31491 L 57.430136,98.051886 c 0,0 10.555642,11.276494 17.497175,11.292254 6.935193,0.0157 17.532238,-11.202455 17.532238,-11.202455 z"/>
    <path
       d="m 96.897944,81.318306 c 0,0 -13.117613,13.94399 -21.731168,13.982475 -8.78357,0.03924 -22.286625,-14.059876 -22.286625,-14.059876 L 50.200182,71.049059 c 0,0 15.120578,15.822107 24.966594,15.785359 9.708467,-0.03624 24.500942,-15.748164 24.500942,-15.748164 z"/>
    <path
       d="m 104.21366,54.14454 c 0,0 -17.691443,18.302767 -29.166616,18.287343 C 63.435673,72.416276 45.584101,53.848217 45.584101,53.848217 L 42.74787,43.349928 c 0,0 19.52667,20.644459 32.299174,20.615592 12.708858,-0.02872 32.045176,-20.657925 32.045176,-20.657925 z"/>
    <path
       d="m 111.43827,27.165113 c 0,0 -22.063052,22.881441 -36.391226,22.876802 C 60.585169,50.037233 38.331199,26.927864 38.331199,26.927864 L 35.519098,16.364425 c 0,0 23.900174,25.171496 39.527946,25.211127 15.421171,0.03911 39.131056,-24.679683 39.131056,-24.679683 z"/>
</svg>
