<svg viewBox="0 0 150 150">
    <path d="M 114.70369,14.966556 82.495659,135.17794" />
    <path d="M 67.289637,134.81874 35.081606,14.846824" />
    <path
        d="m 89.647454,108.43573 c 0,0 -8.892032,9.3127 -14.69021,9.31491 -5.80516,0.002 -14.715007,-9.31491 -14.715007,-9.31491 l -1.584843,-5.89388 c 0,0 9.908785,10.16033 16.312249,10.1465 6.38444,-0.0138 16.219952,-10.18649 16.219952,-10.18649 z" />
    <path
        d="m 96.897944,81.318306 c 0,0 -13.117613,13.94399 -21.731168,13.982475 -8.78357,0.03924 -22.286625,-14.059876 -22.286625,-14.059876 L 50.200182,71.049059 c 0,0 15.120578,15.822107 24.966594,15.785359 9.708467,-0.03624 24.500942,-15.748164 24.500942,-15.748164 z" />
    <path
        d="m 104.21366,54.14454 c 0,0 -17.691443,18.302767 -29.166616,18.287343 C 63.435673,72.416276 45.584101,53.848217 45.584101,53.848217 L 42.74787,43.349928 c 0,0 19.52667,20.644459 32.299174,20.615592 12.708858,-0.02872 32.045176,-20.657925 32.045176,-20.657925 z" />
    <path
        d="m 111.43827,27.165113 c 0,0 -22.063052,22.881441 -36.391226,22.876802 C 60.585169,50.037233 38.331199,26.927864 38.331199,26.927864 L 35.519098,16.364425 c 0,0 23.900174,25.171496 39.527946,25.211127 15.421171,0.03911 39.131056,-24.679683 39.131056,-24.679683 z" />
    <path
        d="m 109.62163,33.903933 c 0,0 -20.875909,22.415438 -34.62532,22.416599 C 61.162683,56.3217 40.155098,33.772513 40.155098,33.772513 l -0.699141,-2.64107 c 0,0 21.368075,23.139208 35.491274,23.142003 14.091602,0.0028 35.421009,-23.076209 35.421009,-23.076209 z" />
    <path
        d="m 102.4132,60.827635 c 0,0 -16.48251,17.664635 -27.332226,17.674768 C 64.091722,78.512667 47.363843,60.652067 47.363843,60.652067 l -0.699141,-2.561854 c 0,0 17.209463,17.945706 28.40714,17.931203 C 86.1368,76.007085 103.0963,58.230088 103.0963,58.230088 Z" />
    <path
        d="m 95.082907,88.233016 c 0,0 -12.103178,13.041694 -20.086597,13.043904 -8.034628,0.002 -20.2227,-13.116392 -20.2227,-13.116392 l -0.75024,-2.728303 c 0,0 12.676826,13.382636 20.963808,13.363707 8.264552,-0.01888 20.845963,-13.422909 20.845963,-13.422909 z" />
</svg>