<svg viewBox="0 0 150 150">
    <path
        d="m 120,135 h -15 c 0,0 -1.38251,-50.038257 0,-75.000002 0.83461,-15.069213 5,-44.999999 5,-44.999999 0,0 8.32764,39.793212 10,60.000001 1.64961,19.931854 0,60 0,60 z" />
    <path
        d="m 105,135 c 0,0 1.34708,-30.06061 0,-45.000001 -1.67343,-18.558607 -10.000003,-55.000001 -10.000003,-55.000001 0,0 -4.164563,23.244537 -4.999998,35.000001 -1.535928,21.612158 0,65.000001 0,65.000001 z"/>
    <path
        d="m 75,135 h 14.999999 c 0,0 0.639609,-33.34561 0,-50.000002 -0.833948,-21.714666 -5.000001,-64.999999 -5.000001,-64.999999 0,0 -8.32075,26.359288 -9.999998,39.999999 C 71.945419,84.812688 75,135 75,135 Z" />
    <path
        d="M 75,135 H 59.999998 c 0,0 -0.499169,-30.00831 0,-45.000001 C 60.833793,64.958383 64.999999,15 64.999999,15 c 0,0 8.317065,22.983761 9.999998,34.999997 3.929867,28.059472 0,85.000003 0,85.000003 z"/>
    <path
        d="M 59.999998,135 H 44.999999 c 0,0 -0.996274,-40.024831 0,-60.000003 0.834369,-16.728998 4.999998,-49.999998 4.999998,-49.999998 0,0 8.320752,26.359288 10.000001,40 2.850943,23.15851 0,70.000001 0,70.000001 z" />
    <path
        d="M 44.999999,135 H 29.999998 c 0,0 -1.945786,-43.420882 2e-6,-65.000001 1.673429,-18.558606 9.999999,-55 9.999999,-55 0,0 4.165053,26.588869 5,39.999999 1.656999,26.615137 0,80.000002 0,80.000002 z" />
    <path
        d="M 29.999998,135 H 14.999999 c 0,0 -1.139186,-36.702095 0,-55.000002 0.834947,-13.41113 5,-39.999999 5,-39.999999 0,0 8.325184,33.085986 10.000001,50 C 31.478064,104.927 29.999998,135 29.999998,135 Z" />
    <path
        d="m 135,135 h -15 c 0,0 -0.62338,-30.01296 0,-45.000001 C 120.83405,69.948014 125,30 125,30 c 0,0 8.32075,26.359288 10,39.999999 C 137.6473,91.50433 135,135 135,135 Z" />
</svg>