<svg viewBox="0 0 150 150">
    <path
        d="m 74.999999,15 c 0,0 -15,39.384471 -15,59.999999 0,20.615528 15,60.000001 15,60.000001 0,0 15,-39.384473 15,-60.000001 C 89.999999,54.384471 74.999997,15 74.999997,15 c 0,0 20,38.918149 20,60 0,21.081851 -20,60 -20,60 0,0 -19.999999,-38.918151 -19.999999,-60.000003 C 54.999998,53.918147 74.999997,15 74.999997,15 L 75,135"/>
    <path d="M 87.255939,55.099727 75,45.06551 62.731948,55.153714"/>
    <path d="M 89.754481,70.013512 74.993832,60.031915 60.25852,69.871995"/>
    <path d="M 89.116613,85.164905 74.999997,75 60.874009,85.102944"/>
    <path d="M 86.040462,99.999836 74.995483,89.836608 63.968822,100.03677" />
</svg>