<svg viewBox="0 0 150 150">
    <path
        d="m 74.951768,15.042625 c 0,0 -28.792967,39.356517 -28.792967,59.957412 0,20.600896 28.792967,59.957413 28.792967,59.957413 0,0 28.792962,-39.356517 28.792962,-59.957413 0,-20.600895 -28.792966,-59.957412 -28.792966,-59.957412 0,0 38.390626,38.890526 38.390626,59.957413 0,21.066888 -38.390626,59.957412 -38.390626,59.957412 0,0 -38.39062,-38.890526 -38.39062,-59.957415 0,-21.066886 38.39062,-59.95741 38.39062,-59.95741 l 5e-6,119.914825" />
    <path d="M 98.477425,55.11389 74.951769,45.086795 51.402862,55.167839" />
    <path d="M 103.27345,70.01709 74.939929,60.042577 46.65504,69.875673" />
    <path d="M 102.04905,85.157728 74.951764,75.000038 47.83649,85.095811" />
    <path d="M 96.144279,99.98213 74.943099,89.826116 53.77708,100.01904" />
</svg>