<svg viewBox="0 0 150 150">
    <path
        d="m 87.645833,14.999999 c 0,0 20.000017,36.845927 20.000017,60.000001 0,23.154073 -20.000016,60 -20.000016,60" />
    <path d="m 82.645833,15 c 0,0 20.000017,36.845926 20.000017,60 0,23.154073 -20.000016,60 -20.000016,60" />
    <path
        d="m 77.645832,14.999999 c 0,0 20.000002,36.845927 20.000002,60.000001 0,23.154073 -19.999999,60 -19.999999,60" />
    <path
        d="m 72.645833,14.999998 c 0,0 20.000002,36.845927 20.000002,60.000001 C 92.645835,98.154072 72.645834,135 72.645834,135" />
    <path d="m 67.645833,14.999999 c 0,0 20.000001,36.845926 20.000001,60 0,23.154073 -20,60.000001 -20,60.000001" />
    <path
        d="m 62.645832,14.999998 c 0,0 20.000002,36.845927 20.000002,60.000001 C 82.645834,98.154072 62.645835,135 62.645835,135" />
    <path d="m 62.645834,14.999998 c 0,0 -20,36.84593 -20,60 0,23.15407 20,60.000002 20,60.000002" />
    <path d="m 67.645834,14.999999 c 0,0 -20,36.845929 -20,59.999999 0,23.15407 20,60.000002 20,60.000002" />
    <path d="m 72.645834,14.999998 c 0,0 -20,36.84593 -20,60 0,23.15407 20,60.000002 20,60.000002" />
    <path d="m 77.645834,14.999997 c 0,0 -20,36.845931 -20,60.000001 0,23.15407 20,60.000002 20,60.000002" />
    <path d="m 82.645834,14.999998 c 0,0 -20,36.84593 -20,60 0,23.15407 20,60.000002 20,60.000002" />
    <path d="m 87.645834,14.999997 c 0,0 -20,36.845931 -20,60.000001 0,23.15407 20,60.000002 20,60.000002" />
</svg>