<svg viewBox="0 0 150 150">
	<path
		d="m 75,15 c 0,0 2.877777,10.17569 4.999998,14.999998 C 86.909451,45.706809 99.079879,58.894202 105,74.999997 c 2.932,7.976565 5.52807,16.518056 5,25 -0.32749,5.260283 -1.80086,10.811533 -5,15.000003 -3.64758,4.77559 -10.000001,6.66667 -15.000001,10 0,0 -8.990749,10 -15.000002,10 -6.009252,0 -9.999999,-6.66667 -14.999999,-10 -5,-3.33333 -11.352421,-5.22441 -14.999999,-10 -3.199138,-4.18847 -4.672507,-9.73972 -5,-15.000003 -0.528066,-8.481943 2.067998,-17.023433 5,-24.999997 5.92012,-16.105795 18.090547,-29.293189 25,-45 C 72.122221,25.175691 75,15 75,15 Z" />
	<path
		d="m 75.000001,24.999999 c 0,0 1.900423,8.474726 3.301892,12.492605 4.562851,13.081268 12.59994,24.064262 16.509459,37.477819 1.93623,6.643206 3.650618,13.756906 3.301892,20.821012 -0.216267,4.380975 -1.189249,9.004285 -3.301892,12.492605 -2.408783,3.97731 -6.603783,5.55228 -9.905675,8.32841 0,0 -5.937297,8.3284 -9.905676,8.3284 -3.968386,0 -6.603784,-5.55227 -9.905676,-8.3284 -3.301893,-2.77613 -7.496896,-4.3511 -9.905678,-8.32841 -2.112642,-3.48832 -3.085623,-8.11163 -3.301892,-12.492605 -0.348723,-7.064106 1.365661,-14.177804 3.301892,-20.821009 3.909521,-13.413558 11.94661,-24.396553 16.509462,-37.47782 1.401468,-4.01788 3.301892,-12.492607 3.301892,-12.492607 z" />
	<path
		d="m 75,35.294807 c 0,0 1.224557,6.723616 2.127607,9.911292 2.94012,10.378321 8.1189,19.09193 10.638038,29.733881 1.247629,5.270538 2.352313,10.914354 2.127608,16.518823 -0.139354,3.475747 -0.766305,7.143752 -2.127608,9.911297 -1.552124,3.15548 -4.255215,4.40502 -6.382823,6.60753 0,0 -3.825757,6.60753 -6.382822,6.60753 -2.55707,0 -4.255215,-4.40502 -6.382823,-6.60753 -2.127608,-2.20251 -4.830699,-3.45205 -6.382823,-6.60753 C 60.873051,98.602555 60.246101,94.93455 60.106746,91.458803 59.882042,85.854334 60.986725,80.21052 62.234354,74.939982 64.753493,64.298031 69.932273,55.584422 72.872392,45.2061 73.775442,42.018424 75,35.294807 75,35.294807 Z" />
	<path
		d="m 75.000001,45 c 0,0 0.763822,5.072799 1.327105,7.477819 1.833914,7.830181 5.064203,14.404377 6.635528,22.43346 0.778214,3.976488 1.467266,8.234603 1.327105,12.463033 -0.08692,2.622364 -0.477986,5.38978 -1.327105,7.477822 -0.968145,2.380734 -2.654211,3.323477 -3.981316,4.985213 0,0 -2.386335,4.985213 -3.981318,4.985213 -1.594983,0 -2.654211,-3.32348 -3.981317,-4.985213 -1.327105,-1.661736 -3.013172,-2.604479 -3.981316,-4.985213 -0.849119,-2.088042 -1.240182,-4.855458 -1.327106,-7.477822 -0.14016,-4.228429 0.548891,-8.486544 1.327106,-12.463032 C 68.608692,66.882198 71.83898,60.308001 73.672895,52.47782 74.236177,50.072799 75.000001,45 75.000001,45 Z" />
</svg>