<svg viewBox="0 0 150 150">
	<path
		d="m 135.19417,-85.001022 a 15.058893,19.927567 0 0 1 -7.52945,17.257779 15.058893,19.927567 0 0 1 -15.05889,-10e-7 15.058893,19.927567 0 0 1 -7.52945,-17.257778"
		transform="scale(1,-1)" />
	<path
		d="m 105.19418,-85.001022 a 15.058893,19.927567 0 0 1 -7.529449,17.257779 15.058893,19.927567 0 0 1 -15.058894,-10e-7 15.058893,19.927567 0 0 1 -7.529446,-17.257778"
		transform="scale(1,-1)" />
	<path
		d="m 75.19417,-85.001022 a 15.058893,19.927567 0 0 1 -7.529447,17.257779 15.058893,19.927567 0 0 1 -15.058893,-10e-7 15.058893,19.927567 0 0 1 -7.529446,-17.257778"
		transform="scale(1,-1)" />
	<path
		d="m 45.194174,-85.001022 a 15.058893,19.927567 0 0 1 -7.529447,17.257779 15.058893,19.927567 0 0 1 -15.058893,-10e-7 15.058893,19.927567 0 0 1 -7.529447,-17.257778"
		transform="scale(1,-1)" />
</svg>