<svg viewBox="0 0 150 150">
   <path
      d="M 75 15 A 60 60 0 0 0 15 75 A 60 60 0 0 0 75 135 A 60 60 0 0 0 135 75 A 60 60 0 0 0 75 15 z M 75 22.199219 A 52.799999 52.799999 0 0 1 127.80078 75 A 52.799999 52.799999 0 0 1 75 127.80078 A 52.799999 52.799999 0 0 1 22.199219 75 A 52.799999 52.799999 0 0 1 75 22.199219 z " />
   <path
      d="M 75 36.599609 A 38.400002 38.400002 0 0 0 36.599609 75 A 38.400002 38.400002 0 0 0 75 113.40039 A 38.400002 38.400002 0 0 0 113.40039 75 A 38.400002 38.400002 0 0 0 75 36.599609 z M 75 51 A 24 24 0 0 1 99 75 A 24 24 0 0 1 75 99 A 24 24 0 0 1 51 75 A 24 24 0 0 1 75 51 z " />
</svg>