<svg viewBox="0 0 150 150">
    <path
        d="m 45.344578,77.579246 c -1.232474,-0.974727 0.72102,-2.123286 1.638763,-2.025075 2.487022,0.266145 3.222633,3.296675 2.458147,5.265195 -1.367488,3.521219 -5.846587,4.408132 -9.013194,2.83511 -4.647127,-2.308473 -5.727382,-8.295064 -3.277534,-12.555465 3.265263,-5.678446 10.946342,-6.92909 16.387627,-3.645145 6.847304,4.132511 8.297626,13.353023 4.096918,19.845737 -5.087623,7.863545 -16.070996,9.480679 -23.76206,4.455175 C 24.809592,85.832402 22.988139,73.330798 28.956943,64.618773 35.848162,54.560394 50.160539,52.576059 60.093437,59.35356 71.379823,67.05459 73.572967,82.853656 65.829123,93.779839 57.141704,106.03737 39.489303,108.38934 27.318198,99.855087 13.805964,90.380439 11.240772,71.276281 20.763125,58.138535 c 10.479966,-14.458939 31.478011,-17.17885 45.88536,-6.885279 3.237951,2.313408 6.055401,5.190704 8.298577,8.458299" />
    <path
        d="m 104.68773,77.580745 c 1.2338,-0.974897 -0.72179,-2.12366 -1.64053,-2.025434 -2.48968,0.266192 -3.226082,3.297257 -2.46078,5.266126 1.36897,3.52184 5.85286,4.40891 9.02286,2.835611 4.6521,-2.308882 5.73351,-8.296531 3.28105,-12.557684 -3.26876,-5.679447 -10.95807,-6.930313 -16.405193,-3.645788 -6.854643,4.13324 -8.30652,13.355382 -4.101309,19.849241 5.093071,7.864929 16.088212,9.48235 23.787512,4.455964 9.07337,-5.923423 10.89678,-18.427234 4.92159,-27.140798 -6.8986,-10.060155 -21.226333,-12.044841 -31.169871,-5.266142 -11.298479,7.702388 -13.493972,23.504247 -5.741822,34.432358 8.696725,12.259691 26.368043,14.612091 38.552183,6.076319 13.52671,-9.47632 16.09466,-28.583853 6.56209,-41.723917 C 118.80433,43.675107 97.783775,40.954715 83.360991,51.250104 80.119564,53.563923 77.2991,56.441728 75.053523,59.709897" />
</svg>