<svg viewBox="0 0 150 150">
    <path
        d="m 45.344578,92.925088 c -1.232474,-0.974727 0.72102,-2.123286 1.638763,-2.025075 2.487022,0.266145 3.222633,3.296675 2.458147,5.265195 -1.367488,3.521219 -5.846587,4.408132 -9.013194,2.83511 -4.647127,-2.308473 -5.727382,-8.295064 -3.277534,-12.555465 3.265263,-5.678446 10.946342,-6.92909 16.387627,-3.645145 6.847304,4.132511 8.297626,13.353023 4.096918,19.845752 -5.087623,7.86359 -16.070996,9.48073 -23.76206,4.4552 -9.063653,-5.92241 -10.885106,-18.42402 -4.916302,-27.136045 6.891219,-10.058379 21.203596,-12.042714 31.136494,-5.265213 11.286386,7.70103 13.47953,23.500096 5.735686,34.426328 -8.687419,12.25756 -26.33982,14.60953 -38.510925,6.07527 -13.512234,-9.47469 -16.077426,-28.578877 -6.555073,-41.716623 10.479966,-14.458939 31.478011,-17.17885 45.88536,-6.885279 3.237951,2.313408 6.055401,5.190704 8.298577,8.458299" />
    <path
        d="m 104.68773,57.288395 c 1.2338,0.974897 -0.72179,2.12366 -1.64053,2.025434 -2.48968,-0.266192 -3.226082,-3.297257 -2.46078,-5.266126 1.36897,-3.52184 5.85286,-4.40891 9.02286,-2.835611 4.6521,2.308882 5.73351,8.296531 3.28105,12.557684 -3.26876,5.679447 -10.95807,6.930313 -16.405193,3.645788 -6.854643,-4.13324 -8.30652,-13.355382 -4.101309,-19.849241 5.093071,-7.864929 16.088212,-9.48235 23.787512,-4.455964 9.07337,5.923423 10.89678,18.427234 4.92159,27.140798 -6.8986,10.060136 -21.226333,12.044804 -31.169871,5.266142 C 78.62458,67.814911 76.429087,52.013052 84.181237,41.084941 92.877962,28.82525 110.54928,26.47285 122.73342,35.008622 c 13.52671,9.47632 16.09466,28.583853 6.56209,41.723909 C 118.80433,91.19395 97.783775,93.914325 83.360991,83.618992 80.119564,81.305187 77.2991,78.427402 75.053523,75.159243" />
</svg>