<svg viewBox="0 0 150 150">
   <path
      d="m 84.593704,30.271478 c 4.359207,2.502552 8.887467,4.834123 12.671875,8.72461 3.674821,3.777833 6.745571,8.68523 9.396481,13.83789 2.18429,4.245684 3.97107,8.939138 5.24414,13.837891 1.07794,4.147884 1.63729,8.555525 1.9668,12.9375 0.33001,4.388782 0.35312,8.850959 0,13.236328 -0.40305,5.005256 -2.33482,10.535183 -4.28516,14.976563 -2.0628,4.69746 -4.68897,8.119 -7.54687,11.39257 -2.892219,3.31289 -3.997607,4.13276 -7.142578,5.83594 -3.338423,1.80792 -6.170942,2.4063 -9.753907,3.15039 -3.84357,0.79821 -10.121497,1.60767 -10.134765,1.60938 V 130 c 0.01387,3.9e-4 11.953854,0.33747 17.917968,0.041 5.45372,-0.27109 11.215372,0.33663 16.296872,-1.66211 4.78704,-1.88293 8.78827,-5.55803 12.30469,-9.3125 3.72037,-3.97225 6.85312,-8.62731 8.98047,-13.63672 2.17621,-5.1245 3.04472,-10.763336 3.6582,-16.296878 0.5375,-4.84823 0.50233,-9.780811 0,-14.632812 -0.50155,-4.844477 -1.35144,-9.715104 -2.99219,-14.300781 -1.93777,-5.415799 -4.65765,-10.606981 -7.98242,-15.300781 -4.03502,-5.696506 -8.70724,-11.12226 -14.30078,-15.298829 -5.7603,-4.301093 -12.655711,-6.877824 -19.290968,-9.644511 -4.734612,-1.97418 -14.570785,-4.933339 -15.125517,-4.954131 -0.548693,-0.02608 -9.592981,2.67517 -14.419397,4.670875 -6.588758,2.724427 -13.274895,5.606242 -18.947266,9.925781 -5.553815,4.229259 -10.26577,9.602323 -14.300781,15.298828 -3.324764,4.693801 -6.044655,9.88303 -7.982422,15.298828 -1.64075,4.585678 -2.490642,9.456305 -2.992188,14.300782 -0.502324,4.852001 -0.537501,9.786535 0,14.634765 0.613479,5.533543 1.481983,11.172374 3.658204,16.296874 2.127348,5.00943 5.258139,9.66252 8.978515,13.63477 3.516418,3.75448 7.519591,7.42957 12.306641,9.3125 5.081492,1.99875 10.843184,1.39241 16.296875,1.66406 5.96775,0.29726 17.913861,-0.0387 17.927734,-0.0391 v -0.18945 c -0.0067,-4e-4 -6.076914,-0.36247 -10.115234,-1.04688 -3.54087,-0.6001 -5.686975,-1.0746 -9.607422,-3.63086 -2.995942,-1.95345 -4.538807,-2.66563 -7.769531,-5.97851 -3.033948,-3.1111 -5.815229,-7.27391 -7.800782,-11.6875 -1.990109,-4.42372 -3.177037,-9.61975 -3.580078,-14.625006 -0.353125,-4.385371 -0.330015,-8.847547 0,-13.236328 0.329504,-4.381975 0.888863,-8.787664 1.966797,-12.935547 1.273068,-4.898753 3.05985,-9.592207 5.244141,-13.837891 2.650907,-5.152661 5.745806,-10.012399 9.394531,-13.83789 3.726613,-3.907154 8.12056,-6.514189 12.449219,-8.978516 3.171995,-1.805832 9.474382,-4.153495 9.474382,-4.153495 0.376455,-0.04805 6.827166,2.624868 9.935721,4.409441 z" />
   <path
      d="m 80.692941,53.829788 c 2.547401,1.918471 5.107272,4.091563 7.318778,7.074035 2.147469,2.896111 3.941118,6.658923 5.490234,10.608984 1.276439,3.254768 2.320506,6.853569 3.064453,10.608983 0.629917,3.179795 0.957838,6.556478 1.150391,9.915727 0.192849,3.364468 0.206357,6.785616 0,10.147463 -0.235523,3.83706 -1.364179,8.07618 -2.503906,11.48096 -1.205442,3.60112 -2.740074,6.22391 -4.410157,8.73346 -1.690134,2.5397 -2.335992,3.17004 -4.173828,4.47572 -0.937369,0.66594 -4.862945,1.99381 -5.745271,2.34685 1.921141,-0.52169 6.684153,-1.99657 8.612459,-3.26791 2.291179,-1.51061 3.098034,-2.23853 5.205078,-5.17684 2.082047,-2.90344 3.993303,-5.93793 5.496098,-10.10426 1.42086,-3.93918 2.82942,-8.84451 3.12304,-13.283817 0.25726,-3.889514 0.24042,-7.847649 0,-11.74019 -0.24005,-3.886504 -0.64829,-7.794218 -1.43359,-11.473099 -0.92746,-4.344849 -2.229013,-8.508748 -3.820314,-12.274371 -1.931243,-4.570046 -4.166559,-8.921733 -6.84375,-12.272406 -2.757022,-3.450589 -6.058599,-5.518176 -9.234375,-7.737764 -2.266931,-1.584386 -7.22629,-4.753661 -7.22629,-4.753661 0,0 -4.603469,2.924204 -6.914335,4.52585 -3.153521,2.185684 -6.353441,4.49824 -9.068359,7.963611 -2.658174,3.39294 -4.912508,7.70236 -6.84375,12.272407 -1.591304,3.765622 -2.892856,7.92952 -3.820313,12.27437 -0.785298,3.67888 -1.193544,7.586595 -1.433593,11.473099 -0.240424,3.892541 -0.25726,7.850674 0,11.740191 0.293622,4.4393 1.157585,9.04607 2.607421,12.96959 1.44652,3.91454 3.473297,7.60811 5.683594,10.36742 2.353653,2.9383 3.477549,3.56995 5.660156,5.30253 2.490506,1.977 6.820658,2.92448 8.876102,3.39182 -0.973238,-0.39354 -4.728803,-1.36751 -6.032352,-2.48253 -1.750746,-1.49753 -2.653067,-2.0421 -4.541015,-4.58178 -1.772956,-2.38498 -3.39829,-5.57779 -4.558594,-8.96127 -1.162966,-3.39125 -1.856272,-7.37288 -2.091797,-11.20994 -0.206357,-3.361851 -0.192852,-6.782998 0,-10.147466 0.192552,-3.359251 0.518522,-6.735935 1.148438,-9.915728 0.743946,-3.755415 1.788012,-7.354216 3.064453,-10.608983 1.549117,-3.950061 3.359973,-7.67634 5.492187,-10.608985 2.177731,-2.995249 4.743888,-4.994299 7.273438,-6.883467 1.853627,-1.384361 5.737286,-3.905826 5.737286,-3.905826 0.260133,-0.0094 3.874234,2.348257 5.691983,3.717223 z" />
   <path
      d="m 78.103591,77.783375 c 1.388554,1.334496 2.783906,2.846106 3.989369,4.920724 1.170557,2.014544 2.148252,4.631969 2.992654,7.379645 0.695771,2.264028 1.264878,4.767367 1.670393,7.379646 0.34336,2.211875 0.522105,4.56071 0.627063,6.89741 0.10512,2.34033 0.112483,4.7201 0,7.05862 -0.12838,2.66907 -0.743596,5.61781 -1.364846,7.98619 -0.65707,2.50495 -1.493578,4.32937 -2.403919,6.07502 -0.921269,1.76663 -1.273318,2.2051 -2.275098,3.11333 -0.510947,0.46322 -0.985041,0.7749 -1.465985,1.02047 1.047188,-0.36288 1.977757,-0.77682 3.028851,-1.66117 1.248892,-1.05078 1.688698,-1.55712 2.83722,-3.60102 1.134896,-2.01964 2.176697,-4.13044 2.995852,-7.02856 0.774491,-2.74011 1.542277,-6.15227 1.702325,-9.24027 0.14023,-2.70556 0.131052,-5.45885 0,-8.166515 -0.130846,-2.703465 -0.353372,-5.421684 -0.781431,-7.980727 -0.505545,-3.022291 -1.215004,-5.918713 -2.082401,-8.538093 -1.052696,-3.17894 -2.271137,-6.205989 -3.730438,-8.536729 -1.502817,-2.40024 -3.302463,-3.838461 -5.033537,-5.382414 -1.235674,-1.102104 -3.938955,-3.306663 -3.938955,-3.306663 0,0 -2.509291,2.034086 -3.768913,3.148197 -1.718943,1.520368 -3.463177,3.128991 -4.943044,5.539515 -1.448935,2.360141 -2.677743,5.357787 -3.730438,8.536728 -0.867398,2.61938 -1.576857,5.515802 -2.082402,8.538094 -0.428055,2.559041 -0.650585,5.277262 -0.781432,7.980727 -0.131052,2.70766 -0.140229,5.46095 0,8.16651 0.160049,3.088 0.630984,6.29249 1.42127,9.0217 0.78848,2.72296 1.893249,5.29222 3.098053,7.21161 1.282945,2.04389 1.895566,2.48327 3.085276,3.68846 1.357542,1.3752 2.198034,1.76915 3.31843,2.09422 -0.5305,-0.27375 -1.057792,-0.68611 -1.768339,-1.46172 -0.954309,-1.04168 -1.446152,-1.42048 -2.475247,-3.1871 -0.966416,-1.659 -1.852364,-3.87993 -2.48483,-6.23349 -0.633918,-2.35896 -1.01183,-5.12859 -1.140211,-7.79767 -0.112483,-2.33852 -0.105121,-4.71828 0,-7.05861 0.104957,-2.33671 0.282639,-4.685542 0.625999,-6.897417 0.405514,-2.61228 0.974621,-5.115618 1.670392,-7.379645 0.844404,-2.747676 1.831477,-5.339688 2.993719,-7.379646 1.187053,-2.083505 2.585831,-3.474052 3.964656,-4.788163 1.010387,-0.962967 3.127319,-2.716906 3.127319,-2.716906 0.141795,-0.0066 2.111794,1.633455 3.102625,2.585712 z" />
</svg>