<svg viewBox="0 0 150 150">
	<path
		d="M 74.213558 15.005286 A 60 60 0 0 0 17.080094 59.33798 A 60 60 0 0 0 59.337463 132.91954 A 60 60 0 0 0 132.91954 90.6632 L 132.92005 90.66165 A 60 60 0 0 0 90.66165 17.080094 A 60 60 0 0 0 74.213558 15.005286 z M 67.086861 17.504358 A 7.5 10.618606 65.630798 0 1 74.817655 23.172229 A 7.5 10.618606 65.630798 0 1 65.135042 33.357137 A 7.5 10.618606 65.630798 0 1 54.527421 28.064437 A 7.5 10.618606 65.630798 0 1 64.210034 17.880046 A 7.5 10.618606 65.630798 0 1 67.086861 17.504358 z M 35.731669 47.521647 A 15 27.499996 0 0 1 39.05188 48.453373 A 15 27.499996 0 0 1 49.616093 82.17793 L 49.616093 82.178963 A 15 27.499996 0 0 1 31.220833 101.54626 A 15 27.499996 0 0 1 20.656104 67.8217 A 15 27.499996 0 0 1 35.731669 47.521647 z M 120.75077 81.849268 A 9.999999 20 29.554563 0 1 125.4926 84.425338 A 9.999999 20 29.554563 0 1 119.52139 109.23519 L 119.52087 109.23571 A 9.999999 20 29.554563 0 1 101.90489 115.43947 A 9.999999 20 29.554563 0 1 107.87662 90.62961 A 9.999999 20 29.554563 0 1 120.75077 81.849268 z " />
</svg>