<svg viewBox="0 0 150 150">
    <path
        d="M 76.483704 15.018205 A 60 60 0 0 0 72.893742 15.036808 A 60 60 0 0 0 17.080094 59.33798 A 60 60 0 0 0 59.337463 132.91954 A 60 60 0 0 0 132.91954 90.6632 L 132.92005 90.66165 A 60 60 0 0 0 90.66165 17.080094 A 60 60 0 0 0 76.483704 15.018205 z M 55.15684 29.435929 C 56.445856 29.411872 57.766245 29.592099 59.114221 30.000236 C 73.470492 34.34699 59.114221 60.000104 59.114221 75.000073 C 59.114221 90.000044 73.470492 115.65315 59.114221 119.99991 C 41.860111 125.22407 29.114502 93.027794 29.114502 75.000073 C 29.114502 58.380768 39.946454 29.719801 55.15684 29.435929 z M 93.957572 29.435929 C 109.16803 29.719801 119.99991 58.380751 119.99991 75.000073 C 119.99991 93.027812 107.25439 125.22407 90.000191 119.99991 C 75.643825 115.65315 90.000191 90.000059 90.000191 75.000073 C 90.000191 60.000089 75.643827 34.346994 90.000191 30.000236 C 91.348176 29.592099 92.66855 29.411872 93.957572 29.435929 z " />
</svg>