<svg viewBox="0 0 150 150">
   <path
      d="M 75 15 A 60 60 0 0 0 15 75 A 60 60 0 0 0 75 135 A 60 60 0 0 0 135 75 A 60 60 0 0 0 75 15 z M 75 21.429688 A 53.57 53.57 0 0 1 128.57031 75 A 53.57 53.57 0 0 1 75 128.57031 A 53.57 53.57 0 0 1 21.429688 75 A 53.57 53.57 0 0 1 75 21.429688 z " />
   <path
      d="M 75 34.279297 A 40.720001 40.720001 0 0 0 34.279297 75 A 40.720001 40.720001 0 0 0 75 115.7207 A 40.720001 40.720001 0 0 0 115.7207 75 A 40.720001 40.720001 0 0 0 75 34.279297 z M 75 47.150391 A 27.85 27.85 0 0 1 102.84961 75 A 27.85 27.85 0 0 1 75 102.84961 A 27.85 27.85 0 0 1 47.150391 75 A 27.85 27.85 0 0 1 75 47.150391 z " />
   <circle cx="75" cy="75" r="12.85" />
</svg>