<svg viewBox="0 0 150 150">
    <path
        d="M 75.885291 15.006319 A 60 60 0 0 0 72.893742 15.036808 A 60 60 0 0 0 17.080094 59.33798 A 60 60 0 0 0 59.337463 132.91954 A 60 60 0 0 0 132.91954 90.6632 L 132.92005 90.66165 A 60 60 0 0 0 90.66165 17.080094 A 60 60 0 0 0 75.885291 15.006319 z M 79.454582 18.38079 C 89.892879 18.23239 99.210481 24.159591 107.58671 30.000236 C 116.34059 36.104187 121.31417 44.922884 125.6652 54.667464 C 129.79851 63.924504 131.50729 74.974776 129.99982 84.99998 C 128.89151 92.370655 124.69085 100.53292 120.33271 106.57954 C 116.19818 112.31589 112.69687 116.79528 106.16406 119.50123 C 101.54469 121.41465 94.859898 121.17597 90.000191 119.99991 C 82.941484 118.29169 78.370902 115.19148 74.500879 108.99128 C 71.853407 104.74972 70.446346 100.17041 70.446346 95.170418 C 70.446346 90.170433 70.502907 83.757513 70.598275 78.767802 C 70.691985 73.864784 71.45165 65.021158 73.118534 60.409233 C 75.067503 55.016839 76.700035 50.871701 77.595264 46.208032 C 78.57657 41.095949 80.154943 34.465158 79.525378 29.297953 C 79.048394 25.383055 74.502684 18.619261 78.441207 18.41438 C 78.780265 18.396742 79.117862 18.385577 79.454582 18.38079 z M 64.561951 18.560624 C 64.801048 18.554437 65.037974 18.555152 65.272502 18.562691 C 67.004394 18.618368 68.606339 19.056353 69.999862 19.999813 C 79.660626 26.540468 74.502503 44.236993 69.999862 54.999744 C 67.200195 61.691835 59.999955 69.999862 59.999955 69.999862 C 59.999955 69.999862 48.168568 83.350439 40.000142 84.99998 C 33.264286 86.360224 24.228821 85.416182 19.999813 79.999768 C 15.897073 74.745075 17.950381 67.321068 19.764685 60.940466 C 21.40824 55.160356 24.309044 49.176734 27.413314 44.764709 C 31.482231 38.981655 35.686974 33.657471 41.825354 29.412158 C 47.635658 25.393744 57.149938 18.752423 64.561951 18.560624 z M 65.852311 72.836381 C 65.852311 72.836381 64.646526 84.70434 65.020837 90.630127 C 65.467797 97.706005 65.410483 105.29123 68.679012 111.58285 C 71.353295 116.73061 75.741459 121.40675 80.984721 123.88856 C 86.57328 126.53381 99.443542 125.71791 99.443542 125.71791 C 99.443542 125.71791 92.613509 128.89079 88.967179 129.70888 C 82.674289 131.12072 76.069251 132.0607 69.676884 131.20543 C 60.866181 130.02659 52.029833 127.05481 44.566789 122.22561 C 37.918231 117.92346 32.501042 111.68345 28.103711 105.09746 C 25.181563 100.72089 21.7842 90.630127 21.7842 90.630127 C 21.7842 90.630127 29.681874 93.213628 33.757629 93.124548 C 40.276474 92.982066 47.18328 91.753295 52.715129 88.301587 C 58.453605 84.720949 65.852311 72.836381 65.852311 72.836381 z " />
</svg>