<svg viewBox="0 0 150 150">
	<path
		d="m 75.885291,15.006319 c -0.997281,-0.0147 -1.994774,-0.0045 -2.991549,0.03049 C 46.585218,15.960887 23.951665,33.9259 17.080094,59.337981 8.4303274,91.325996 27.349531,124.26947 59.337463,132.91954 c 31.98787,8.65017 64.931557,-10.26857 73.582077,-42.256339 l 5.1e-4,-0.0016 C 141.56974,58.673324 122.65,25.72971 90.66165,17.080094 85.841672,15.776697 80.877845,15.080053 75.885291,15.006319 Z m 31.701419,14.993917 c 8.42129,5.106191 13.72746,14.922648 18.07849,24.667228 4.13331,9.25704 5.84209,20.307312 4.33462,30.332516 -1.10831,7.370675 -5.30897,15.53294 -9.66711,21.57956 -4.13453,5.73635 -7.63584,10.21574 -14.16865,12.92169 -4.61937,1.91342 -11.304162,1.67474 -16.163869,0.49868 -7.058707,-1.70822 -11.629289,-4.80843 -15.499312,-11.00863 -2.647472,-4.24156 -4.054533,-8.82087 -4.054533,-13.820862 0,-4.999985 0.05656,-11.412905 0.151929,-16.402616 0.09371,-4.903018 0.853375,-13.746644 2.520259,-18.358569 1.948969,-5.392394 3.581501,-9.537532 4.47673,-14.201201 C 87.128555,27.518507 91.852759,26.817164 107.58671,30.000236 Z M 64.561951,18.560624 c 0.239097,-0.0062 0.476023,-0.0055 0.710551,0.0021 1.731892,0.05568 3.333837,0.493662 4.72736,1.437122 9.660764,6.540655 4.502641,24.23718 0,34.999931 -2.799667,6.692091 -9.999907,15.000118 -9.999907,15.000118 0,0 -11.831387,13.350577 -19.999813,15.000118 -6.735856,1.360244 -15.771321,0.416202 -20.000329,-5.000212 -4.10274,-5.254693 -2.049432,-12.6787 -0.235128,-19.059302 1.643555,-5.78011 4.544359,-11.763732 7.648629,-16.175757 4.068917,-5.783054 8.27366,-11.107238 14.41204,-15.352551 5.810304,-4.018414 15.324584,-10.659735 22.736597,-10.851534 z m 4.283354,93.521106 c 1.810177,6.16834 5.22518,10.51331 -0.498768,17.12818 -2.491554,2.8122 -16.316704,-2.1551 -23.779748,-6.9843 C 28.055642,111.01227 24.777736,97.079035 34.256509,93.623428 55.038976,91.061177 64.158122,101.22415 68.845305,112.08173 Z" />
</svg>