<svg viewBox="0 0 150 150">
	<path
		d="m 95.363171,20.1073 c -5.337354,3.423525 -14.690529,9.925826 -21.82089,10.16577 -3.314114,0.116555 -6.55026,0.595128 -9.665244,1.40139 -15.379617,3.980762 -27.80567,15.949602 -32.079495,31.774879 -4.911712,18.187268 1.599466,36.856411 15.508098,47.624481 10.329875,6.00405 28.975123,16.88946 32.30087,21.32945 1.766616,-3.82764 23.27352,-21.91959 23.27352,-21.91959 l -0.002,5.1e-4 c 7.33187,-5.7703 12.93705,-13.869646 15.55874,-23.576334 l 5.2e-4,-10e-4 c 4.17347,-15.453092 -0.2344,-31.202823 -10.31116,-42.175068 -1.84381,-2.842531 -8.310534,-5.773271 -9.700096,-9.484356 0,0 -3.479384,-11.807966 -3.062865,-15.140116 z M 67.31062,32.912203 c 0.178829,-0.0046 0.355823,-0.0041 0.531234,0.0016 1.295332,0.0417 2.493961,0.369366 3.536218,1.075904 7.225562,4.898146 3.367655,18.150825 0,26.210803 -2.093952,5.011553 -7.479647,11.233423 -7.479647,11.233423 0,0 -8.84886,9.997601 -14.95826,11.232906 -5.037939,1.018655 -11.795782,0.311752 -14.958777,-3.744475 -3.068557,-3.935119 -1.53267,-9.494743 -0.1757,-14.27303 1.229261,-4.328592 3.398809,-8.809408 5.720582,-12.113473 3.043257,-4.330796 6.188116,-8.318271 10.779187,-11.497489 4.345691,-3.009298 11.461507,-7.982486 17.005163,-8.126119 z m 23.941174,7.48068 c 2.270206,-0.02476 4.928544,0.415299 8.238257,1.085722 6.298519,3.823909 10.267389,11.175285 13.521659,18.472774 3.0914,6.932386 4.36916,15.207763 3.24166,22.71541 -0.82893,5.519728 -3.97045,11.632596 -7.23005,16.16077 -3.09233,4.295821 -5.71121,7.650501 -10.597286,9.676931 -3.45496,1.4329 -8.454472,1.25384 -12.089185,0.3731 -5.27941,-1.27924 -8.698073,-3.60076 -11.592574,-8.24394 -1.980119,-3.176413 -3.032373,-6.605893 -3.032373,-10.350272 0,-3.744375 0.04237,-8.546808 0.113688,-12.283488 0.07009,-3.671758 0.637931,-10.294747 1.884639,-13.748515 1.45769,-4.03824 2.679067,-7.142495 3.348633,-10.635009 5.124847,-10.059739 8.391296,-13.160215 14.192932,-13.223483 z m -42.46149,48.43632 c 12.647364,-0.19139 18.547234,6.749802 21.724255,14.118517 1.353885,4.61933 3.908002,7.87338 -0.373104,12.82713 -1.863503,2.10597 -12.204171,-1.61371 -17.785994,-5.23018 C 40.0063,102.14726 37.554858,91.712619 44.644303,89.124792 c 1.457232,-0.179887 2.837652,-0.27579 4.146001,-0.295589 z" />
</svg>