<svg viewBox="0 0 150 150">
	<path
		d="m 95.363171,20.1073 c -5.337348,3.423521 -14.690536,9.925844 -21.82089,10.165788 -3.314111,0.116554 -6.550062,0.595203 -9.665043,1.401464 -15.379602,3.980758 -27.805875,15.949544 -32.079696,31.774805 -4.911707,18.18725 1.59948,36.856423 15.508098,47.624483 10.329864,6.00404 28.975127,16.88946 32.30087,21.32945 1.766615,-3.82764 23.27352,-21.91959 23.27352,-21.91959 l -0.002,5.1e-4 c 7.33186,-5.77029 12.93705,-13.869658 15.55874,-23.576336 l 5.2e-4,-0.001 c 4.17346,-15.453077 -0.23425,-31.202969 -10.311,-42.175203 -1.84381,-2.842529 -8.310626,-5.773095 -9.700186,-9.484176 0,0 -3.479381,-11.808015 -3.062863,-15.140161 z M 75.060535,38.908219 c 0.01783,0.0016 0.02323,0.0037 0.02739,0.01292 1.309963,2.90072 -2.207327,6.020815 -2.654101,9.172096 -0.434652,3.065778 -0.741141,6.282878 0,9.289309 0.455593,1.848108 1.749664,3.38119 2.654101,5.056022 1.320803,2.445855 3.329365,4.605401 4.048332,7.290511 0.618486,2.309846 0.609753,4.83273 0.117305,7.172689 -0.684169,3.250962 -2.645798,6.10009 -4.165637,9.054228 -1.7555,3.412197 -4.966181,6.230989 -5.711279,9.995255 -0.475783,2.403673 2.072925,5.117571 0.940511,7.290511 -1.798712,3.45146 -6.455716,5.38646 -10.347689,5.40897 -5.451611,0.0315 -10.655408,-3.62539 -14.581022,-7.40833 -4.06805,-3.920197 -6.286746,-8.100178 -8.231022,-13.404588 -1.457652,-3.976792 -2.881479,-9.660005 -2.4691,-13.875402 0.561271,-5.737394 2.460547,-11.625991 5.408739,-16.579866 2.636078,-4.429427 6.231373,-9.405908 10.700826,-12.650873 4.159431,-3.01988 9.264107,-4.489034 14.278386,-5.823452 3.09958,-0.824871 9.431541,-0.05002 9.984262,0 z m 13.021427,1.440739 c 1.022351,0.0109 2.082027,0.05579 3.169832,0.04392 2.270204,-0.02476 4.928548,0.4153 8.238257,1.085722 6.298509,3.823905 10.267389,11.175293 13.521659,18.472774 3.09139,6.932379 4.36916,15.20777 3.24166,22.71541 -0.82893,5.519722 -3.97045,11.632601 -7.23005,16.16077 -3.09233,4.295826 -5.71122,7.650506 -10.597286,9.676936 -3.454957,1.4329 -8.454476,1.25384 -12.089185,0.37309 -5.279405,-1.27924 -8.698095,-3.60075 -11.592574,-8.24393 -1.201993,-9.609276 2.042972,-10.100222 6.488493,-17.966866 1.331182,-3.55815 5.096738,-10.943556 -0.787549,-19.745565 -2.386049,-3.56917 -3.673054,-9.938038 -2.775541,-13.379028 2.255246,-8.646427 5.982096,-9.240462 10.412284,-9.193238 z" />
</svg>