<svg viewBox="0 0 150 150">
    <path
        d="M 131.98629,90.649599 A 59.499119,59.948841 0 0 1 59.018456,132.87025 59.499119,59.948841 0 0 1 17.114057,59.351162 59.499119,59.948841 0 0 1 90.081344,17.129547 59.499119,59.948841 0 0 1 131.9867,90.648077" />
    <path style="fill:none;"
        d="m 74.550277,15.051159 c 0,0 -10.566284,9.590007 -13.87529,15.756683 -4.990078,9.299529 -10.78281,20.332018 -8.231102,30.572667 1.971266,7.911192 9.510396,14.023564 16.69738,17.873253 10.996842,5.890429 26.766855,-1.130679 36.922375,6.114534 5.36811,3.82975 8.53825,10.866169 9.40698,17.402904 0.89114,6.7054 -4.65207,19.75264 -4.65207,19.75264" />
    <path style="fill:none;"
        d="m 63.973355,76.087416 c 0,0 -13.732264,-7.753618 -20.70127,-6.005454 -4.677894,1.173442 -8.406188,5.697716 -10.347674,10.112497 -1.989118,4.523093 -2.815827,10.466999 -0.470347,14.815986 2.70594,5.017355 12.817064,3.51582 14.580809,8.936625 2.142587,6.58516 -7.933277,19.20048 -7.933277,19.20048" />
</svg>