<svg viewBox="0 0 150 150">
    <path
        d="M 131.98629,90.649599 A 59.499119,59.948841 0 0 1 59.018456,132.87025 59.499119,59.948841 0 0 1 17.114057,59.351162 59.499119,59.948841 0 0 1 90.081344,17.129547 59.499119,59.948841 0 0 1 131.9867,90.648077" />
    <path style="fill:none;"
        d="m 106.7531,24.590618 c 0,0 -12.640254,-3.548531 -19.033061,-2.954576 -7.035808,0.653696 -14.145741,3.083249 -19.989821,7.055231 -4.641426,3.154587 -8.477305,7.713532 -11.053196,12.699416 -3.517006,6.807503 -5.154302,14.68346 -5.409009,22.341564 -0.290887,8.745913 -0.246822,18.497405 4.468312,25.869183 4.464005,6.979157 12.575137,11.568374 20.460171,14.110464 7.462481,2.40586 15.723186,1.32266 23.517436,0.47034 7.938228,-0.86806 15.339828,-6.472886 23.282258,-5.644179 1.89728,0.197961 5.16354,2.467339 5.16354,2.467339" />
    <path style="fill:none;"
        d="m 99.71393,104.18224 c 0,0 7.96181,3.96128 9.40698,7.76076 1.59086,4.18252 -2.0602,13.26554 -2.0602,13.26554" />
    <path style="fill:none;"
        d="m 67.730218,28.691273 c 0,0 5.259752,-4.300969 4.938663,-7.191066 -0.318002,-2.862307 -6.335096,-5.874683 -6.335096,-5.874683" />
</svg>