<svg viewBox="0 0 150 150">
    <path
        d="M 131.98629,90.649599 A 59.499119,59.948841 0 0 1 59.018456,132.87025 59.499119,59.948841 0 0 1 17.114057,59.351162 59.499119,59.948841 0 0 1 90.081344,17.129547 59.499119,59.948841 0 0 1 131.9867,90.648077" />
    <path style="fill:none;"
        d="m 49.121086,129.19786 c 0,0 8.624017,-3.10426 12.494598,-5.49614 4.072751,-2.51682 9.066753,-4.81569 11.053197,-9.1718 2.895487,-6.34957 1.170249,-14.1475 -0.47035,-20.930522 -1.434153,-5.929473 -7.995928,-16.462205 -7.995928,-16.462205 0,0 -12.604647,0.983536 -17.638077,-2.137193 -5.09531,-3.159095 -8.925363,-9.111428 -9.877325,-15.030535 -0.863564,-5.36947 2.922728,-10.478448 4.23314,-15.756683 1.104298,-4.448021 3.942705,-8.908234 3.057266,-13.40494 -0.3906,-1.983666 -3.489875,-4.960673 -3.489875,-4.960673" />
    <path style="fill:none;"
        d="m 72.198531,93.599396 c 0,0 5.52164,13.483864 10.818021,18.108434 4.814977,4.20423 11.35596,6.34466 17.638078,7.52558 4.76875,0.89643 14.54954,-0.46075 14.54954,-0.46075 l 5.3e-4,-5.3e-4" />
    <path style="fill:none;"
        d="m 64.202603,77.137193 c 0,0 9.053567,-18.040862 17.402902,-22.57674 5.94352,-3.22889 14.449535,1.874464 20.224995,-1.646221 4.81049,-2.932446 8.27317,-8.751004 8.93663,-14.345634 0.59946,-5.054971 -4.81901,-14.490892 -4.81901,-14.490892" />
    <path style="fill:none;"
        d="m 107.46905,47.342689 c 0,0 7.86776,-2.228738 11.52918,-1.013338 5.27455,1.750875 12.43879,11.102019 12.43879,11.102019" />
</svg>