<svg viewBox="0 0 150 150">
    <path
        d="M 131.98629,90.649599 A 59.499119,59.948841 0 0 1 59.018456,132.87025 59.499119,59.948841 0 0 1 17.114057,59.351162 59.499119,59.948841 0 0 1 90.081344,17.129547 59.499119,59.948841 0 0 1 131.9867,90.648077" />
    <path style="fill:none;"
        d="m 100.42034,21.01437 c 0,0 -14.300489,13.267002 -16.608472,22.221912 -3.435608,13.330064 3.419557,27.325045 5.653977,40.908173 1.630506,9.911911 10.440176,20.768645 5.653974,29.600225 -4.737862,8.74238 -21.49184,3.46515 -27.604702,11.30795 -1.925265,2.47012 -1.330843,9.30064 -1.330843,9.30064" />
    <path style="fill:none;"
        d="m 74.550277,15.051159 c 0,0 -21.379734,18.327558 -23.997086,31.178404 -1.760175,8.642221 4.586164,17.034824 6.651736,25.609182 1.915015,7.949385 8.595925,16.453759 5.321387,23.946249 -2.467114,5.645016 -12.271294,4.381346 -15.964164,9.312426 -4.085957,5.45597 -4.917721,19.84893 -4.917721,19.84893" />
    <path style="fill:none;"
        d="m 53.607506,38.80745 c 0,0 -0.901941,-7.150151 -2.056556,-10.537573 -0.83634,-2.453665 -3.48221,-6.953679 -3.48221,-6.953679" />
    <path style="fill:none;"
        d="m 46.56215,105.09742 c 0,0 -6.223935,3.31263 -9.645018,3.65846 -4.331192,0.43784 -12.890793,-2.09422 -12.890793,-2.09422" />
    <path style="fill:none;"
        d="m 88.570627,34.274021 c 0,0 12.644113,1.674652 18.189733,4.558769 10.0351,5.21896 25.65424,22.210955 25.65424,22.210955" />
</svg>