<svg
   viewBox="0 0 150 150">
  <path
     d="M 75 15 A 60 60 0 0 0 15 75 A 60 60 0 0 0 75 135 A 60 60 0 0 0 135 75 A 60 60 0 0 0 75 15 z M 75 20.800781 A 54.200001 54.200001 0 0 1 129.19922 75 A 54.200001 54.200001 0 0 1 75 129.19922 A 54.200001 54.200001 0 0 1 20.800781 75 A 54.200001 54.200001 0 0 1 75 20.800781 z " />
  <path
     d="M 75 32.419922 A 42.580002 42.580002 0 0 0 32.419922 75 A 42.580002 42.580002 0 0 0 75 117.58008 A 42.580002 42.580002 0 0 0 117.58008 75 A 42.580002 42.580002 0 0 0 75 32.419922 z M 75 44.029297 A 30.969999 30.969999 0 0 1 105.9707 75 A 30.969999 30.969999 0 0 1 75 105.9707 A 30.969999 30.969999 0 0 1 44.029297 75 A 30.969999 30.969999 0 0 1 75 44.029297 z " />
  <path
     d="M 75 57.580078 A 17.42 17.42 0 0 0 57.580078 75 A 17.42 17.42 0 0 0 75 92.419922 A 17.42 17.42 0 0 0 92.419922 75 A 17.42 17.42 0 0 0 75 57.580078 z M 75 63.369141 A 11.63 11.63 0 0 1 86.630859 75 A 11.63 11.63 0 0 1 75 86.630859 A 11.63 11.63 0 0 1 63.369141 75 A 11.63 11.63 0 0 1 75 63.369141 z " />
</svg>
