<svg viewBox="0 0 150 150">
    <path
        d="m 14.999999,15 c 0,0 67.639321,7.639319 90.000001,29.999999 C 127.36068,67.360679 135,135 135,135 135,135 65.098708,128.15989 42.354166,105 20.384305,82.628943 14.999999,14.999999 14.999999,14.999999" />
    <path d="M 14.999999,15 135,135" />
    <path d="M 126.24357,89.987825 114.82559,114.82559 89.949937,126.93984" />
    <path d="M 110.08858,51.179592 94.953525,94.953525 50.156105,111.26077" />
    <path d="M 85.004152,32.363373 75,75 30.244222,85.109821" />
    <path d="M 60.106864,23.782239 54.959966,54.959966 22.297343,59.908084" />
    <path d="m 34.972303,18.102975 -0.05069,16.818638 c 0,0 -17.493627,-0.110454 -17.493627,-0.110454" />
</svg>