<svg viewBox="0 0 150 150">
   <path
      d="M 74.86,119.65 C 81.7,105.38 96.1,95.86 112.6,93.81 112.6,64.81 95.1,35.55 74.86,18.08 54.63,35.55 37.13,64.83 37.13,93.81 53.62,95.86 68,105.38 74.86,119.65 Z" />
   <path style="fill:none;"
      d="M 70.64,102.3 C 68.41,98.3 64.981495,91.724111 60.231495,90.124111 59.871495,92.954111 60.45,100.69 62.27,104.13" />
   -->
   <path
      d="M 74.86,119.65 C 81.02,106.19 79.865,92.465279 74.865,79.945279 69.875,92.415279 68.71,106.19 74.86,119.65 Z" />
   <path style="fill:none;"
      d="M 79.09,102.3 C 81.32,98.3 84.748505,91.629088 89.498505,90.029088 89.858505,92.859088 89.28,100.69 87.46,104.13" />
   -->
   <path style="fill:none;"
      d="m 89.498505,90.029088 c -2.47,-12.76 -5.763505,-22.137571 -14.633505,-27.497571 -8.86,5.36 -12.163505,14.832594 -14.633505,27.592594" />
   <path
      d="M 74.865,49.554835 C 91.384302,57.889986 104.65641,77.098882 112.6,93.81 111.33,74.44 98.715,50.081893 74.865,33.641893 51.005,50.081893 38.4,74.44 37.13,93.81 45.071032,77.100467 58.34943,57.891766 74.865,49.554835 Z" />
</svg>