<svg viewBox="0 0 150 150">
   <path
      d="m 108.60574,31.064179 c -5.49993,0 -10.778618,5.470751 -18.619138,13.25 -7.46279,7.404472 -5.91756,9.242195 -15.1875,10.492188 C 63.767822,53.670205 66.33014,51.887333 58.170196,44.347382 50.360252,36.537438 45.467029,31.091523 39.967071,31.091523 c -8.249944,0 -17.589844,11.642584 -17.589844,23.8125 V 105.19309 H 124.85574 V 53.314179 c 0,-10.579923 -5.37007,-22.25 -16.25,-22.25 z m -4.49609,14.423828 A 10.870484,11.023623 0 0 1 114.97879,56.511445 10.870484,11.023623 0 0 1 104.10965,67.536836 10.870484,11.023623 0 0 1 93.238552,56.511445 10.870484,11.023623 0 0 1 104.10965,45.488007 Z m -60.027345,1.84375 A 10.870484,11.023623 0 0 1 54.953399,58.355195 10.870484,11.023623 0 0 1 44.082305,69.380586 10.870484,11.023623 0 0 1 33.213164,58.355195 10.870484,11.023623 0 0 1 44.082305,47.331757 Z M 74.799102,64.429414 A 10.870484,11.023623 0 0 1 85.668242,75.452851 10.870484,11.023623 0 0 1 74.799102,86.476289 10.870484,11.023623 0 0 1 63.928008,75.452851 10.870484,11.023623 0 0 1 74.799102,64.429414 Z m -44.8125,21.523437 a 3.6700001,3.6700001 0 0 1 3.669922,3.669922 3.6700001,3.6700001 0 0 1 -3.669922,3.669922 3.6700001,3.6700001 0 0 1 -3.669922,-3.669922 3.6700001,3.6700001 0 0 1 3.669922,-3.669922 z m 58.16992,0 a 3.6700001,3.6700001 0 0 1 3.66992,3.669922 3.6700001,3.6700001 0 0 1 -3.66992,3.669922 3.6700001,3.6700001 0 0 1 -3.66992,-3.669922 3.6700001,3.6700001 0 0 1 3.66992,-3.669922 z m 29.060548,0 a 3.6700001,3.6700001 0 0 1 3.66992,3.669922 3.6700001,3.6700001 0 0 1 -3.66992,3.669922 3.6700001,3.6700001 0 0 1 -3.66992,-3.669922 3.6700001,3.6700001 0 0 1 3.66992,-3.669922 z m -59.531249,0.451172 a 3.6700001,3.6700001 0 0 1 3.669922,3.669922 3.6700001,3.6700001 0 0 1 -3.669922,3.669922 3.6700001,3.6700001 0 0 1 -3.669922,-3.669922 3.6700001,3.6700001 0 0 1 3.669922,-3.669922 z" />
   <path d="m 74.865237,86.52874 1.303255,19.2168" />
   <path d="M 104.17579,67.589287 98.569345,105.24554" />
   <path d="m 44.14844,69.433037 3.218956,36.312503" />
   <path d="M 57.751956,93.796318 62.538344,105.3607" />
   <path d="M 88.222659,93.345146 86.835565,105.24554" />
   <path d="M 117.28321,93.345146 112.91063,105.3607" />
   <path d="m 30.052737,93.345146 3.328942,11.900394" />
</svg>