<svg viewBox="0 0 150 150">
    <path
        d="m 14.934248,74.903923 c 0,0 33.915291,3.83046 45.127245,15.042414 11.211955,11.211953 15.042415,45.127243 15.042415,45.127243 0,0 -35.049474,-3.42972 -46.453902,-15.04241 C 17.634014,108.81401 14.934248,74.903922 14.934248,74.903922" />
    <path d="m 14.934248,74.903923 60.16966,60.169657" />
    <path d="m 70.713313,112.50386 -5.725133,12.45399 -12.472996,6.07426" />
    <path d="M 62.612978,93.044871 55.024052,114.99373 32.562006,123.1704" />
    <path d="m 50.035299,83.610158 -5.01622,21.378592 -22.441166,5.06921" />
    <path d="m 37.551454,79.307459 -2.580726,15.632943 -16.37749,2.481055" />
    <path d="m 24.948638,76.459797 -0.02542,8.433098 c 0,0 -8.771546,-0.05538 -8.771546,-0.05538" />
    <path
        d="m 135.21228,74.907966 c 0,0 -33.9153,3.83046 -45.127251,15.042414 -11.21196,11.21195 -15.04242,45.12724 -15.04242,45.12724 0,0 35.049481,-3.42972 46.453911,-15.04241 11.01599,-11.21716 13.71576,-45.127245 13.71576,-45.127245" />
    <path d="M 135.21228,74.907966 75.042609,135.07762" />
    <path d="m 79.433209,112.5079 5.72513,12.45399 12.472999,6.07426" />
    <path d="m 87.533549,93.048914 7.588921,21.948856 22.46205,8.17667" />
    <path d="m 100.11122,83.614201 5.01622,21.378589 22.44117,5.06921" />
    <path d="m 112.59507,79.311502 2.58072,15.632943 16.3775,2.481055" />
    <path d="m 125.19789,76.46384 0.0254,8.433098 c 0,0 8.77154,-0.05538 8.77154,-0.05538" />
</svg>