<svg viewBox="0 0 150 150">
    <defs />
    <path
        d="m 112.35,43.47 a 29,29 0 0 0 -5.27,2.3 v 0 A 37.19,37.19 0 0 0 95.7,31.16 36.5,36.5 0 0 0 89.78,34.72 v 0 A 30.6,30.6 0 0 0 74.86,20.06 30.6,30.6 0 0 0 59.94,34.72 v 0 A 36.5,36.5 0 0 0 54,31.16 37.19,37.19 0 0 0 42.63,45.76 v 0 a 29,29 0 0 0 -5.27,-2.3 c -14.64,34.75 11.74,82.2 37.48,82.2 25.74,0 52.16,-47.45 37.51,-82.19 z" />
    <path style="fill:none" d="M 42.66,45.76 A 37.19,37.19 0 0 1 54,31.16 c 0,0 13.38,6 16.38,17.5" />
    <path style="fill:none"
        d="m 87.18,67 c 9.4,-19.15 25.17,-23.57 25.17,-23.57 14.64,34.75 -11.74,82.2 -37.48,82.2 -25.74,0 -52.12,-47.42 -37.49,-82.16 0,0 15.76,4.42 25.17,23.57" />
    <path style="fill:none" d="m 74.86,125.67 c 26.7,-21.39 15.12,-62.57 0,-84.13 -15.12,21.55 -26.7,62.73 0,84.13 z" />
    <path style="fill:none" d="M 107.07,45.76 A 37.19,37.19 0 0 0 95.7,31.16 c 0,0 -13.38,6 -16.38,17.5" />
    <path style="fill:none" d="M 89.79,34.72 A 30.6,30.6 0 0 0 74.86,20.06 30.6,30.6 0 0 0 59.94,34.72" />
</svg>