<svg viewBox="0 0 150 150">
    <polygon
        points="84.92,111.02 104.15,111.02 108.4,91.28 123.13,78.67 113.14,62.19 116.76,42.45 98.28,35.58 89.04,18.72 70.86,25.59 52.69,18.72 43.45,35.58 24.97,42.45 28.59,62.19 18.6,78.67 33.33,91.28 37.58,111.02 56.81,111.02 70.86,123.01 "
        transform="translate(4.1049031,5.7297606)" />
    <path d="m 59.424903,65.199761 c -3.69,-5.27 -13.44,-14.3 -16.49,-9.74 -2.53,4.87 10.08,9.05 16.49,9.74 z" />
    <path d="m 56.634903,77.919761 c -6.19,-1.76 -19.46,-2.6 -18.93,2.87 1.12,5.38 13.54,0.65 18.93,-2.87 z" />
    <path
        d="m 63.104903,89.729761 c -5.83,2.79 -16.3,10.999999 -12.27,14.709999 4.41,3.29 10.54,-8.519999 12.27,-14.709999 z" />
    <path
        d="m 74.964903,93.279761 c -2.81,5.79 -5.94,18.709999 -0.47,19.139999 5.49,-0.16 2.99,-13.209999 0.47,-19.139999 z" />
    <path d="m 69.574903,57.339761 c 0.5,-6.42 -1.28,-19.59 -6.54,-18 -5.05,2.15 2.07,13.39 6.54,18 z" />
    <polygon style="fill:none;"
        points="79.95,96.56 82.67,83.82 95.22,83.82 89.04,72.11 98.97,64.53 86.41,59.47 89.41,46.82 76.3,51.69 70.86,39.98 65.43,51.69 52.32,46.82 55.32,59.47 42.76,64.53 52.69,72.11 46.51,83.82 59.06,83.82 61.78,96.56 70.86,87.19 "
        transform="translate(4.1049031,5.7297606)" />
    <path
        d="m 90.514903,65.199761 c 3.69,-5.27 13.439997,-14.3 16.489997,-9.74 2.53,4.87 -10.079997,9.05 -16.489997,9.74 z" />
    <path
        d="m 93.304903,77.919761 c 6.19,-1.76 19.459997,-2.6 18.929997,2.87 -1.13,5.38 -13.539997,0.65 -18.929997,-2.87 z" />
    <path
        d="m 86.874903,89.729761 c 5.79,2.79 16.229997,10.999999 12.23,14.709999 -4.41,3.29 -10.54,-8.519999 -12.23,-14.709999 z" />
    <path d="m 80.364903,57.339761 c -0.5,-6.42 1.28,-19.59 6.54,-18 5.05,2.15 -2.04,13.39 -6.54,18 z" />
</svg>