<svg viewBox="0 0 150 150">
   <path
      d="m 113.66342,108.33504 a 91.646806,93.312319 0 0 0 -3.36794,-13.859465 h 20.43433 C 122.78492,65.140995 105.02768,43.082359 74.964506,30.3 44.890536,43.082359 27.154882,65.140995 19.21,94.475575 h 20.434323 a 91.636011,93.301328 0 0 0 -3.389528,13.859465 h 24.968087 a 48.360152,49.239009 0 0 0 -0.99311,11.12274 H 89.69924 a 48.360152,49.239009 0 0 0 -0.993111,-11.12274 z" />
   <path
      d="M 74.964506,52.446563 C 70.549483,44.192435 57.693023,37.301172 55.458525,41.356795 53.224027,45.412419 65.756646,52.963133 74.964506,52.446563 Z" />
   <path
      d="m 65.598471,114.25232 c -1.524853,2.39867 5.845265,5.10355 9.548477,5.33321 -1.933294,-2.96857 -8.041779,-7.73188 -9.548477,-5.33321 z" />
   <path style="fill:none;" 
      d="M 88.727719,108.33504 H 113.66342 C 109.77734,85.166325 98.755973,65.580629 74.964506,52.446563 51.216217,65.635584 40.151673,85.166325 36.265589,108.33504 h 24.935704" />
   <path style="fill:none;" 
      d="M 105.5998,108.33504 C 101.60577,89.529692 92.462677,73.318188 74.9753,61.31618 57.477129,73.318188 48.344833,89.529692 44.340008,108.33504" />
   <path style="fill:none;" d="M 89.69924,119.46877 Q 90.163411,99.289567 74.964506,81.737179 59.765601,99.32254 60.229772,119.46877 Z" />
   <polyline points="75.31 53.05 70.86 58.52 66.42 53.05"
      transform="matrix(1.0794677,0,0,1.099085,-1.5265742,-3.0022764)" />
   <line x1="85.111504" y1="69.625267" x2="91.523537" y2="64.415596" />
   <line x1="100.82855" y1="75.230598" x2="93.272278" y2="79.176308" />
   <line x1="107.80191" y1="87.848099" x2="99.662727" y2="90.222115" />
   <line x1="112.24932" y1="101.36684" x2="104.05616" y2="102.1362" />
   <line x1="64.828308" y1="69.625267" x2="58.416264" y2="64.415596" />
   <line x1="49.111256" y1="75.230598" x2="56.66753" y2="79.176308" />
   <line x1="42.137894" y1="87.848099" x2="50.277081" y2="90.222115" />
   <line x1="37.690487" y1="101.36684" x2="45.883644" y2="102.1362" />
   <path
      d="m 74.964498,51.907892 c 4.813397,-7.969527 5.343411,-19.661027 0,-21.613186 -5.332596,1.952159 -4.802581,13.622207 0,21.613186 z" />
   <path
      d="M 74.964506,52.446563 C 79.379529,44.192435 92.235989,37.301172 94.470487,41.356795 96.704985,45.412419 84.18316,52.963133 74.964506,52.446563 Z" />
   <path
      d="m 74.96449,119.55429 c 3.790161,-6.53348 6.53476,-22.083733 0,-22.083733 -6.534759,0 -3.779269,15.550253 0,22.083733 z" />
   <path
      d="m 85.061883,113.74499 c 1.630071,2.60952 -6.248606,5.55216 -10.207351,5.80201 2.066699,-3.22951 8.57728,-8.41153 10.207351,-5.80201 z" />
   <path d="m 78.105757,31.684847 a 2.5691331,2.6158224 0 0 0 -0.798806,0.604497" />
</svg>