<svg viewBox="0 0 150 150">
    <path
        d="m 15.019927,74.962055 c 0,0 28.770759,8.828467 39.927793,20.034199 11.157036,11.205736 19.947135,40.102076 19.947135,40.102076 0,0 -28.493873,-8.5113 -39.842439,-20.11753 C 24.090384,103.76986 15.019927,74.962055 15.019927,74.962055" />
    <path d="M 15.003271,74.945987 74.894843,135.09832" />
    <path d="m 68.274878,117.2903 -3.446201,7.69791 -7.426529,3.62481" />
    <path d="m 59.705714,100.95411 -4.792358,14.0755 -13.694425,4.98523" />
    <path d="m 48.494589,89.869368 -3.537198,15.160822 -14.983334,3.42143" />
    <path d="M 36.857077,83.469982 34.958261,94.987416 23.58611,96.736727" />
    <path d="m 24.970608,78.444901 -0.01063,6.500584 -6.420194,-0.09056" />
    <path
        d="m 134.98072,75.004218 c 0,0 -29.14884,8.871013 -40.452478,20.13075 -11.30365,11.259742 -20.209258,40.295342 -20.209258,40.295342 0,0 28.868306,-8.55231 40.365996,-20.21449 11.10608,-11.26496 20.29574,-40.211602 20.29574,-40.211602" />
    <path d="M 134.98072,75.004218 74.318984,135.43031" />
    <path d="m 81.025953,117.53646 3.491487,7.73501 7.52412,3.64227" />
    <path d="m 89.707724,101.12154 4.855333,14.14334 13.874383,5.00925" />
    <path d="m 101.06617,89.983373 3.58368,15.233897 15.18023,3.43791" />
    <path d="m 112.85661,83.553146 1.92376,11.57294 11.5216,1.757742" />
    <path d="m 124.89928,78.503849 0.0107,6.531911 6.50456,-0.091" />
    <path
        d="m 15.019958,75.170439 c 0,0 28.82502,-8.846315 40.003096,-20.0747 11.178078,-11.228389 19.984755,-40.183144 19.984755,-40.183144 0,0 -28.547612,8.528506 -39.917581,20.158199 -10.982706,11.233603 -20.07027,40.099645 -20.07027,40.099645" />
    <path d="M 15.003271,75.186539 75.007797,14.912605" />
    <path d="M 68.375347,32.756625 64.922646,25.043153 57.482111,21.411015" />
    <path d="M 59.790022,49.125839 54.988625,35.021885 41.268373,30.026577" />
    <path d="M 48.557753,60.23299 45.013884,45.041519 30.002291,41.613173" />
    <path d="M 36.898293,66.645312 34.995896,55.104595 23.602297,53.351748" />
    <path d="m 24.989406,71.680552 -0.01065,-6.513725 -6.432302,0.09074" />
    <path
        d="m 134.98072,75.128308 c 0,0 -28.81786,-8.840126 -39.993141,-20.06066 C 83.812282,43.84711 75.007797,14.912605 75.007797,14.912605 c 0,0 28.540503,8.522533 39.907643,20.144108 10.97997,11.225738 20.06528,40.071595 20.06528,40.071595" />
    <path d="M 134.98072,75.128308 75.007797,14.912605" />
    <path d="m 81.638608,32.744153 3.451842,-7.708079 7.438683,-3.629588" />
    <path d="M 90.221798,49.10192 95.021999,35.007824 108.73884,30.016015" />
    <path d="m 101.45127,60.201307 3.54299,-15.180856 15.00786,-3.425941" />
    <path d="m 113.10783,66.609145 1.90191,-11.532646 11.39078,-1.751622" />
    <path d="m 125.01375,71.640862 0.0106,-6.509169 6.4307,0.09068" />
</svg>