<svg viewBox="0 0 150 150">
    <path
        d="m 14.999999,15 c 0,0 57.661717,17.616923 80.022397,39.977603 C 117.38308,77.338283 135,135 135,135 135,135 77.893212,118.01599 55.14867,94.856103 33.178809,72.485046 14.999999,14.999999 14.999999,14.999999" />
    <path d="M 14.999999,15 135,135" />
    <path d="m 121.73239,99.464654 -6.9068,15.360936 -14.884085,7.23319" />
    <path d="M 104.55826,66.86632 94.953525,94.953525 67.507462,104.9014" />
    <path d="M 82.089174,44.747066 75,75 44.970735,81.827352" />
    <path d="M 58.765531,31.977294 54.959966,54.959966 32.168153,58.450659" />
    <path d="M 34.942934,21.949909 34.921613,34.921613 22.054405,34.740899" />
    <path
        d="M 135,135 C 135,135 121.66667,71.666666 99.999999,49.999999 78.333332,28.333333 14.999999,15 14.999999,15 14.999999,15 82.63932,22.639319 105,44.999999 127.36068,67.360679 135,135 135,135 135,135 67.36068,127.36068 45,105 22.63932,82.63932 14.999999,14.999999 14.999999,14.999999 c 0,0 10,55 30.000001,80 C 65.508443,120.63555 135,135 135,135 Z" />
</svg>