<svg viewBox="0 0 150 150">
    <polygon points="116.77,68.8 70.86,30.68 24.96,68.8 70.86,111.05 " transform="translate(4,6)" />
    <polygon points="116.77,68.8 70.86,30.68 24.96,68.8 70.86,111.05 " transform="translate(4,6)" />
    <path
        d="m 74.86,59.34 c 4.82,0 6.81,-4.36 7.73,-6 -2,3.39 -4.14,7.56 -0.1,11.18 4.21,3.6 7.82,1.27 10.51,-2.52 -2.66,3.08 -3.57,7.77 0,11.17 3.78,3 8,1.57 10.85,-2.13 -2.52,3 -4.17,7.39 0.33,10.89 3.79,2.75 7.86,0.78 10.64,-1.77 l -40,-33.27 -40,33.27 c 2.78,2.56 6.85,4.52 10.64,1.77 4.5,-3.5 2.85,-7.9 0.33,-10.89 2.86,3.7 7.06,5.14 10.85,2.13 3.62,-3.4 2.7,-8.09 0,-11.17 2.74,3.75 6.35,6.08 10.55,2.5 4,-3.62 1.9,-7.79 -0.1,-11.18 0.97,1.68 2.91,6.02 7.77,6.02 z" />
    <polyline style="fill:none;" points="92.87 90.8 70.86 72.93 48.86 90.8" transform="translate(4,6)" />
</svg>