<svg viewBox="0 0 150 150">
	<path
		d="M 84.999998,14.999999 C 84.999998,14.999999 105,51.845926 105,75 c 0,23.154073 -20.000001,60 -20.000001,60" />
	<path d="m 79.999998,15 c 0,0 20.000001,36.845926 20.000001,60 0,23.154073 -20,60 -20,60" />
	<path d="m 74.999997,14.999999 c 0,0 20.000002,36.845927 20.000002,60.000001 C 94.999999,98.154073 75,135 75,135" />
	<path
		d="M 69.999998,14.999998 C 69.999998,14.999998 90,51.845925 90,74.999999 90,98.154072 69.999999,135 69.999999,135" />
	<path d="m 64.999998,14.999999 c 0,0 20.000001,36.845926 20.000001,60 0,23.154073 -20,60.000001 -20,60.000001" />
	<path d="m 59.999997,14.999998 c 0,0 20.000002,36.845927 20.000002,60.000001 C 79.999999,98.154072 60,135 60,135" />
</svg>