<svg viewBox="0 0 150 150">
   <path
      d="m 74.85878,128.05042 c 6.734543,1.56298 10.914604,10.08304 10.914604,10.08304 8.70846,-6.07568 15.965506,-4.11313 15.965506,-4.11313 C 124.00353,86.225745 74.85878,11.566534 74.85878,11.566534 c 0,0 -49.144746,74.659211 -26.865601,122.453796 0,0 7.25705,-1.96255 15.965511,4.11313 0,0 4.165547,-8.52006 10.90009,-10.08304 z" />
   <path
      d="M 97.355636,56.763972 A 40.407257,32.717022 0 0 0 74.85878,71.829785 40.407257,32.717022 0 0 0 52.361923,56.763972" />
   <path
      d="m 102.95808,74.039124 c 0,0 -19.594037,5.288312 -28.084786,20.13084 -8.519778,-14.842528 -28.0993,-20.13084 -28.0993,-20.13084" />

   <path
      d="m 74.85878,128.05042 c 6.734543,1.56298 10.914604,10.08304 10.914604,10.08304 8.70846,-6.07568 15.965506,-4.11313 15.965506,-4.11313 C 124.00353,86.225745 74.85878,11.566534 74.85878,11.566534 c 0,0 -49.144746,74.659211 -26.865601,122.453796 0,0 7.25705,-1.96255 15.965511,4.11313 0,0 4.165547,-8.52006 10.90009,-10.08304 z" />
   <path
      d="M 90.343094,40.344359 C 80.872782,44.288983 79.947764,45.728055 75.029818,52.844608 70.111871,45.728055 68.246147,44.203464 59.288947,40.344359" />
   <path
      d="m 102.95808,74.039124 c 0,0 -19.594037,5.288312 -28.084786,20.13084 -8.519778,-14.842528 -28.0993,-20.13084 -28.0993,-20.13084" />
   <path
      d="M 97.355636,56.763972 A 40.407257,32.717022 0 0 0 74.85878,71.829785 40.407257,32.717022 0 0 0 52.361923,56.763972" />
</svg>