<svg viewBox="0 0 150 150">
   <path
      d="m 75.033865,60.51135 c 2.6,-4.680171 5.3,-9.686867 7.4,-14.693562 2.8,-7.727724 3.7,-15.128926 0.2,-20.679826 -2.4,-3.809442 -4.8,-5.224378 -7.1,-5.224378 -2.3,-0.10884 -4.8,1.306096 -7.2,5.006695 -3.6,5.44206 -2.9,12.843262 -0.3,20.679827 2,5.006695 4.5,10.122231 7,14.911244 z" />
   <path
      d="m 120.93386,94.469803 c 8.3,-4.897854 15.5,-12.407897 5.9,-20.026781 -5,-3.918283 -11.9,-3.156394 -19.1,-0.435365 -11.099995,5.006695 -24.97134,23.938434 -28.399995,17.414591 l -2.057241,-3.914397 c -2.662419,-5.065895 17.657241,-11.758734 27.557236,-21.4456 7.2,-7.727726 11.3,-15.890815 5.6,-22.203605 -5.7,-6.42163 -13.399995,-2.067982 -20.699995,5.44206 -5.5,6.203949 -10.8,13.713991 -14.8,19.809097 -3.8,-6.203947 -8.9,-13.931672 -14.3,-20.353303 -7.1,-7.836566 -14.7,-12.407895 -20.5,-6.203947 -5.8,6.203947 -1.9,14.475878 5.1,22.421286 9.7,10.01339 30.353255,17.776666 27.213797,22.617588 l -2.413797,3.721981 c -4.033608,6.219667 -17.1,-12.952103 -28,-18.394163 -7.1,-3.047553 -14,-4.027123 -19.1,-0.326523 -9.8,7.183519 -2.8,15.020085 5.4,20.244462 8.702899,6.383138 37.851549,-2.194906 37.7,10.884116 l -0.4,4.24482 c -3.098481,0.26094 -7.083872,-1.08687 -10.4,-1.3061 -14.9,-0.65305 -36.5,1.0884 -29.7,16.76154 2.5,5.76858 8,7.29235 14.4,6.63931 10.1,-1.8503 20.870477,-9.70509 27,-9.46917 l 3.769765,0.1451 c 8.507648,0.32745 -3.92453,-23.990064 4.201273,-23.870549 8.131679,0.119602 -5.192506,22.767579 3.319668,23.586339 l 3.709294,0.35678 c 6.197476,0.59611 16.7,8.27194 26.799995,10.44876 6.3,0.87073 11.9,-0.43537 14.6,-6.09511 7.2,-15.45545 -14.3,-17.9588 -29.299995,-17.84995 -3.159774,-0.42385 -10.364025,1.71841 -10.5,0.87073 l -0.3,-4.24481 c -0.86001,-12.168602 27.045495,-5.150242 37.699995,-9.469187 z" />
</svg>