<svg viewBox="0 0 150 150">
   <path
      d="m 19.046978,74.904903 c 0,9.420191 21.052769,4.440377 24.6,13 3.527135,8.511129 -14.84003,19.959967 -8.2,26.599997 6.64003,6.64003 17.995327,-11.73406 26.6,-8.2 8.570797,3.52015 3.579809,24.6 13,24.6 9.420191,0 4.440377,-21.05277 13,-24.6 8.511129,-3.52713 19.959972,14.84003 26.600002,8.2 6.64003,-6.64003 -11.73406,-17.995324 -8.2,-26.599997 3.52015,-8.570797 24.6,-3.579809 24.6,-13 0,-9.420191 -21.05277,-4.440377 -24.6,-13 -3.52714,-8.511129 14.84003,-19.95997 8.2,-26.6 -6.64003,-6.64003 -17.995329,11.734062 -26.600002,8.2 -8.570797,-3.520149 -3.579809,-24.6 -13,-24.6 -9.420191,0 -4.440377,21.052769 -13,24.6 -8.511129,3.527135 -19.95997,-14.84003 -26.6,-8.2 -6.64003,6.64003 11.761252,18.006544 8.2,26.6 -3.535436,8.53116 -24.6,3.579809 -24.6,13 z" />
</svg>