<svg viewBox="0 0 150 150">
   <path
      d="M 75 15 A 60 60 0 0 0 15 75 A 60 60 0 0 0 75 135 A 60 60 0 0 0 135 75 A 60 60 0 0 0 75 15 z M 75 23.5 A 51.5 51.5 0 0 1 126.5 75 A 51.5 51.5 0 0 1 75 126.5 A 51.5 51.5 0 0 1 23.5 75 A 51.5 51.5 0 0 1 75 23.5 z " />
   <path
      d="M 75 52.150391 A 22.85 22.85 0 0 0 52.150391 75 A 22.85 22.85 0 0 0 75 97.849609 A 22.85 22.85 0 0 0 97.849609 75 A 22.85 22.85 0 0 0 75 52.150391 z M 75 60.699219 A 14.3 14.3 0 0 1 89.300781 75 A 14.3 14.3 0 0 1 75 89.300781 A 14.3 14.3 0 0 1 60.699219 75 A 14.3 14.3 0 0 1 75 60.699219 z " />
   <circle cx="75" cy="75" r="5.72" />
</svg>