<svg viewBox="0 0 150 150">
   <path  
      d="M 77.233669,126.51197 C 113.9651,117.11669 138.75654,90.105273 133.05998,43.575169 92.546028,54.661594 78.122333,81.884406 77.233669,126.51197 Z"
      id="path19" />
   <path class="cls-1"
      d="M 73.018213,126.51197 C 36.286782,117.11669 11.495344,90.105273 17.191906,43.575169 57.740034,54.661594 72.163729,81.884406 73.018213,126.51197 Z"
      id="path4" />
   <path  
      d="m 75.137334,96.552781 a 66.7751,68.832141 0 0 1 34.862956,-47.152541 3.8964484,4.0164805 0 0 0 1.5039,-5.731119 C 106.24056,35.142908 94.528432,22.858585 75.137334,22.858585 c -19.391097,0 -31.091835,12.284323 -36.366851,20.810536 a 3.8964484,4.0164805 0 0 0 1.503892,5.731119 66.7751,68.832141 0 0 1 34.862959,47.152541 z"
      id="path27" />
   <ellipse   cx="74.956047" cy="44.745293" id="ellipse891" rx="15.779477" ry="16.265572" />
   <ellipse   cx="30.271212" cy="62.847229" id="circle13" rx="9.6841555" ry="9.982481" />
   <ellipse   cx="60.873142" cy="110.54" id="circle15" rx="6.733336" ry="6.9407601" />
   <ellipse   cx="46.05069" cy="87.333664" id="circle17" rx="15.779477" ry="16.265572" />
   <ellipse   cx="120.01485" cy="62.847229" id="circle21" rx="9.6841555" ry="9.982481" />
   <ellipse   cx="89.412918" cy="110.54" id="circle23" rx="6.733336" ry="6.9407601" />
   <ellipse   cx="104.23537" cy="87.333664" id="circle25" rx="15.779477" ry="16.265572" />
</svg>