<svg viewBox="0 0 150 150">
    <path
        d="m 75,14.999999 c 0,0 45,56.458981 45,90.000001 0,11.18034 -15,30 -15,30 H 44.999999 c 0,0 -15.000001,-18.81966 -15.000001,-30 C 29.999998,71.45898 75,14.999999 75,14.999999 Z" />
    <path
        d="m 89.999999,135 c 0,0 14.207441,-18.84779 15.000001,-30 2.24171,-31.54322 -30,-90 -30,-90 0,0 -32.241708,58.45678 -30.000001,90 0.792563,11.15221 15,30 15,30" />
    <path d="m 74.999997,15 c 0,0 19.522413,59.924299 15.000002,90 C 88.337528,116.05605 75,135 75,135" />
    <path d="m 74.999997,15 c 0,0 -19.522412,59.924299 -14.999999,90 C 61.66247,116.05605 75,135 75,135" />
</svg>