<svg viewBox="0 0 150 150">
   <path
      d="M 74.964846,129.34641 95.783067,108.78553 C 106.59211,138.76115 146.14241,110.59272 125.84302,68.280579 117.4552,49.440312 92.334981,34.127861 74.964846,18.17694 57.59471,34.149503 32.485298,49.461955 24.097479,68.302222 3.7764745,110.61436 43.33758,138.77196 54.157434,108.80718 Z" />

   <path
      d="M 74.964846,129.34641 95.783067,108.78553 C 106.59211,138.76115 146.14241,110.59272 125.84302,68.280579 117.4552,49.440312 92.334981,34.127861 74.964846,18.17694 57.59471,34.149503 32.485298,49.461955 24.097479,68.302222 3.7764745,110.61436 43.33758,138.77196 54.157434,108.80718 Z" />
   <path
      d="m 74.964846,103.25573 a 26.557823,26.588476 0 0 1 13.457261,4.02561 c 2.432035,0.50861 4.053392,0.7575 4.053392,0.7575 12.679001,1.77474 20.072391,-7.07727 20.072391,-19.143264 -0.54045,-15.72367 -15.532592,-26.685869 -28.103512,-36.923029 -3.448086,-2.813595 -7.987884,-6.785093 -9.457914,-9.890869 -1.47003,3.105776 -6.009829,7.088096 -9.457915,9.890869 -12.581729,10.23716 -27.563064,21.210181 -28.103518,36.923029 0,12.055174 7.382579,20.918004 20.072398,19.143264 0,0 1.621356,-0.24889 4.053392,-0.7575 a 26.557823,26.588476 0 0 1 13.414025,-4.02561 z" />
   <path
      d="m 74.964846,96.935965 c 7.750085,-0.486968 15.651497,2.424023 19.153627,4.912975 8.539147,0.58436 11.598097,-5.410765 11.598097,-14.230304 C 105.72739,72.620009 86.606187,64.179223 74.964846,52.329658 63.334314,64.179223 44.213112,72.620009 44.213112,87.618636 c 0,8.808718 3.05896,14.814664 11.598105,14.230304 3.502132,-2.488952 11.403543,-5.399943 19.153629,-4.912975 z" />
   <path
      d="M 78.067042,96.914323 C 81.82859,78.517737 79.861343,68.345508 74.975655,67.966755 70.089966,68.345508 68.12272,78.496094 71.884267,96.914323" />
   <path
      d="m 79.904579,77.11094 c 1.080905,-1.937053 3.545367,-4.068892 6.485428,-3.333029 7.674422,2.521415 2.25909,14.641517 -1.297086,24.229384" />
   <path
      d="m 92.410644,100.76678 c 3.63184,-4.664072 9.339016,-16.665138 3.923684,-19.597771 -3.026533,-1.082151 -5.155915,0.854901 -6.582709,3.365494" />
   <path
      d="m 70.035921,77.11094 c -1.080904,-1.937053 -3.545367,-4.068892 -6.485427,-3.333029 -7.674422,2.521415 -2.25909,14.641517 1.297086,24.229384" />
   <path
      d="M 57.562283,100.76678 C 53.930444,96.102708 48.223268,84.101642 53.6386,81.169009 c 3.026532,-1.082151 5.155914,0.854901 6.582708,3.365494" />

   <ellipse cx="82.725746" cy="43.575043" rx="2.6698344" ry="2.6729155" />
   <ellipse cx="95.620934" cy="53.855492" rx="2.6698344" ry="2.6729155" />
   <ellipse cx="106.80828" cy="64.67701" rx="2.6698344" ry="2.6729155" />
   <ellipse cx="114.97993" cy="76.948616" rx="2.6698344" ry="2.6729155" />
   <ellipse cx="117.64977" cy="92.596535" rx="2.6698344" ry="2.6729155" />
   <ellipse cx="109.86726" cy="107.90899" rx="2.6698344" ry="2.6729155" />
   <ellipse cx="67.21476" cy="43.575043" rx="2.6698344" ry="2.6729155" />
   <ellipse cx="54.319569" cy="53.855492" rx="2.6698344" ry="2.6729155" />
   <ellipse cx="43.13221" cy="64.67701" rx="2.6698344" ry="2.6729155" />
   <ellipse cx="34.960571" cy="76.948616" rx="2.6698344" ry="2.6729155" />
   <ellipse cx="32.290733" cy="92.596535" rx="2.6698344" ry="2.6729155" />
   <ellipse cx="40.07325" cy="107.90899" rx="2.6698344" ry="2.6729155" />
</svg>