<svg viewBox="0 0 150 150">
    <path
        d="M 75.000001,14.999999 C 75.000001,14.999999 145,71.45898 145,105 c 0,11.18034 -23.33333,30 -23.33333,30 H 28.333333 c 0,0 -23.333334,-18.81966 -23.333334,-30 0,-33.54102 70.000002,-90.000001 70.000002,-90.000001 z" />
    <path
        d="m 98.333332,135 c 0,0 22.100468,-18.84779 23.333338,-30 3.4871,-31.54322 -46.666669,-90 -46.666669,-90 0,0 -50.153767,58.45678 -46.666668,90 1.232876,11.15221 23.333333,30 23.333333,30" />
    <path d="m 74.999996,15 c 0,0 30.368194,59.924299 23.333336,90 -2.586066,11.05605 -23.333331,30 -23.333331,30" />
    <path d="m 74.999996,15 c 0,0 -30.368196,59.924299 -23.333331,90 2.586067,11.05605 23.333336,30 23.333336,30" />
</svg>