<svg
   viewBox="0 0 150 150"
>
    <path
       d="M 74.999997,134.98851 C 59.724073,114.03358 53.881038,74.994255 24.999999,63.46617 c 3.351153,48.43173 28.01222,67.89398 49.999998,71.52234" />
    <path
       d="m 74.999997,134.98851 c 35.678823,-56.641467 6.683213,-106.784035 0,-119.988511 -6.645027,13.15855 -35.669274,63.347044 0,119.988511 z" />
    <path
       d="M 74.999997,134.98851 C 90.275911,114.03358 96.118955,74.994255 125,63.46617 c -3.34161,48.46617 -28.002682,67.8825 -50.000003,71.52234" />
    <line
       x1="75.009552"
       y1="59.309628"
       x2="74.999992"
       y2="134.98851"/>
    <ellipse
       cx="75"
       cy="54.5"
       rx="4.9999995"
       ry="5" />
    <ellipse
       cx="44.5"
       cy="100"
       rx="4.9999995"
       ry="5" />
    <ellipse
       cx="105.2069"
       cy="99.793098"
       rx="4.9999995"
       ry="5" />
    <path style="fill:none;"
       d="m 103.5,104.5 c -8.484157,20.5 -28.000002,30 -28.000002,30"/>
    <path style="fill:none;"
       d="m 46.499998,104.5 c 8.484156,20.5 28.000001,30 28.000001,30"/>
</svg>
