<svg viewBox="0 0 150 150">
    <path
        d="m 135,134.81702 h -15 c 0,0 -8.46274,-33.42857 -15,-47.914724 C 100.86547,77.740447 93.71748,72.551855 89.999999,62.94494 87.229152,55.784367 87.315584,46.549381 84.999998,38.98758 82.359825,30.365804 81.009251,15.030226 75,15.030226 c -6.009252,0 -7.359827,15.335579 -10.000001,23.957358 -2.315586,7.5618 -2.229155,16.796784 -5.000001,23.957356 C 56.282518,72.551855 49.134525,77.740447 44.999999,86.902296 38.462739,101.38845 30,134.81702 30,134.81702 H 14.999999"/>
        <path
            d="m 120,134.69518 h -11.25 c 0,0 -6.34706,-26.42632 -11.250001,-37.878076 -3.100898,-7.242726 -8.461889,-11.344469 -11.25,-18.939035 -2.078135,-5.660655 -2.013311,-12.961199 -3.75,-18.939037 C 80.519868,52.12325 79.506938,39.999999 75,39.999999 c -4.506939,0 -5.519871,12.123252 -7.500002,18.939036 -1.736689,5.977838 -1.671865,13.27838 -3.75,18.939034 C 60.961888,85.472635 55.600894,89.574378 52.5,96.817104 47.597055,108.26886 41.25,134.69518 41.25,134.69518 H 30"/>
</svg>