<svg viewBox="0 0 150 150">
    <path
        d="m 75,135 c 7.647681,-28.55511 15.658115,-57.661342 45,-75.000001 -21.111403,-7.424331 -37.245276,-23.320961 -45,-45 -7.754725,21.701884 -23.888595,37.587091 -45.000001,45 C 59.353772,77.327241 67.364212,106.3992 75,135" />
    <path
        d="m 75,105 c 4.757499,-16.756141 13.248974,-35.588239 24.999999,-45.000001 -10.276201,-3.426614 -20.527952,-13.555111 -25,-25 -4.472049,11.444889 -14.747584,21.60765 -25,25 C 61.691561,69.400338 70.206817,88.243859 75,105 Z" />
    <path
        d="M 75,81.999999 C 76.819149,72.516053 80.506704,65.492283 85.000006,60.165243 76.499999,56.499999 69.999999,46.499999 75,46.499999 c 4.999999,0 -1.500001,10 -9.999994,13.665244 C 69.47057,65.485818 73.167204,72.516053 75,81.999999 Z" />
</svg>