<svg viewBox="0 0 150 150">
<path d="m 75,75 c -2.506924,-2.005537 1.466596,-4.368745 3.333335,-4.166673 5.058747,0.547603 6.555021,6.783038 5.000012,10.833343 C 80.5518,88.911715 71.441056,90.736574 64.999995,87.50002 55.547478,82.750247 53.350176,70.432601 58.333307,61.66666 64.975037,49.983039 80.598788,47.409787 91.666675,54.166634 105.59448,62.669436 108.54452,81.640999 100.00004,95.00001 89.651524,111.17956 67.310718,114.50688 51.666655,104.16671 33.230668,91.981189 29.525728,66.258652 41.666614,48.33332 55.683747,27.637814 84.795939,23.554966 105.00002,37.49994 127.95717,53.345107 132.41815,85.852304 116.66673,108.33335 98.996023,133.55369 63.090036,138.39298 38.333314,120.83341 10.848661,101.33895 5.630914,62.0314 24.99992,34.999979 46.31677,5.2501454 89.027989,-0.34617796 118.33336,20.833247 c 6.58618,4.759931 12.31703,10.680079 16.87978,17.403278" />
</svg>