<svg
   viewBox="0 0 150 150">
    <path
       d="m 94.109342,135.25701 c 9.561218,-12.28803 20.317588,-31.5664 20.317588,-53.658516 0,-37.20482 -17.652399,-67.375366 -39.440022,-67.375366 -21.787624,0 -39.440022,30.159539 -39.440022,67.375366 0,21.894256 10.899788,41.271576 20.317587,53.58158" />
    <path
       d="m 94.109342,135.25701 c 3.932046,-8.62801 8.688758,-19.78397 8.688758,-32.24784 0,-27.016112 -13.839863,-48.998308 -27.811192,-48.998308 -13.97133,0 -27.799239,21.982196 -27.799239,48.998308 0,12.31001 4.87622,23.56486 8.748513,32.1709" />
    <path
       d="m 56.701079,37.524226 c 6.190889,-4.396423 10.254406,5.594469 9.848054,11.870379 -6.6809,-1.263973 -16.038942,-7.473916 -9.848054,-11.87037" />
    <ellipse
       cx="60"
       cy="101.36043"
       rx="3.3344746"
       ry="3.0665145" />
    <path
       d="m 74.986908,47.976763 c 8.366064,-15.167705 4.517675,-23.015323 0,-23.015323 -4.517675,0 -8.378017,7.858626 0,23.015323" />
    <path
       d="m 93.284688,37.524226 c -6.190889,-4.396423 -10.254405,5.594469 -9.848055,11.870379 6.680902,-1.263973 16.038943,-7.473916 9.848055,-11.870379" />
    <path
       d="m 84.956592,123.10336 c -4.32339,-4.10547 -8.824328,5.2511 -9.320463,11.16841 5.447413,-1.20931 13.643885,-7.06295 9.320463,-11.16841"/>
    <ellipse
       cx="90"
       cy="101.36043"
       rx="3.3344746"
       ry="3.0665145" />
    <path
       d="m 74.986908,135 c 13.313994,-43.481546 10.290258,-72.536972 0,-72.536972 -10.290261,0 -13.278141,28.995662 0,72.536972"/>
    <path
       d="m 64.411094,123.6625 c -4.603648,3.78854 4.131854,9.40056 9.943987,10.61704 -0.533652,-5.55445 -5.340345,-14.40561 -9.943987,-10.61704 z"/>
    <path
       d="m 51.636426,51.878756 c 3.885776,-2.84597 6.436285,3.621508 6.181234,7.68414 -4.193336,-0.818217 -10.067008,-4.838146 -6.181234,-7.68414 z"/>
    <path
       d="m 98.380067,52.247255 c -3.910176,-2.548783 -6.476703,3.243339 -6.220051,6.881736 4.21968,-0.732775 10.130244,-4.332929 6.220051,-6.881736 z"/>
    <ellipse
       cx="55"
       cy="91.933487"
       rx="3.3344746"
       ry="3.0665145" />
    <ellipse
       cx="95"
       cy="91.360428"
       rx="3.3344746"
       ry="3.0665145" />
</svg>
