<svg
   viewBox="0 0 150 150">
    <path
       d="m 78.312285,91.578107 52.683365,-32.6944 c 1.96778,-1.224742 4.06047,-3.364145 4.00435,-5.383708 -0.053,-1.907562 -2.1457,-3.697801 -4.00435,-4.854621 L 78.312285,15.939602 c -2.019184,-1.252803 -4.59379,-1.252803 -6.612974,0 l -52.694967,32.6944 c -1.888253,1.175244 -3.979708,2.927563 -4.004345,4.865997 -0.02529,1.989687 2.066166,4.166015 4.004345,5.372333 l 52.671763,32.705775 c 2.024722,1.262425 4.611456,1.262425 6.636178,0 z" />
    <path
       d="m 74.994196,135 c 15.221444,0 20.005803,-10 20.005803,-10 L 134.6966,66.835477 c 1.09568,-1.63375 -0.86471,-3.573553 -2.54078,-2.514079 0,0 -34.737477,35.471144 -57.161624,35.470125 -22.42086,-0.001 -57.150023,-35.470125 -57.150023,-35.470125 -1.676068,-1.059474 -3.636468,0.880329 -2.540775,2.514079 L 54.999999,125 c 0,0 4.784355,10 19.994197,10 z" />
    <path
       d="M 78.231073,80.429704 113.14062,58.815452 c 1.96918,-1.219484 5.45514,-3.299687 5.35938,-5.315453 -0.0869,-1.828798 -3.57285,-3.600361 -5.35938,-4.706734 L 78.231073,27.179013 c -1.976033,-1.2286 -4.497721,-1.2286 -6.473754,0 L 36.870977,48.747761 c -1.764724,1.092869 -5.264664,2.946666 -5.370978,4.752238 -0.119944,2.037068 3.379996,4.036961 5.370978,5.269949 L 71.780522,80.3842 c 1.96153,1.232942 4.471134,1.250644 6.450551,0.0455 z" />
    <ellipse
       cx="74.994194"
       cy="118.02713"
       rx="11.856948"
       ry="11.626193" />
    <ellipse
       cx="74.856949"
       cy="52.5"
       rx="11.856948"
       ry="11.626193" />
</svg>
