<svg viewBox="0 0 150 150">
    <path
        d="M 138.81608,134.95138 C 145.75426,66.729325 86.75604,27.002704 75.000931,10.048191 63.280982,26.989238 4.2593276,66.715856 11.185815,134.95138 Z" />
    <path
        d="M 123.38086,134.95138 C 133.54206,93.204759 83.240056,42.152685 75.000931,31.487096 66.796966,42.152685 16.45979,93.204759 26.620987,134.95138" />
    <path
        d="M 108.10978,134.95138 C 119.09139,102.18702 83.251772,66.83706 75.012652,56.171473 66.808687,66.83706 30.93393,102.18702 41.915517,134.95138" />

    <line x1="29.738512" y1="127.69284" x2="40.251316" y2="127.96216" style="fill:none" />
    <line x1="30.558887" y1="111.34434" x2="40.509132" y2="114.15887" style="fill:none" />
    <line x1="35.539875" y1="95.561401" x2="44.095432" y2="101.5137" style="fill:none" />
    <line x1="42.747654" y1="80.586517" x2="50.541405" y2="88.46447" style="fill:none" />
    <line x1="50.119507" y1="69.15332" x2="57.620258" y2="77.866234" style="fill:none" />
    <line x1="58.206257" y1="58.406933" x2="65.109314" y2="68.008636" style="fill:none" />
    <path d="m 67.160284,47.754813 c 0.07031,0.255863 5.426337,11.365853 5.426337,11.365853" style="fill:none" />
    <path
        d="m 20.596936,125.39006 c -0.246109,1.11773 1.171992,3.23199 3.633182,1.42747 1.687672,-1.34668 0.878993,-4.1208 -0.925877,-5.66947 a 6.082653,6.9891921 0 0 0 -7.418724,0.7272 c -2.61355,2.80107 -2.273673,9.87104 0.703196,13.07612"
        style="fill:none" />
    <path
        d="m 24.452798,96.194357 c -1.558755,2.073867 0.31645,4.767193 3.211264,3.272403 2.719027,-1.346668 2.156469,-4.942266 0.351577,-6.490933 -2.410407,-1.862292 -5.612354,-1.61295 -7.782044,0.606003 -2.118999,2.490392 -2.408707,7.09189 -1.066971,10.37175 0.134425,0.3286 1.184495,2.26002 2.833375,3.54642 1.828103,1.42624 4.275374,2.21473 4.5,2.5"
        style="fill:none" />
    <path
        d="m 36.489185,72.035183 c -1.558754,2.019998 0.597714,5.251995 3.246422,3.891863 1.629074,-0.821466 1.992392,-3.609061 0.468801,-6.410122 -1.019638,-1.966132 -4.617664,-2.504797 -7.031968,-1.090802 -1.598563,1.127418 -4.099348,3.446438 -3.853958,8.75049 0.0076,0.163689 0.298957,3.006191 1.681517,5.323387 1.443231,2.418881 3.980466,4.316766 4,4.5"
        style="fill:none" />
    <path
        d="m 51.725114,49.411209 c -2.05099,2.195066 0.65632,6.356263 3.715223,4.430532 1.910352,-1.346668 2.54323,-4.255464 0.57428,-7.433591 -1.867855,-2.63678 -5.080125,-3.426513 -7.723446,-1.898801 -1.882722,1.303201 -4.665443,3.867546 -4.18458,10.292568 0.0075,0.100854 0.367762,2.857455 1.393408,5.198082 1.153508,2.632421 2.987586,4.881976 3,5"
        style="fill:none" />
    <path
        d="m 66.410209,30.679098 c -0.773517,2.046932 0.949314,5.076932 3.949623,4.861462 1.570471,0 3.515985,-3.218529 1.336075,-6.733321 -2.101582,-2.877637 -5.615208,-3.791949 -8.590723,-2.235469 -2.519585,1.322712 -3.945176,4.3951 -3.543054,7.49661 0.01184,0.09128 0.408078,3.037887 1.437869,5.431619 1.164295,2.706383 2.978896,4.896899 3,5"
        style="fill:none" />
    <path
        d="m 68.390881,77.341048 a 7.172608,8.2415907 0 0 0 -7.676566,2.518264 C 57.71401,83.899308 57.655411,90.87503 66.04689,94.241696"
        style="fill:none" />
    <path
        d="m 60.315839,90.067031 c -3.984786,-1.225466 -7.993008,2.693331 -8.731363,7.406662 -0.691477,4.349727 1.476713,9.426657 8.719642,9.938387"
        style="fill:none" />
    <path d="m 53.272148,104.24742 c -7.899246,-0.606 -12.774741,17.08918 4.371542,17.10265" style="fill:none" />
    <path d="m 49.650682,119.61286 c -2.625265,0.71374 -6.375649,11.24468 -0.703197,15.33852" style="fill:none" />

    <path
        d="M 119.0562,134.95138 C 129.21741,93.204759 83.240056,49.330408 75.000931,38.664826 66.796966,49.330408 20.784453,93.204759 30.945646,134.95138"
        style="fill:none" />
    <path
        d="M 90.471263,134.95138 C 96.952394,115.61326 85.783282,95.386357 75.000931,79.859312 64.1717,95.386357 53.061189,115.61326 59.530601,134.95138"
        />
    <path
        d="m 82.715129,134.99859 c 3.727787,-17.13035 1.481175,-23.54923 -7.714025,-38.872189 -9.185259,15.322959 -11.44181,21.741839 -7.714027,38.872189"
        />
    <line x1="120.27512" y1="127.69284" x2="109.76235" y2="127.96216" style="fill:none" />
    <line x1="119.45472" y1="111.34434" x2="109.50446" y2="114.15887" style="fill:none" />
    <line x1="114.47372" y1="95.561401" x2="105.91816" y2="101.5137" style="fill:none" />
    <line x1="107.26601" y1="80.586517" x2="99.472191" y2="88.46447" style="fill:none" />
    <line x1="99.894127" y1="69.15332" x2="92.393341" y2="77.866234" style="fill:none" />
    <line x1="91.807343" y1="58.406933" x2="84.904289" y2="68.008636" style="fill:none" />
    <path d="m 82.853295,47.754813 c -0.07033,0.255863 -5.426337,11.365853 -5.426337,11.365853" style="fill:none" />
    <path
        d="m 129.41666,125.39006 c 0.24628,1.11773 -1.17202,3.23199 -3.63319,1.42747 -1.68767,-1.34668 -0.87901,-4.1208 0.92587,-5.66947 a 6.082653,6.9891921 0 0 1 7.41873,0.7272 c 2.61353,2.80107 2.27365,9.87104 -0.70321,13.07612"
        style="fill:none" />
    <path
        d="m 80.708548,26.666037 c 0.843836,-5.090394 -5.590418,-8.362788 -5.707617,-9.992253 -0.08204,1.642927 -6.53973,4.834527 -5.695894,9.992253"
        style="fill:none" />
    <path
        d="M 78.680992,85.340238 C 86.521639,71.88705 76.747203,67.294923 75.000931,67.294923 c -1.746271,0 -11.55587,4.592127 -3.680063,18.045315"
        style="fill:none" />
    <path
        d="m 81.622703,77.341048 a 7.172608,8.2415907 0 0 1 7.676561,2.518264 c 3.000311,4.039996 3.05891,11.015718 -5.332574,14.382384"
        style="fill:none" />
    <path
        d="m 89.697746,90.067031 c 3.984781,-1.225466 7.993003,2.693331 8.731363,7.406662 0.691474,4.349727 -1.476715,9.426657 -8.719642,9.938387"
        style="fill:none" />
    <path d="m 96.741435,104.24742 c 7.899265,-0.606 12.774735,17.08918 -4.371541,17.10265" style="fill:none" />
    <path d="m 100.3629,119.61286 c 2.62527,0.71374 6.37565,11.24468 0.70319,15.33852" style="fill:none" />
    <path style="fill:none" d="M 74.999997,110 75,135" />
    <path
        d="m 125.71596,96.198863 c 1.55876,2.073867 -0.31645,4.767197 -3.21126,3.272403 -2.71903,-1.346668 -2.15647,-4.942266 -0.35158,-6.490933 2.41041,-1.862292 5.61235,-1.61295 7.78204,0.606003 2.119,2.490392 2.40871,7.091894 1.06697,10.371754 -0.13442,0.3286 -1.18449,2.26002 -2.83337,3.54642 -1.8281,1.42624 -4.27537,2.21473 -4.5,2.5"
        style="fill:none" />
    <path
        d="m 113.67957,72.039689 c 1.55876,2.019998 -0.59771,5.251995 -3.24642,3.891863 -1.62907,-0.821466 -1.99239,-3.609061 -0.4688,-6.410122 1.01964,-1.966132 4.61766,-2.504797 7.03197,-1.090802 1.59856,1.127418 4.09935,3.446438 3.85396,8.75049 -0.008,0.163689 -0.29896,3.006191 -1.68152,5.323387 -1.44323,2.418881 -3.98047,4.316766 -4,4.5"
        style="fill:none" />
    <path
        d="m 98.443647,49.415715 c 2.050983,2.195066 -0.65632,6.356263 -3.715223,4.430532 -1.910352,-1.346668 -2.54323,-4.255464 -0.57428,-7.433591 1.867855,-2.63678 5.080129,-3.426513 7.723446,-1.898801 1.88272,1.303201 4.66544,3.867546 4.18458,10.292568 -0.008,0.100854 -0.36776,2.857455 -1.39341,5.198082 -1.15351,2.632421 -2.98759,4.881976 -3,5"
        style="fill:none" />
    <path
        d="m 83.758552,30.683604 c 0.773517,2.046932 -0.949314,5.076932 -3.949623,4.861462 -1.570471,0 -3.515985,-3.218529 -1.336075,-6.733321 2.101582,-2.877637 5.615208,-3.791949 8.590723,-2.235469 2.519585,1.322712 3.945176,4.3951 3.543054,7.49661 -0.01184,0.09128 -0.408078,3.037887 -1.437869,5.431619 -1.164295,2.706383 -2.978896,4.896899 -3,5"
        style="fill:none" />
</svg>