<svg viewBox="0 0 150 150">
    <path
        d="m 75.023133,15.015397 c 0,0 -10.138222,2.659781 -14.9664,4.656215 -6.588764,2.72443 -13.274673,5.606092 -18.94705,9.925636 -5.553821,4.229263 -10.266215,9.60248 -14.30123,15.298991 -3.324767,4.693805 -6.044321,9.88319 -7.98209,15.298994 -1.640752,4.585682 -2.491734,9.45675 -2.99328,14.301232 -0.502325,4.852006 -0.537502,9.785583 0,14.633818 0.613479,5.533548 1.482237,11.172247 3.65846,16.296757 2.127351,5.00943 5.25946,9.66381 8.97984,13.63606 3.516421,3.75448 7.518655,7.4295 12.30571,9.31243 5.081497,1.99875 10.843054,1.39128 16.29675,1.66293 5.971222,0.29743 17.935834,-0.0385 17.935834,-0.0385 m 0.01032,-114.981548 c 0,0 9.845468,2.961916 14.581852,4.936835 6.635263,2.76669 13.529681,5.343898 19.290031,9.645016 5.59355,4.176573 10.26621,9.60248 14.30123,15.298991 3.32477,4.693805 6.04432,9.88319 7.98209,15.298994 1.64075,4.585682 2.49173,9.45675 2.99328,14.301232 0.50233,4.852006 0.5375,9.785583 0,14.633818 -0.61348,5.533547 -1.48224,11.172252 -3.65846,16.296752 -2.12735,5.00942 -5.25946,9.66381 -8.97984,13.63606 -3.51642,3.75448 -7.51866,7.4295 -12.30571,9.31243 -5.0815,1.99875 -10.843028,1.39184 -16.296753,1.66293 -5.967586,0.29663 -17.924813,-0.0422 -17.924813,-0.0422" />
    <path
        d="m 75.015466,25.803537 c 0,0 -6.660572,2.405852 -9.83257,4.211686 -4.328663,2.464329 -8.721146,5.07088 -12.447763,8.978038 -3.648729,3.825495 -6.74466,8.685732 -9.39557,13.838398 -2.184293,4.245688 -3.970975,8.939643 -5.244044,13.838401 -1.077935,4.147887 -1.63701,8.553916 -1.966514,12.935895 -0.330016,4.388786 -0.353126,8.851355 0,13.23673 0.403041,5.005261 1.589283,10.199595 3.579394,14.623315 1.985555,4.4136 4.76716,8.57813 7.801111,11.68923 3.230728,3.31289 4.773756,4.02423 7.769701,5.97768 3.920451,2.55626 6.066058,3.03144 9.606931,3.63154 4.040538,0.68478 10.120484,1.04611 10.120484,1.04611 m 0.0068,-104.004267 c 0,0 6.468239,2.679142 9.579931,4.465516 4.359211,2.502554 8.888681,4.833716 12.673093,8.724207 3.67483,3.777837 6.74466,8.685733 9.39557,13.838399 2.18429,4.245688 3.97097,8.939643 5.24404,13.838401 1.07794,4.147888 1.63701,8.553916 1.96652,12.935895 0.33001,4.388786 0.35312,8.851355 0,13.236729 -0.40305,5.005261 -2.33457,10.53469 -4.28491,14.97607 -2.0628,4.69747 -4.68787,8.11996 -7.54578,11.39354 -2.892222,3.31289 -3.998878,4.13328 -7.143853,5.83646 -3.338426,1.80792 -6.171097,2.4063 -9.754065,3.15039 -3.847637,0.79905 -10.141776,1.60802 -10.141776,1.60802" />
    <path
        d="m 75.011482,37.923522 c 0,0 -4.85237,2.122115 -7.163238,3.714975 -3.153524,2.173695 -6.353542,4.472839 -9.068463,7.919202 -2.658177,3.37433 -4.91363,7.66137 -6.844874,12.206349 -1.591305,3.744968 -2.892941,7.885335 -3.820399,12.206352 -0.785299,3.658701 -1.192597,7.545099 -1.432647,11.410285 -0.240424,3.871189 -0.25726,7.807458 0,11.675639 0.293623,4.414956 1.157826,8.996696 2.607664,12.898696 1.446521,3.89307 3.472979,7.56646 5.683278,10.31064 2.353655,2.92218 3.477783,3.54963 5.660393,5.2727 2.856133,2.25479 4.419254,2.67392 6.998856,3.20325 2.943619,0.60402 7.37299,0.92274 7.37299,0.92274 m 0.005,-91.738397 c 0,0 4.712252,2.363173 6.979186,3.938869 3.175779,2.207413 6.475595,4.263646 9.23262,7.695307 2.677193,3.332294 4.91363,7.661371 6.844875,12.20635 1.591302,3.744968 2.892937,7.885335 3.820397,12.206352 0.7853,3.658702 1.1926,7.545099 1.43265,11.410285 0.24042,3.871189 0.25726,7.807458 0,11.675638 -0.29362,4.414956 -1.70078,9.292266 -3.12165,13.209846 -1.502792,4.14348 -3.415212,7.16232 -5.497261,10.04983 -2.107046,2.92219 -2.913269,3.64581 -5.204451,5.14813 -2.432115,1.5947 -4.495776,2.12251 -7.106045,2.77884 -2.803086,0.70482 -7.388501,1.41838 -7.388501,1.41838" />
    <path
        d="m 75.009371,50.715533 c 0,0 -3.892256,1.834222 -5.745885,3.210991 -2.529552,1.878805 -5.0964,3.86604 -7.274133,6.84486 -2.132217,2.916559 -3.941396,6.622007 -5.490515,10.550401 -1.276442,3.236915 -2.320529,6.815587 -3.064476,10.550404 -0.629916,3.162351 -0.956625,6.521509 -1.149177,9.862333 -0.192852,3.346013 -0.206357,6.748276 0,10.091688 0.235525,3.81601 0.928733,7.77618 2.0917,11.14882 1.160305,3.36492 2.785798,6.53997 4.558756,8.91187 1.88795,2.52575 2.789653,3.06808 4.540401,4.55739 2.291005,1.9489 3.544839,2.31117 5.614029,2.76869 2.36118,0.52208 5.914134,0.79756 5.914134,0.79756 m 0.004,-79.292907 c 0,0 3.779864,2.042579 5.598251,3.404512 2.547404,1.907948 5.194302,3.685227 7.40581,6.651339 2.147471,2.880225 3.941396,6.622008 5.490514,10.550402 1.27644,3.236915 2.320527,6.815588 3.064475,10.550403 0.629917,3.162353 0.956627,6.52151 1.14918,9.862333 0.192849,3.346013 0.206357,6.748277 0,10.091688 -0.235523,3.81601 -1.364256,8.03165 -2.503985,11.41776 -1.205443,3.58137 -2.739463,6.19066 -4.409547,8.68644 -1.690136,2.52577 -2.336836,3.15121 -4.174674,4.44973 -1.950885,1.37835 -3.60622,1.83456 -5.700008,2.40185 -2.248454,0.6092 -5.926577,1.22596 -5.926577,1.22596" />
</svg>