<svg
   viewBox="0 0 150 150">
  <path
     d="M 75 15 A 60 60 0 0 0 15 75 A 60 60 0 0 0 75 135 A 60 60 0 0 0 135 75 A 60 60 0 0 0 75 15 z M 75 23.5 A 51.5 51.5 0 0 1 126.5 75 A 51.5 51.5 0 0 1 75 126.5 A 51.5 51.5 0 0 1 23.5 75 A 51.5 51.5 0 0 1 75 23.5 z " />
  <path
     d="M 75 52.150391 A 22.85 22.85 0 0 0 52.150391 75 A 22.85 22.85 0 0 0 75 97.849609 A 22.85 22.85 0 0 0 97.849609 75 A 22.85 22.85 0 0 0 75 52.150391 z M 75 69.279297 A 5.7199998 5.7199998 0 0 1 80.720703 75 A 5.7199998 5.7199998 0 0 1 75 80.720703 A 5.7199998 5.7199998 0 0 1 69.279297 75 A 5.7199998 5.7199998 0 0 1 75 69.279297 z " />
</svg>
