<svg viewBox="0 0 150 150">
    <path
        d="M 109.05636,135 C 116,54.999999 79.664198,17.929741 75,17.999999 70.294679,18.070876 33.999999,54.999999 40.960506,135 Z" />

    <path
        d="M 97.980642,135 C 108.11294,72.564574 80.895356,29.904148 75.734864,19.14724 75.050557,17.933087 75.499999,17.999999 75,17.999999 c -0.500001,0 -0.793472,1.114841 -0.793472,1.114841 C 69.083773,29.785347 41.800147,72.499774 51.951316,135" />
    <path d="m 40.583139,130.78796 c 0,0 3.773669,2.81882 11.009679,1.89002" style="fill:none" />
    <path d="m 40.026523,118.51903 c 0,0 2.990632,3.60724 10.245511,2.67843" style="fill:none" />
    <path d="m 40.120864,106.93052 c 0,0 2.669871,3.07803 9.603988,2.81883" style="fill:none" />
    <path d="m 40.960506,94.693996 c 0,0 2.698173,3.639636 9.028502,3.142831" style="fill:none" />
    <path d="m 42.837906,81.431463 c 0,0 1.547204,3.078031 8.405847,3.542436" style="fill:none" />
    <path d="m 45.498343,69.508144 a 11.96253,13.694537 0 0 0 7.717152,4.05004" style="fill:none" />
    <path d="m 49.432392,57.044819 a 9.2360545,10.573306 0 0 0 6.952985,3.790838" style="fill:none" />
    <path d="m 54.338162,45.553504 a 7.9435729,9.0936909 0 0 0 5.849186,3.823239" style="fill:none" />
    <path d="m 59.14959,36.567815 a 5.6605033,6.4800648 0 0 0 5.028413,2.829628" style="fill:none" />
    <path d="m 64.253477,28.705336 a 4.7831253,5.4756548 0 0 0 3.773669,2.397624" style="fill:none" />
    <path d="m 69.68756,21.642065 c 0,0 0.443406,1.144812 2.528358,1.339214" style="fill:none" />
    <path
        d="m 74.961262,107.70813 c 15.566384,0.0756 19.302316,-12.538929 19.302316,-12.538929 0,-39.657997 -19.302316,-69.304294 -19.302316,-69.304294 0,0 -19.292882,29.635497 -19.292882,69.304294 0,0 3.726498,12.625329 19.292882,12.538929 z" />
    <path
        d="m 93.15978,135 c 2.424582,-7.32247 1.839664,-31.08271 1.839664,-31.08271 0,0 -3.509512,10.1089 -20.038182,10.1089 -16.52867,0 -20.028747,-10.0657 -20.028747,-10.0657 0,0 -0.584919,23.76024 1.839663,31.08271" />
    <path
        d="M 86.065283,60.889658 C 83.282202,50.510754 79.989676,41.665465 74.961262,33.360182 69.942282,41.665465 66.602586,50.510754 63.866676,60.889658 Z" />
    <path
        d="M 79.989676,56.699216 A 37.595176,43.03843 0 0 0 74.961262,42.929078 37.595176,43.03843 0 0 0 69.932848,56.699216 Z" />
    <path
        d="m 77.319805,63.881288 v 27.097471 l 13.707852,2.656826 c 0,0 -0.169815,-19.332193 -4.084996,-29.743497 z" />
    <path d="M 90.188016,96.16281 77.357542,93.635585 V 104.9325 c 0,0 9.141712,-1.26361 12.830474,-8.76969 z" />
    <path
        d="M 90.471041,131.30636 H 77.319805 v -13.42453 c 0,0 10.273813,0.1296 14.755045,-5.30286 0,0 -0.11321,15.78976 -1.603809,18.72739 z" />
    <path d="m 109.34882,130.78796 c 0,0 -3.77367,2.81882 -11.00968,1.89002" style="fill:none" />
    <path d="m 109.90544,118.51903 c 0,0 -2.99064,3.60724 -10.245515,2.67843" style="fill:none" />
    <path d="m 109.81109,106.93052 c 0,0 -2.64156,3.07803 -9.60398,2.77563" style="fill:none" />
    <path d="m 108.97145,94.693996 c 0,0 -2.74534,3.639636 -9.0285,3.132031" style="fill:none" />
    <path d="m 107.09405,81.431463 c 0,0 -1.5472,3.078031 -8.405845,3.542436" style="fill:none" />
    <path d="m 104.43362,69.508144 a 11.96253,13.694537 0 0 1 -7.717157,4.05004" style="fill:none" />
    <path d="m 100.49957,57.044819 a 9.2360545,10.573306 0 0 1 -6.952989,3.790838" style="fill:none" />
    <path d="m 95.612665,45.553504 a 7.9435729,9.0936909 0 0 1 -5.849187,3.823239" style="fill:none" />
    <path d="m 90.782369,36.567815 a 5.6605033,6.4800648 0 0 1 -5.028414,2.829628" style="fill:none" />
    <path d="M 85.678482,28.705336 A 4.7831253,5.4756548 0 0 1 81.904813,31.10296" style="fill:none" />
    <path d="m 80.244398,21.642065 c 0,0 -0.433972,1.144812 -2.528358,1.339214" style="fill:none" />
    <path d="m 72.612153,63.881288 v 27.097471 l -13.707852,2.656826 c 0,0 0.169815,-19.332193 4.084997,-29.743497 z" />
    <path d="M 59.791113,96.16281 72.621587,93.635585 V 104.9325 c 0,0 -9.188883,-1.26361 -12.830474,-8.76969 z" />
    <path
        d="m 59.460917,131.30636 h 13.151236 v -13.42453 c 0,0 -10.273813,0.1296 -14.755045,-5.30286 0,0 0.11321,15.78976 1.603809,18.72739 z" />
</svg>