<svg viewBox="0 0 150 150">
   <path
      d="m 74.79949,15.795564 c 2.52491,1.740067 5.050352,3.589863 7.430881,5.495429 0.04865,0.05458 0.09734,0.109125 0.145964,0.163701 30.894495,23.949677 13.853596,62.682544 0.362954,95.028656 -1.771151,4.01637 -3.589897,8.19763 -5.069098,12.54137 -3.495644,8.18836 -1.528795,9.10575 -4.645684,0.0289 -1.569269,-4.26992 -3.380231,-8.48347 -5.190138,-12.47756 -13.802796,-32.176392 -31.21744,-70.694982 -0.556521,-95.027463 0.04814,-0.05516 0.09625,-0.110356 0.144387,-0.16549 2.410608,-1.880495 4.869341,-3.816154 7.377262,-5.587518 z" />
   <path
      d="M 75.061623,88.622526 C 77.844078,64.988293 78.72553,39.045518 74.926324,17.819995 71.099912,39.038425 72.113523,64.958832 75.061623,88.622526 Z" />
   <path
      d="m 75.016829,62.818527 c 1.390863,-13.450128 1.831472,-28.214036 -0.06763,-40.293379 -1.890026,12.130272 -1.383354,26.881454 0.06763,40.293379 z" />
</svg>