<svg viewBox="0 0 150 150">
   <path
      d="m 74.994711,134.00821 c 0,0 24.467215,-37.824513 24.467215,-59.007583 0,-21.183071 -24.467215,-58.996365 -24.467215,-58.996365 0,0 -24.456447,37.846936 -24.456447,58.996365 0,21.149428 24.456447,59.007583 24.456447,59.007583 z" />
   <path
      d="m 74.994711,124.21846 c 0,0 6.461412,-1.89515 3.973768,-12.05495 0,0 9.562891,-2.73619 5.987576,-14.510791 0,0 9.153668,-3.364172 4.986057,-13.523972 0,0 4.124535,-1.558733 4.124535,-9.116907 0,-7.558173 -4.124535,-9.116906 -4.124535,-9.116906 4.17838,-10.1598 -4.975288,-13.523972 -4.975288,-13.523972 C 88.53137,40.59636 78.979248,37.860167 78.979248,37.860167 81.456123,27.689153 74.994711,25.81643 74.994711,25.81643 c 0,0 -6.461413,1.895151 -3.973769,12.05495 0,0 -9.552122,2.736194 -5.987576,14.510796 0,0 -9.153668,3.364172 -4.975287,13.523972 0,0 -4.124535,1.558733 -4.124535,9.116906 0,7.558174 4.135304,9.105693 4.135304,9.105693 -4.167612,10.1598 4.986056,13.523972 4.986056,13.523972 -3.586084,11.774601 5.976807,14.510791 5.976807,14.510791 -2.498413,10.1598 3.963,12.05495 3.963,12.05495 z" />
   <path
      d="m 75.488801,104.4933 c -0.04869,-2.52096 -4.318023,-2.71289 -3.502349,1.65345 0.50703,2.99959 4.67843,4.6688 6.32509,-0.5835 a 7.1320449,6.8490974 70.21093 0 0 -3.433803,-7.953038 c -4.80171,-3.134736 -3.063103,-6.572875 -3.063103,-6.572875" />
   <path
      d="m 64.129066,74.944572 c 1.076902,0.47099 1.475356,2.05215 -0.183073,2.84833 -1.658429,0.79619 -3.316858,-1.03168 -3.230706,-2.61284 -0.269226,-2.24279 3.047633,-5.887304 6.687562,-3.128683" />
   <path
      d="m 75.427242,78.881034 c -0.839984,-0.874685 0.236918,-2.3437 2.08919,-1.547519 1.496894,0.740118 1.64766,3.016541 0.44153,4.485563 -1.386964,1.693161 -3.457963,1.680921 -4.457963,-0.319079" />
   <path
      d="m 81.543037,62.96384 c 0.979981,-0.87469 0,-2.31007 -1.076902,-2.24279 -0.804071,-0.01571 -1.556774,0.410268 -1.9815,1.12139 -0.333839,0.47099 -1.076902,3.76788 3.295321,4.182792 4.609141,0.347632 5.890654,-5.920942 2.42303,-8.242222 -1.123508,-0.82534 -3.688243,-1.676472 -6.202987,-1.283011 -2.415305,0.377903 -4.779816,1.974083 -6,2.5" />
   <path
      d="m 84.36896,76.459396 c -2.94925,-2.153804 -3.89122,1.787658 -0.94197,2.326109 a 2.769835,2.6599482 0 0 0 3.57724,-2.563027 c 0.0673,-0.839984 0,-4.566065 -6.16765,-4.135304 -4.833183,0.473837 -6.414344,-0.22615 -7.490879,-3.166092" />
   <path
      d="m 70.270092,61.803696 c -1.249206,1.715728 -0.269225,3.117468 1.378435,2.769838 1.64766,-0.34763 2.519951,-3.117469 0.936905,-4.765914 -1.583046,-1.648444 -5.987576,-1.368096 -6.827559,3.509954 -0.740839,3.847888 0.524304,7.817168 3.327627,10.44015 2.08919,1.89515 2.914499,4.742275 4.414499,7.742275" />
   <path
      d="m 79.487682,90.734466 a 1.6035887,1.53997 0 0 0 -1.278385,2.563027 2.5791986,2.4768748 0 0 0 4.025793,0 c 1.43538,-1.389204 1.469022,-6.149111 -3.263247,-6.095266 -4.732269,0.05384 -5.427531,1.787657 -5.427531,1.787657" />
   <path
      d="m 75.488801,46.065919 c -0.04869,2.52096 -4.318023,2.71289 -3.502349,-1.65345 0.50703,-2.99959 4.67843,-4.6688 6.32509,0.5835 0.706757,3.100663 -0.700148,6.359195 -3.433803,7.953028 -4.80171,3.134712 -3.37774,6.051002 -3.37774,6.051002" />
   <path
      d="m 70.270092,88.779643 c -1.249206,-1.715728 -0.269225,-3.117468 1.378435,-2.769838 1.64766,0.34763 2.519951,3.117469 0.936905,4.765914 -1.583046,1.648444 -5.987576,1.368096 -6.827559,-3.509954 A 10.661331,11.101768 0 0 1 69.0855,76.825615 c 2.08919,-1.89515 5.815271,-4.55284 4.372223,-7.6591" />
</svg>