<svg viewBox="0 0 150 150">
   <path
      d="m 120.14226,134.95765 a 9.6910656,10.165755 0 0 0 5.84423,-2.0435 C 150.78131,113.24225 117.09685,63.991366 75.003591,15.956236 32.947325,63.991366 -0.7618014,113.24225 24.033024,132.91415 a 9.6910656,10.165755 0 0 0 5.844231,2.0435 z" />
   <path
      d="m 108.65107,134.94471 c 8.31015,-0.54321 17.26144,-4.85007 15.60927,-11.64018 -1.84944,-7.00997 -10.88703,-6.03995 -19.30815,-2.21163 10.01163,-5.17341 22.27959,-15.79184 16.94087,-23.978764 -5.54832,-7.113441 -16.54632,3.556724 -25.522273,12.933534 C 105.34674,98.873096 115.92553,80.882556 106.67833,75.489274 96.210503,70.535732 89.20729,87.129451 83.942551,103.29636 c 6.510028,-23.784758 6.312755,-55.433106 -8.93896,-55.433106 -15.251716,0 -15.43666,31.648348 -8.93896,55.407246 -5.26474,-16.166916 -12.3296,-32.760635 -22.735783,-27.807093 -9.2472,5.393282 1.331597,23.383822 10.307546,34.558393 -8.975949,-9.33801 -19.973952,-20.008172 -25.522272,-12.933531 -5.338717,8.186921 6.929235,18.844151 16.94087,23.978761 -8.408787,-3.88006 -17.458713,-4.79834 -19.308153,2.21164 -1.639837,6.7901 7.299123,11.09697 15.609273,11.64017" />
   <line x1="114.12522" y1="104.24802" x2="101.43826" y2="115.40215" />
   <line   x1="101.32339" y1="85.1278" x2="90.778885" y2="106.15176" />
   <line x1="115.2661" y1="125.97654" x2="107.64005" y2="128.40034" />
   <line x1="75.015923" y1="64.999977" x2="75.015923" y2="102.00301" />
   <circle cx="75" cy="60" r="5" />
   <circle cx="47.5" cy="82.499992" r="2.5" />
   <circle cx="102.5" cy="82.499992" r="2.5" />
   <circle cx="115.91251" cy="102.5" r="2.5" />
   <circle cx="34.087502" cy="102.5" r="2.5" />
   <circle cx="32.5" cy="124.85418" r="2.5" />
   <circle cx="117.5" cy="124.85418" r="2.5" />
   <line x1="35.93515" y1="104.14846" x2="48.644249" y2="115.47176" />
   <line x1="48.803955" y1="84.632996" x2="59.197044" y2="106.12881" />
   <line x1="34.719425" y1="126.0049" x2="42.379471" y2="128.40034" />
   <path d="m 108.65107,134.94471 a 33.721456,35.373205 0 0 0 -67.294958,0" />
   <path d="m 98.183239,134.94471 a 23.290614,24.431438 0 0 0 -46.334637,0" />

</svg>