<svg viewBox="0 0 140 140">
   <path
      d="M 70.86,124.54 C 89,104.1 103.71,96.84 109.18,84 c 3.63,-8.56 3,-17.23 -3.77,-26.79 C 99,47.3 75.54,36.1 70.86,28.86 66.19,36.1 42.78,47.3 36.32,57.17 29.51,66.73 28.92,75.4 32.55,83.96 38,96.84 52.74,104.1 70.86,124.54 Z" />
   <path style="fill:none;" d="M 61,109.9 C 54.77,93.21 52.19,91.18 48.22,93 c -3.31,2 -2.9,5.55 2.28,11.54" />
   <path d="m 66.5,107.79 c 0.5,-15.71 -4,-20.74 -7.92,-19.62 -3.92,1.12 -4.85,7.87 3.83,21" />

   <path style="fill:none;" d="m 83.23,111.85 c -3.24,-3.24 -8.16,-4.52 -12.37,-4.52 -4.21,0 -9.13,1.28 -12.37,4.52" />
   <path d="M 73.28,107.47 C 78,92.49 75,86.69 70.86,86.69 c -4.14,0 -7.18,5.8 -2.42,20.78" />
   <path style="fill:none;" d="M 80.73,109.9 C 87,93.21 89.54,91.18 93.51,93 c 3.31,2 2.9,5.55 -2.28,11.54" />
   <path d="m 75.23,107.79 c -0.5,-15.71 4,-20.74 7.92,-19.62 3.92,1.12 4.85,7.87 -3.83,21" />
   <path style="fill:none;"
      d="m 92.23,92.58 c 9,-9.5 11.16,-18.52 8.19,-27.67 -3.83,-12 -29.2,-25 -29.56,-36 -0.36,11 -25.72,24.09 -29.56,36 -3,9.15 -0.77,18.18 8.19,27.67" />
   <path style="fill:none;"
      d="m 111.37,73.08 c 4.84,-0.39 11.4,-2.7 9.17,-9.94 -1.58,-4.47 -6.74,-5.68 -12.39,-1.55 4.72,-2.74 9.3,-6.92 4.64,-12.31 -3.85,-4.28 -8.06,-1.33 -11.79,2.92 3.17,-4.21 6.77,-8.7 1.45,-13.2 -4.24,-3.35 -8.51,-0.73 -12.63,4.64 3.56,-4.43 5.55,-10.23 0,-13.12 -4.43,-2.2 -8.82,0.85 -11.5,5.17 6.68,-10.28 -5.18,-12.45 -7.46,-18.5 -2.27,6 -14.17,8.22 -7.44,18.49 -2.68,-4.32 -7.07,-7.36 -11.5,-5.17 -5.55,2.89 -3.56,8.69 0,13.12 -4.12,-5.38 -8.4,-8 -12.63,-4.64 C 34,43.5 37.57,48 40.74,52.2 c -3.75,-4.25 -8,-7.18 -11.82,-2.92 -4.66,5.39 -0.08,9.57 4.64,12.31 -5.64,-4.13 -10.81,-2.92 -12.39,1.55 -2.23,7.24 4.33,9.55 9.17,9.94" />
</svg>