<svg viewBox="0 0 150 150">
   <path
      d="m 75.003164,133.98524 c 16.282955,-22.36122 29.487046,-30.3036 34.397066,-44.350469 3.25839,-9.364577 2.69288,-18.849494 -3.38405,-29.308064 C 100.26239,49.485239 79.204059,37.232521 75.003164,29.312014 70.811245,37.232521 49.797795,49.485239 43.999125,60.282947 37.886284,70.741518 37.356684,80.226434 40.61507,89.591012 45.507138,103.68164 58.738161,111.62402 75.003164,133.98524 Z" />
   <path
      d="m 86.106811,120.10247 c -2.908312,-3.54454 -7.324637,-4.94485 -11.103647,-4.94485 -3.77901,0 -8.195335,1.40031 -11.103647,4.94485" />
   <path
      d="M 83.499999,117.5 C 91.578644,103.97689 104.20297,93.637058 101.53702,80.612171 98.099109,63.530351 75.32631,45.025047 75.003164,29.366714 74.680018,45.025047 51.916195,63.658466 48.469307,80.612171 45.776426,93.637058 58.457261,103.99113 66.499999,117.5" />
   <path style="fill:none;"
      d="M 108.47568,65.118395 C 117.61453,49.821847 97.048568,38.326058 92.022173,45.481226 100.39188,33.473508 87.621051,25.55924 81.699462,36.783984 m 0,0 c 5.996149,-11.246245 0.230933,-20.146088 -6.696298,-20.238865 -6.87233,-0.09204 -12.719376,8.99262 -6.678346,20.227925 m 0,0 C 60.157076,23.326391 51.989552,36.077043 58.002107,45.470286 45.220168,37.14294 33.481602,58.641363 41.521674,65.118395" />
   <path
      d="M 79.999999,116 C 84.567561,104.94684 91.511093,97.566489 90.003795,86.920555 88.060047,72.958673 75.184601,57.833303 75.001898,45.034913 74.819196,57.833303 61.948825,73.063389 59.999999,86.920555 c -1.52252,10.645934 5.452741,18.037925 10,29.079445" />
   <path 
      d="m 76.999999,115 c 2.92882,-8.73266 8.587391,-13.53032 7.620878,-21.941255 C 83.374504,82.028011 75.118486,70.078051 75.001333,59.966547 74.884181,70.078051 66.631417,82.110743 65.381787,93.058745 64.405514,101.46968 70.084197,106.27653 72.999999,115" />
</svg>