<svg viewBox="0 0 150 150">
	<path
		d="m 135.22526,109.59125 -60.401216,0.0669 -60.401219,0.0669 L 44.565538,57.382543 74.708252,5.0401276 104.96676,57.31569 Z"
		transform="translate(0,18.520839)" />
	<path d="M 74.785447,93.306285 135.22526,128.11209" />
	<path d="m 74.708252,23.560966 0.0772,69.745319" />
	<path d="M 14.422825,128.24579 74.785444,93.306285 104.96676,75.836529" />
	<path style="fill:none;"
	d="m 44.565538,75.903383 30.219914,17.402897 0.0386,34.87266" />
	<path
		d="m 59.675495,84.60483 15.089507,-9.772729 15.111098,9.739304 0.08293,17.472965 -15.154274,8.69824 -15.10996,-8.70145 -0.01929,-17.43633" />
	<path d="M 74.765002,74.832101 52.54976,62.038888" />
	<path d="M 74.765002,74.832101 96.951865,61.989747" />
	<path d="M 89.95902,102.04437 112.56323,88.960446" />
	<path d="M 105.02465,128.14552 74.804751,110.74261 44.623435,128.21237" />
	<path d="M 59.694796,102.04116 37.029863,88.988978" />
</svg>