<svg viewBox="0 0 150 150">
   <path
      d="M 74.995939,15.000118 C 67.604284,43.326502 32.9045,60.193588 24.46569,85.293502 17.094566,107.20137 18.141498,126.81302 32.955611,134.506 c 0.628545,0.31864 1.311891,0.47933 2.001945,0.47077 l 40.048718,0.0119 h 5.174362 l -10.307382,-0.0119 C 58.292994,118.18996 39.382757,108.4534 40.019263,97.763542 40.115712,96.213279 41.086789,94.905196 42.431519,94.514128 53.3781,91.328845 65.438154,115.01668 72.499999,135 63.89176,105.48568 65.616344,57.667798 75.03728,57.667798 c 9.44474,0 11.657288,47.803532 2.962719,77.332202 7.105303,-20.07704 18.655003,-43.672651 29.642531,-40.485872 1.34493,0.390858 2.31625,1.69899 2.41277,3.249414 0.61597,10.678358 -18.30467,20.426808 -29.874664,37.225118 h 34.864024 c 0.69005,0.009 1.3734,-0.15214 2.00194,-0.47077 14.81413,-7.73894 15.86097,-27.30502 8.47959,-49.224388 C 117.06685,60.182109 82.408131,43.315023 74.995939,15.000118 Z m -24.53597,53.185384 c 1.859698,5.2e-5 3.367252,1.686218 3.367236,3.766179 1.6e-5,2.079961 -1.507538,3.766126 -3.367236,3.766178 -1.8599,2.67e-4 -3.367769,-1.685991 -3.367753,-3.766178 -1.6e-5,-2.080187 1.507853,-3.766446 3.367753,-3.766179 z m 49.102946,0 c 1.859905,-2.69e-4 3.367775,1.685991 3.367755,3.766179 2e-5,2.080187 -1.50785,3.766447 -3.367755,3.766178 -1.859698,-5.2e-5 -3.367252,-1.686217 -3.367236,-3.766178 -1.6e-5,-2.079961 1.507538,-3.766127 3.367236,-3.766179 z" />
   <path style="fill:none;" d="M 52.020232,75.292783 C 60.879979,93.756084 66.176005,111.39789 72.499999,134.5" />
   <path style="fill:none;" d="M 98.002631,75.292783 C 89.153151,93.756084 84.293189,111.87494 77.999999,135" />

</svg>