<svg viewBox="0 0 150 150">
   <path
      d="m 75.013277,14.500945 c -13.042013,14.10582 -31.006459,15.718708 -50.584228,33.01789 -11.011387,9.729811 -8.901391,26.155139 0,37.321158 17.864875,22.409927 41.026639,29.061107 50.573305,49.660957 9.546666,-20.56632 32.713636,-27.24688 50.573296,-49.660957 8.90467,-11.175469 11.00454,-27.598303 0,-37.321158 C 106.0052,30.227721 88.044367,28.606765 75.013277,14.500945 Z" />
   <path
      d="m 75.013277,26.281875 c -15.244165,0 -24.659115,12.493016 -40.196488,26.233231 -8.746931,7.735201 -9.584069,27.231034 0,29.664678 31.8331,-40.112 25.18321,2.820215 24.303582,16.229508 C 56.143837,107.33829 65.517167,115.02103 74.999999,115 84.492242,114.9789 93.852865,107.29133 90.873413,98.353406 84.999999,34.999999 109.15283,82.522762 115.20977,82.168607 c 9.58324,-2.436892 8.74887,-21.931665 0,-29.664679 C 99.642283,38.744029 90.250016,26.281875 75.013277,26.281875 Z" />
   <path
      d="m 75.013277,59.873015 c -7.393712,0 -7.646072,-29.586435 0,-29.586435 7.646071,0 7.398317,29.586435 0,29.586435 z" />
   <path
      d="m 75.013277,78.140247 c -7.393748,0 -7.646072,29.586473 0,29.586473 7.646071,0 7.398354,-29.586473 0,-29.586473 z" />

</svg>