<svg viewBox="0 0 150 150">
   <path
      d="M 116.87664,134.93691 C 163.78625,51.406196 83.765315,81.529105 75.010693,14.830716 66.267558,81.493393 -13.787842,51.4181 33.12177,134.93691 Z" />
   <path
      d="m 116.87689,134.9375 c -2.58505,-5.9425 -12.92521,-28.27441 -41.87769,-28.27441 -28.952473,0 -39.292641,22.37946 -41.877684,28.27441" />
   <path
      d="m 105.86993,134.9577 c -5.7398,-12.71147 -19.04569,-18.53671 -30.85924,-18.53671 -11.813553,0 -25.119452,5.82524 -30.859251,18.53671" />

   <path style="fill:none;" d="M 58.291097,109.56902 C 38.658261,93.236836 59.759538,37.079484 66.66189,66.170101" />
   <path style="fill:none;" d="M 47.586263,115.58873 C 25.335807,100.70168 48.261648,49.066599 52.103327,72.343336" />
   <path style="fill:none;" d="M 39.325618,124.14593 C 24.383113,118.82009 28.968722,72.094961 38.183829,89.665413" />
   <path style="fill:none;" d="m 60.190915,72.493719 c -4.69698,11.265014 -3.122536,25.621584 2.423061,35.666881" />
   <path style="fill:none;" d="m 45.751672,82.393922 c -4.36179,7.346621 -3.491469,23.152998 6.901274,29.831358" />
   <path style="fill:none;" d="m 34.521794,95.852063 c -1.893386,7.221937 1.302273,20.617497 8.951381,23.432897" />
   <path style="fill:none;" d="m 82.788794,107.26922 c 9.692762,-78.521171 -24.517356,-80.057927 -15.567699,0" />
   <path style="fill:none;" d="M 91.991543,109.64622 C 111.62438,93.314049 90.612979,37.356566 83.710627,66.447183" />
   <path style="fill:none;" d="M 102.38916,115.58873 C 124.67435,100.69865 102.0813,49.020566 98.240234,72.293597" />
   <path style="fill:none;" d="m 110.68427,124.14593 c 14.94253,-5.32585 10.51574,-52.374538 1.30065,-34.804087" />
   <path style="fill:none;" d="m 90.39595,72.493719 c 4.004135,11.741827 2.292954,25.904475 -3.000037,35.666881" />
   <path style="fill:none;" d="m 104.2697,82.393922 c 4.7806,7.320033 2.58543,22.915928 -6.912758,29.831358" />
   <path style="fill:none;" d="m 115.48808,95.852063 c 1.87627,8.065437 -2.35122,20.473367 -8.95136,23.432897" />
   <path style="fill:none;" d="m 75.010691,64.720923 -0.01149,41.942167" />

   <ellipse cx="60.190914" cy="70.247452" rx="2.1714354" ry="2.2462647" />
   <ellipse cx="45.751675" cy="80.872643" rx="1.4706018" ry="1.5212798" />
   <ellipse cx="34.521793" cy="94.90126" rx="0.91912609" ry="0.95079988" />
   <ellipse cx="90.39595" cy="70.247452" rx="2.1714354" ry="2.2462647" />
   <ellipse cx="75.010689" cy="61.238617" rx="3.3662994" ry="3.4823046" />
   <ellipse cx="104.2697" cy="80.872643" rx="1.4706018" ry="1.5212798" />
   <ellipse cx="115.48808" cy="94.90126" rx="0.91912609" ry="0.95079988" />
</svg>