<svg viewBox="0 0 150 150">
   <path
      d="m 75.052734,32.980469 c -3.437877,4.460412 -6.1581,8.923809 -8.197265,13.390625 l 0.0078,-0.0918 c -2.86475,-2.084388 -7.997248,-6.371472 -9.820312,-3.519531 -2.980732,4.662955 -4.720245,9.466888 -5.544922,14.263672 l -0.0039,-0.04297 c -3.066664,-2.082712 -7.06713,-5.758992 -9.201172,-2.91211 -2.794528,3.727994 -3.586836,9.143338 -2.951172,15.22461 l -0.01758,-0.07617 c -2.994197,-1.442271 -9.696151,-3.627794 -10.72461,-0.845703 -1.376334,3.723129 -0.879783,8.607569 0.810547,13.90039 h -0.0078 C 23.01766,78.338017 18.980806,78.567286 16.941406,81.953125 8.7576403,95.539915 44.021484,121.28711 44.021484,121.28711 49.192284,110.67154 62.106362,99.194601 69.513672,93.152344 h 10.96875 c 7.407311,6.042257 20.321388,17.519196 25.492188,28.134766 0,0 35.16737,-25.696756 27.08008,-39.333985 -2.00506,-3.38103 -6.01572,-3.771359 -12.40039,0.162109 h -0.008 c 1.65014,-5.232524 2.12449,-10.057726 0.76172,-13.74414 -1.02846,-2.782091 -7.73432,-0.565319 -10.72851,0.876953 l -0.0156,0.06836 c 0.64019,-6.090834 -0.15109,-11.51525 -2.94922,-15.248047 -2.13404,-2.846882 -6.13646,0.815725 -9.203121,2.898438 l -0.0039,0.04883 C 97.682579,52.221423 95.942014,47.420204 92.962891,42.759766 91.147033,39.919098 86.05478,44.156663 83.183594,46.25 81.150254,41.823731 78.449715,37.400448 75.052734,32.980469 Z" />
   <path style="fill:none;"
      d="M 66.863132,46.27837 C 63.998379,44.19398 58.866984,39.908156 57.043918,42.760099 44.255349,62.766103 54.071734,85.372703 62.801149,98.83391" />
   <path style="fill:none;"
      d="m 51.493384,56.980089 c -3.066667,-2.082714 -7.066259,-5.758146 -9.200303,-2.911261 -8.353215,11.143468 1.100809,37.32427 13.517931,51.495692" />
   <path style="fill:none;"
      d="M 39.325151,69.216412 C 36.330951,67.77414 29.62748,65.589272 28.59902,68.371366 24.424961,79.662634 37.405489,101.6092 49.03003,113.3659" />
   <path style="fill:none;"
      d="m 120.65414,82.115454 c 6.38468,-3.933472 10.39556,-3.543719 12.40062,-0.162686 8.0873,13.637243 -27.07989,39.334712 -27.07989,39.334712 -7.408442,-15.20942 -30.976761,-32.451137 -30.976761,-32.451137 0,0 -23.568315,17.241717 -30.976759,32.451137 0,0 -35.2636681,-25.747908 -27.079894,-39.334712 2.039402,-3.385842 6.076271,-3.615414 12.460961,0.318057" />
   <path style="fill:none;"
      d="M 80.656266,93.152234 C 91.609313,73.0369 90.42044,52.976197 75.05315,32.981053 59.641826,52.976197 58.541019,73.0369 69.450032,93.152234" />
   <path style="fill:none;"
      d="m 74.998649,54.968845 c 6.537451,0 5.346358,21.980677 0,33.911485 -5.346361,-11.930808 -6.533444,-33.911485 0,-33.911485 z" />
   <path style="fill:none;"
      d="m 83.144094,46.27837 c 2.864752,-2.08439 7.996148,-6.370214 9.819213,-3.518271 12.788573,20.006004 2.972184,42.612604 -5.757229,56.073811" />
   <path style="fill:none;"
      d="m 98.511659,56.967488 c 3.066661,-2.082715 7.068441,-5.745545 9.202491,-2.89866 8.35321,11.143468 -1.10082,37.32427 -13.517937,51.495692" />
   <path style="fill:none;"
      d="m 110.67876,69.248595 c 2.9942,-1.442273 9.70098,-3.659323 10.72944,-0.877229 4.17407,11.291268 -8.80646,33.237834 -20.43101,44.994534" />
   \
</svg>