<svg viewBox="0 0 150 150">
   <path
      d="M 90.390444,92.615738 C 105.15968,96.816815 121.53393,82.755835 134.99999,75 121.53393,67.244165 105.15968,75.703709 90.390444,79.904786 103.63932,72.472111 113.17194,47.746858 117.08144,32.881508 102.31221,36.867145 88.761485,57.499041 81.268272,70.533152 85.394969,55.883242 82.656104,28.357271 74.945697,14.999999 67.23529,28.357271 64.327097,55.883242 68.453793,70.533152 60.960581,57.499041 47.579182,36.867145 32.809952,32.881508 36.828052,47.746858 46.191351,72.472111 59.440219,79.904786 44.670989,75.703709 28.466061,67.244165 14.999998,75 c 13.466063,7.755835 29.670991,21.816815 44.440221,17.615738 -13.248868,7.540392 -22.612167,9.745122 -26.52167,24.502752 14.769231,-3.98563 28.150629,-2.09701 35.643842,-15.13112 -4.126697,14.64991 -1.218504,19.65536 6.491903,33.01263 7.710407,-13.35727 10.449272,-18.36272 6.322576,-33.01263 7.493212,13.03411 21.04394,11.14549 35.81317,15.13112 -4.0181,-14.75763 -13.55072,-16.96236 -26.799596,-24.502752 z" />
   <circle cx="75" cy="86.587502" r="15.000001" />
</svg>