<svg viewBox="0 0 150 150">
   <path
      d="m 36.092816,36.125394 c -6.235109,5.622982 -14.69553,8.86859 -21.085391,14.029084 0.858509,8.092646 4.518895,16.367719 4.992574,24.845521 -0.451151,8.477352 -4.166593,16.772056 -5.0036,24.863876 6.403588,5.166735 14.879048,8.414195 21.129113,14.043255 5.634321,6.24533 8.888905,14.71806 14.061019,21.1173 8.091113,-0.84381 16.413667,-4.48905 24.813468,-5.02443 8.478195,0.46655 16.725574,4.19694 24.895902,4.97162 5.155119,-6.3942 8.393619,-14.85734 14.011349,-21.09718 6.23512,-5.62298 14.69553,-8.8686 21.0854,-14.029088 C 134.05697,91.675601 130.3965,83.400695 130,74.999999 c 0.45115,-8.477354 4.16666,-16.772222 5.00367,-24.864041 -6.40358,-5.166737 -14.87906,-8.414185 -21.12911,-14.04326 -5.63433,-6.245324 -8.8889,-14.718063 -14.061023,-21.117299 -8.091113,0.843809 -16.41374,4.489216 -24.813538,5.0246 C 66.5218,19.53345 58.274502,15.802888 50.10417,15.028214 44.871878,21.345305 41.710555,29.885559 36.092816,36.125394 Z" />
</svg>