<svg viewBox="0 0 150 150">
   
   <path
      d="m 74.982986,113.665 61.122084,6.32116 C 131.85181,84.328071 117.92675,29.999999 74.982986,29.999999 c -42.91601,0 -56.902854,54.328072 -61.088055,89.974881 z" />
   <path style="fill:none;"
      d="M 126.92938,119.0267 C 120.88031,86.578102 109.91255,40.253898 74.994328,40.249301 40.074244,40.244703 29.100783,86.570577 23.059273,119.0267" />
   <path
      d="m 87.379801,115.04211 c -1.485803,-8.52227 -3.585415,-19.290808 -12.396815,-19.290808 -8.8114,0 -10.911012,10.768538 -12.396815,19.290808" />
   <path
      d="m 81.640745,114.35356 c -0.873335,-3.81527 -2.175305,-10.40427 -6.646417,-10.38476 -4.488048,0.0196 -5.784424,6.56949 -6.646417,10.38476" />
   <ellipse cx="115.62141" cy="109.16118" rx="4.0944648" ry="4.0748873" />
   <ellipse cx="101.46619" cy="76.753975" rx="4.0944648" ry="4.0748873" />
   <ellipse cx="74.994331" cy="50.555042" rx="4.9904838" ry="4.9666224" />
   <ellipse cx="34.355915" cy="109.16118" rx="4.0944648" ry="4.0748873" />
   <ellipse cx="48.511116" cy="76.753975" rx="4.0944648" ry="4.0748873" />
   <path
      d="m 74.982986,87.736981 c 12.520411,0 16.842882,16.164099 18.680287,27.858239 8.252517,-2.44188 3.170315,-13.23292 -2.439891,-11.04694 7.572943,-4.922213 1.271753,-12.544779 -4.241246,-9.576358 6.923735,-6.49983 -3.534785,-12.391844 -7.495803,-6.4521 3.561391,-5.169802 -0.556328,-8.808452 -4.503347,-8.808452 -3.947019,0 -7.681383,3.49335 -4.119992,8.67444 -5.823349,-8.594845 -13.905469,2.028521 -7.481372,5.99416 -8.325224,-4.543646 -10.932538,7.43226 -4.591368,9.99149 -8.363266,-1.53751 -8.27208,9.68998 -2.476213,11.15603 1.814721,-11.62641 6.157923,-27.790509 18.668945,-27.790509 z" />
</svg>