<svg viewBox="0 0 150 150">
    <path
        d="m 95.363171,20.1073 c -5.337342,3.423517 -14.690543,9.925844 -21.82089,10.165788 -3.314108,0.116553 -6.550065,0.595204 -9.665043,1.401464 -15.379587,3.980754 -27.805879,15.94956 -32.079696,31.774805 -4.911702,18.187232 1.599494,36.856433 15.508098,47.624483 10.329853,6.00403 28.975131,16.88946 32.30087,21.32945 1.766614,-3.82764 23.27352,-21.91959 23.27352,-21.91959 l -0.002,5.1e-4 c 7.33185,-5.77028 12.93705,-13.869668 15.55874,-23.576336 l 5.2e-4,-0.001 c 4.17345,-15.453062 -0.23426,-31.20298 -10.311,-42.175203 -1.84381,-2.842527 -8.310628,-5.773099 -9.700186,-9.484176 0,0 -3.47938,-11.808019 -3.062863,-15.140161 z m -8.479069,14.138672 c 0.705648,-0.0012 3.758103,2.035044 9.760128,4.987809 6.29851,3.823901 13.11321,13.420125 16.36748,20.717598 3.09138,6.932372 4.36916,15.207777 3.24166,22.71541 -0.82893,5.519716 -3.97045,11.632606 -7.23005,16.16077 -3.09233,4.295821 -7.17489,7.772191 -11.464934,11.656651 -4.226645,4.35676 -14.31717,15.23852 -17.951876,14.35778 7.706726,-11.75664 15.756958,-23.64592 21.04781,-37.934116 2.89726,-8.845522 2.89698,-16.450677 2.89698,-17.895032 0,-6.536878 -2.40015,-10.406845 -5.125266,-15.633671 C 90.393341,39.208075 85.783293,34.247918 86.884102,34.245972 Z m -11.796179,0.509529 c 1.544071,0.126682 3.168486,0.556886 4.400248,1.49655 8.409754,6.415482 15.12015,16.040255 17.79323,26.274365 1.996254,7.642827 0.177523,16.019009 -1.995227,23.613546 -2.911672,10.177329 -8.76458,19.351898 -14.467334,28.270108 -1.403853,2.1954 -4.822962,6.1526 -4.822962,6.1526 0,0 -10.148327,-4.20246 -14.966011,-6.81819 C 55.137863,110.54545 48.512455,107.95507 44.067594,102.93584 39.382915,97.645799 36.327576,90.736776 34.921383,83.811938 33.706711,77.830251 34.024858,71.373576 35.752856,65.519515 37.806453,58.5624 41.767745,52.020906 46.728414,46.728414 c 3.932175,-4.195201 8.958978,-7.518936 14.301453,-9.644889 4.413251,-1.756183 9.324124,-2.716416 14.058056,-2.328024 z" />
</svg>