<svg viewBox="0 0 150 150">
   <path
      d="M 74.625655,15.773989 C 52.27338,35.070764 42.074424,37.402233 37.699336,59.017574 34.596849,76.821843 45.246853,98.974502 75.338898,134.0986 105.00539,98.626361 115.38749,76.334849 112.0706,58.569275 107.43524,37.008247 97.197265,34.799969 74.625655,15.773989 Z" />
   <path style="fill:none;"
      d="m 83.1302,111.871 c -0.594542,-3.75155 3.705354,-4.92454 5.460728,-8.03823 1.590762,-2.8217 0.222754,5.97547 -2.885561,9.25429" />
   <path style="fill:none;" d="m 94.703269,81.905075 c 0,0 -5.481199,16.088601 -5.624392,21.378045" />
   <path style="fill:none;" d="m 93.787962,63.666202 c 0,0 4.503984,-15.723823 12.691888,-10.883067" />
   <path style="fill:none;" d="m 81.899058,54.790746 c 1.922424,-8.318759 15.397076,-11.334066 15.05572,1.744571" />
   <path style="fill:none;" d="M 87.380993,48.334145 C 78.735377,41.141638 85.702629,37.115078 89.41325,31.127972" />
   <path style="fill:none;" d="m 94.505526,49.100184 c 1.458948,-0.0088 4.908357,-3.292598 6.277984,-6.500562" />
   <path style="fill:none;"
      d="M 74.643559,18.744175 C 54.619848,37.073046 45.423929,39.277697 41.567492,59.803243 38.786526,76.724141 48.344291,97.760469 75.309322,131.12848 101.87013,97.437823 111.16187,76.2758 108.18884,59.40166 104.03857,38.924376 94.875104,36.830393 74.643559,18.744175 Z" />
   <path style="fill:none;"
      d="m 70.28728,124.80762 c 1.754194,-1.35749 2.740394,-4.42367 4.968868,-4.4371 2.228475,-0.0134 3.251567,3.04063 5.021999,4.37688" />
   <path style="fill:none;"
      d="m 66.616638,120 a 14.488991,14.006141 89.654634 0 1 8.612217,-4.1572 14.488991,14.006141 89.654634 0 1 8.661709,4.05308" />
   <path style="fill:none;"
      d="m 62.791862,114.79485 c 3.259262,-3.41255 8.344936,-3.9624 12.406644,-3.98689 4.061706,-0.0245 9.176984,0.46389 12.442134,3.8371" />
   <path style="fill:none;"
      d="m 70.310228,111.18759 c -6.00233,-10.16667 0.690087,-18.19457 4.780273,-18.297351 4.020711,-0.101035 10.879547,7.951801 5.000211,18.190091" />
   <path style="fill:none;"
      d="m 73.868092,110.84013 c -1.286513,-4.3028 -1.720978,-8.7194 1.219581,-8.73713 2.940562,-0.0177 2.571043,4.40373 1.324823,8.7218" />
   <path style="fill:none;"
      d="m 67.268535,111.96661 c 0.549267,-3.75844 -3.764455,-4.87951 -5.55724,-7.97182 -1.624663,-2.80232 -0.150704,5.97773 2.996914,9.21884" />
   <path style="fill:none;"
      d="m 47.715224,90.217773 c 7.040957,-5.355169 11.334868,4.097336 11.334868,4.097336 1.154684,-15.631207 15.988371,-10.057738 16.040409,-1.42487 -0.05233,-8.681166 14.701347,-14.445054 16.044381,1.171095 0,0 4.191324,-9.503652 11.284648,-4.233681" />
   <path style="fill:none;" d="m 55.311714,82.142521 c 0,0 5.528316,16.700952 5.735264,21.988279" />
   <ellipse style="fill:none;" cx="96.164452" cy="79.243156" rx="2.788394" ry="2.899368" />
   <path style="fill:none;"
      d="m 48.447484,89.706238 c -3.291255,-9.639667 -2.785016,-15.343603 2.785379,-18.128359 4.779823,-2.389533 11.777146,3.889403 13.86251,12.920542 -1.584914,-11.207542 6.09582,-16.723533 9.8436,-16.746124 3.736696,-0.02252 11.494455,5.400405 10.044761,16.62624 1.975976,-9.115992 8.906233,-15.452249 13.693928,-13.1108 5.594498,2.736021 6.178078,8.342378 3.003718,18.093463" />
   <path style="fill:none;"
      d="m 68.126348,62.577232 c -1.01925,-8.373481 -0.578489,-14.642735 6.681229,-14.686496 7.259721,-0.04376 7.776027,6.219725 6.857797,14.604884" />
   <path style="fill:none;"
      d="m 45.928166,70.532222 c -1.286513,-4.3028 -1.972999,-9.431599 0.96756,-9.449329 2.940562,-0.0177 2.571043,4.40373 1.324823,8.7218" />
   <path style="fill:none;" d="m 56.077108,63.893517 c 0,0 -4.763095,-15.643831 -12.903789,-10.716711" id="path60" />
   <path style="fill:none;" d="M 67.811469,54.875664 C 65.788901,46.580685 52.278878,43.728038 52.777874,56.801608" />
   <path style="fill:none;"
      d="m 72.020474,48.306004 c -10.977942,-8.784358 -4.520968,-19.714378 2.682182,-19.757797 7.20315,-0.04342 13.779599,10.783886 2.920172,19.724026" />
   <path style="fill:none;" d="m 62.252098,48.485618 c 8.55828,-7.29621 1.54299,-11.238485 -2.239539,-17.180423" />
   <path style="fill:none;" d="m 55.113971,49.33763 c -1.458947,0.0088 -5.388124,-3.344929 -6.796338,-6.536149" />
   <ellipse style="fill:none;" cx="75.038055" cy="73.972435" rx="2.788394" ry="2.899368" />
   <line x1="74.996964" y1="77.375229" x2="75.07914" y2="92.938606" style="fill:none;" />
   <ellipse style="fill:none;" cx="54.777767" cy="79.243156" rx="2.788394" ry="2.899368" />
   <path style="fill:none;"
      d="m 41.489362,70.572282 c 5.431761,0.524777 10.493448,-0.739137 14.587746,-6.678765 6.562709,5.966584 9.685572,3.239321 12.033481,-1.446555 5.968623,8.2306 8.68365,5.645702 13.554785,0.04866 3.089759,6.310252 7.242573,6.003614 12.122588,1.170582 2.894332,5.023399 7.896798,7.194616 14.597508,7.068209" />
   <path style="fill:none;"
      d="m 73.676145,67.820023 c -1.286513,-4.3028 -1.720978,-8.7194 1.219581,-8.73713 2.940562,-0.0177 2.571043,4.40373 1.324823,8.7218" />
   <path style="fill:none;"
      d="m 73.676145,28.726079 c -1.286513,4.3028 -1.720978,8.7194 1.219581,8.73713 2.940562,0.0177 2.571043,-4.40373 1.324823,-8.7218" />
   <path style="fill:none;"
      d="m 89.141658,47.533742 c -1.286513,4.3028 -1.720978,8.7194 1.219581,8.73713 2.940562,0.0177 2.571043,-4.40373 1.324823,-8.7218" />
   <path style="fill:none;"
      d="m 58.045135,47.953675 c -1.286513,4.3028 -1.720978,8.7194 1.219581,8.73713 2.940562,0.0177 2.571043,-4.40373 1.324823,-8.7218" />
   <path style="fill:none;"
      d="m 101.67615,69.820023 c -1.28652,-4.3028 -1.720983,-8.7194 1.21958,-8.73713 2.94056,-0.0177 2.35986,5.04486 1.11364,9.36293" />
</svg>