<svg viewBox="0 0 150 150">
   <path
      d="M 88.885012,48.283009 C 88.10016,35.943421 84.729893,24.164722 75.034612,15.799105 65.316251,24.152793 61.945984,35.943421 61.184212,48.283009" />
   <path
      d="M 62.338415,38.807541 C 59.926134,34.284617 55.28625,29.260471 51.858276,28.484773 45.706393,36.050823 44.725322,45.001201 46.745172,54.73921"
      style="fill:none;" />
   <path
      d="m 74.999988,134.42143 c 26.108002,0 48.083962,-19.66695 48.083962,-43.916511 0,-24.249557 -21.96441,-43.86878 -48.083962,-43.86878 -26.119546,0 -48.083972,19.607292 -48.083972,43.86878 0,24.261491 21.975968,43.916511 48.083972,43.916511 z" />
   <path
      d="m 87.673104,38.807541 c 2.412277,-4.522924 7.052161,-9.54707 10.480134,-10.322768 6.151882,7.56605 7.132952,16.516428 5.113102,26.254437"
      style="fill:none;" />
   <path
      d="m 87.834686,59.835425 c 6.60203,0 14.942874,5.358538 16.962714,9.392177 2.16991,6.372668 -11.784795,0.393113 -18.282955,-3.533124 9.23361,3.329543 37.665985,25.299727 35.796185,32.603235 C 118.54796,109.03816 91.587897,80.681279 82.989103,70.215301 91.564807,80.585799 115.35082,114.81414 107.59459,122.61887 97.52997,131.03222 81.379802,86.074201 78.032622,72.720241 c 3.462599,13.71197 10.829309,60.710689 -3.044176,61.713129 v 0 C 61.138046,133.43093 68.443197,86.419569 71.940426,72.707599 68.604787,86.085429 52.446917,131.06802 42.382296,122.61887 34.626071,114.81414 58.483941,80.597415 67.048104,70.226917 58.483941,80.680965 31.428937,108.99043 27.666243,98.297713 25.796441,90.994205 54.344789,69.085262 63.532219,65.743785 57.034075,69.670022 37.809919,76.087215 39.979816,69.726482 42.03429,65.704778 55.5748,59.846894 62.188367,59.846894"
      style="fill:none;" />
   <path
      d="M 87.673104,38.807541 C 80.192318,31.454287 76.713119,30.13466 75.034612,15.799105 71.737284,31.021805 70.156284,34.016336 62.338415,38.807541"
      style="fill:none;" />
   <path
      d="M 62.338415,38.807541 C 57.067419,41.431403 53.860981,32.823644 51.858276,28.484773 52.498215,37.711046 52.03996,46.789224 46.745172,54.73921"
      style="fill:none;" />
   <path
      d="m 87.673104,38.807541 c 5.650658,1.346642 8.719969,-6.524168 10.480134,-10.322768 -0.591862,20.205913 4.169032,22.071726 5.113102,26.254437"
      style="fill:none;" />
   <path
      d="m 46.745172,54.73921 c -5.270996,2.623862 -7.319315,-6.235529 -9.32202,-10.5744 0.639939,9.226273 0.181684,18.304451 -5.113104,26.254437"
      style="fill:none;" />
   <path
      d="m 103.26634,54.73921 c 5.65066,1.346642 7.45427,-6.677362 9.21444,-10.475962 -0.59187,20.205913 4.16903,22.071726 5.1131,26.254437"
      style="fill:none;" />
   <path
      d="M 74.999988,73.093451 A 12.823162,13.258492 0 1 0 62.188367,59.846894 12.823162,13.258492 0 0 0 74.999988,73.093451"
      style="fill:none;" />
</svg>