<svg viewBox="0 0 150 150">
   <path
      d="m 74.996159,111.37864 c 13.640182,37.12588 48.714931,26.15991 57.843181,-3.08266 C 144.33375,72.047381 107.77435,50.590646 74.996159,15.000001 42.217967,50.590646 5.6585685,72.047381 17.164572,108.29598 c 9.093455,29.24257 44.203004,40.20854 57.831587,3.08266 z"
      />
   <path
      d="m 74.996159,111.37864 c 17.003832,10.33237 30.458431,7.37156 38.276021,-2.5831 8.20035,-10.405478 4.63952,-31.350468 -4.32635,-45.728065 C 95.444833,40.575065 75.483308,27.135668 74.996159,15.012186 74.50901,27.19659 54.547485,40.599434 41.023291,63.07966 c -8.919472,14.377596 -12.515098,35.334771 -4.32635,45.72807 7.840785,9.95466 21.295386,12.91547 38.27602,2.58309"
       />
   <path
      d="m 74.996159,48.997812 c 12.561494,9.74753 12.225129,36.382633 0,61.762748 -12.225129,-25.380115 -12.59629,-52.039588 0,-61.762748 z"
      />
   <path
      d="m 46.343383,79.945553 c 7.316576,-4.36786 19.350533,9.215978 28.084008,30.924597 C 60.079787,107.16312 47.872292,94.087998 46.343383,79.945553 Z"
      />
   <path
      d="M 103.81916,79.945553 C 96.502559,75.577693 84.468602,89.161531 75.735127,110.87015 90.082731,107.16312 102.29024,94.087998 103.81916,79.945553 Z"
      />
</svg>